<svg xmlns="http://www.w3.org/2000/svg" width="32" height="32" viewBox="0 0 32 32">
  <g id="animations" transform="translate(-294 -3461)">
    <rect id="Rectangle_6187" data-name="Rectangle 6187" width="32" height="32" transform="translate(294 3461)" fill="#006cf2" opacity="0"/>
    <path id="animations-2" data-name="animations" d="M31.954,8.986a13.332,13.332,0,0,0-2.2-3.308,10.18,10.18,0,0,0-3.3-2.206A9.733,9.733,0,0,0,22.506,2.7a10.584,10.584,0,0,0-5.493,1.544,10.249,10.249,0,0,0-3.735,4.08,10.381,10.381,0,0,0-2.527,1.764,11.411,11.411,0,0,0-1.758,2.536h0a11.02,11.02,0,0,0-4.065,3.749,10.992,10.992,0,0,0-1.428,5.4,9.483,9.483,0,0,0,.769,3.97,13.332,13.332,0,0,0,2.2,3.308,10.18,10.18,0,0,0,3.3,2.206,9.733,9.733,0,0,0,3.955.772A9.921,9.921,0,0,0,19.1,30.489a10.249,10.249,0,0,0,3.735-4.08h0a10.381,10.381,0,0,0,2.527-1.764,8.925,8.925,0,0,0,1.868-2.536A11.707,11.707,0,0,0,31.3,18.469a10.119,10.119,0,0,0,1.538-5.514A11.643,11.643,0,0,0,31.954,8.986ZM8.664,21.337a13.332,13.332,0,0,0,2.2,3.308,10.18,10.18,0,0,0,3.3,2.206,9.733,9.733,0,0,0,3.955.772,7.588,7.588,0,0,1-2.087,1.1,7.546,7.546,0,0,1-5.164-.221,8.464,8.464,0,0,1-2.307-1.544,6.571,6.571,0,0,1-1.538-2.316,6.365,6.365,0,0,1-.549-2.867,8.424,8.424,0,0,1,.33-2.316,7.636,7.636,0,0,1,1.1-2.1h0A9.483,9.483,0,0,0,8.664,21.337Zm9.448,3.419a8.225,8.225,0,0,1-2.856-.551,5.61,5.61,0,0,1-2.307-1.654,6.571,6.571,0,0,1-1.538-2.316,8.311,8.311,0,0,1-.549-2.867,7.864,7.864,0,0,1,.33-2.316,7.636,7.636,0,0,1,1.1-2.1,10.47,10.47,0,0,0,.879,4.08,13.332,13.332,0,0,0,2.2,3.308,10.18,10.18,0,0,0,3.3,2.206,9.958,9.958,0,0,0,4.065.882h0a7.588,7.588,0,0,1-2.087,1.1A21.372,21.372,0,0,1,18.112,24.755ZM25.033,19.9c-.439.11-.769.221-1.208.331a4.1,4.1,0,0,1-1.208.11H22.4a7.625,7.625,0,0,1-2.747-.551,5.61,5.61,0,0,1-2.307-1.654A6.57,6.57,0,0,1,15.8,15.823a8.311,8.311,0,0,1-.549-2.867,4.15,4.15,0,0,1,.11-1.213c.11-.441.22-.772.33-1.213a6.376,6.376,0,0,1,4.285-.221,6.681,6.681,0,0,1,3.406,1.985,8.752,8.752,0,0,1,1.978,3.419,8.053,8.053,0,0,1-.33,4.19ZM18,7.111a7.588,7.588,0,0,1,2.087-1.1,7.889,7.889,0,0,1,5.273.221A5.611,5.611,0,0,1,27.67,7.883,6.57,6.57,0,0,1,29.208,10.2a8.311,8.311,0,0,1,.549,2.867,7.864,7.864,0,0,1-.33,2.316,7.636,7.636,0,0,1-1.1,2.1,10.47,10.47,0,0,0-.879-4.08,13.332,13.332,0,0,0-2.2-3.308,10.18,10.18,0,0,0-3.3-2.206A8.742,8.742,0,0,0,18,7.111Z" transform="translate(291.833 3459.633)" fill="#006cf2"/>
  </g>
</svg>
