<svg id="Component_35_1" data-name="Component 35 – 1" xmlns="http://www.w3.org/2000/svg" width="96" height="96" viewBox="0 0 96 96">
  <g id="Component_34_1" data-name="Component 34 – 1">
    <rect id="Rectangle_5244" data-name="Rectangle 5244" width="96" height="96" rx="48" fill="#006cf2"/>
  </g>
  <g id="filemenu.and.selection" transform="translate(28.184 31.213)">
    <rect id="Rectangle_5587" data-name="Rectangle 5587" width="40" height="40" transform="translate(-0.184 -3.213)" fill="#fff" opacity="0"/>
    <path id="Path_606" data-name="Path 606" d="M8.538,8.438H22.7a1.03,1.03,0,1,0,0-2.059H8.538a1.03,1.03,0,1,0,0,2.059Zm0,15.988H22.7a1,1,0,0,0,1.038-1A1.026,1.026,0,0,0,22.7,22.366H8.538A1.026,1.026,0,0,0,7.5,23.421,1,1,0,0,0,8.538,24.425Zm-3.281,6.4H34.219c3.516,0,5.257-1.724,5.257-5.173V5.19c0-3.449-1.741-5.19-5.257-5.19H5.257C1.758,0,0,1.741,0,5.19V25.647Q0,30.82,5.257,30.82Zm.033-2.7A2.336,2.336,0,0,1,2.7,25.5V5.34A2.348,2.348,0,0,1,5.29,2.7h28.9A2.355,2.355,0,0,1,36.78,5.34V25.5a2.343,2.343,0,0,1-2.595,2.628Zm1.758-8.772h25.4a2.058,2.058,0,0,0,2.21-2.243V13.694a2.058,2.058,0,0,0-2.21-2.243H7.048a2.058,2.058,0,0,0-2.21,2.243v3.415A2.058,2.058,0,0,0,7.048,19.353ZM8.555,16.44a1.03,1.03,0,1,1,0-2.059h8.237a1.03,1.03,0,1,1,0,2.059Z" transform="translate(0.079 1.377)" fill="#fff"/>
  </g>
</svg>
