<svg id="Component_35_1" data-name="Component 35 – 1" xmlns="http://www.w3.org/2000/svg" width="96" height="96" viewBox="0 0 96 96">
  <g id="Component_34_1" data-name="Component 34 – 1">
    <rect id="Rectangle_5244" data-name="Rectangle 5244" width="96" height="96" rx="48" fill="#006cf2"/>
  </g>
  <g id="wrench.and.screwdriver.fill" transform="translate(27.898 27.581)">
    <rect id="Rectangle_5581" data-name="Rectangle 5581" width="40" height="40" transform="translate(0.102 0.419)" fill="#fff" opacity="0"/>
    <path id="Path_600" data-name="Path 600" d="M12.763,23.593l10.212-8.354L11.106,3.286C8.745.942,6.234.942,3.94,3.236L1.714,5.462c-2.294,2.294-2.294,4.8.05,7.148Zm-.988-7.165L5.129,9.815a.7.7,0,0,1,0-.971.713.713,0,0,1,.938,0l6.663,6.663a.642.642,0,0,1,0,.921A.667.667,0,0,1,11.775,16.428Zm2.193-2.16L7.339,7.588a.642.642,0,0,1,0-.921.662.662,0,0,1,.938,0L14.923,13.3a.7.7,0,0,1-.017.971A.677.677,0,0,1,13.968,14.268ZM35.8,39.262,37.757,37.3c.318-.318.251-.72-.033-1.256l-3.03-5.575a1.761,1.761,0,0,0-1.423-.938L31.5,29.452l-8.689-8.689L19.292,24.4l8.638,8.638.084,1.775a1.7,1.7,0,0,0,.937,1.389l5.608,3.064C35.062,39.513,35.464,39.6,35.8,39.262ZM2.618,37.806a6.5,6.5,0,0,0,9.676.033c3.683-3.716,3.013-7.935,14.833-19.7L25.67,16.662C12.78,29.6,14.738,32.013,10.587,36.165a4.219,4.219,0,0,1-6.311-.017,4.232,4.232,0,0,1-.05-6.311c4.185-4.169,6.6-2.193,19.52-15.084L22.289,13.3C10.52,25.116,6.3,24.446,2.584,28.113A6.493,6.493,0,0,0,2.618,37.806ZM23.444,16.963a9.675,9.675,0,0,0,13.661.268A9.562,9.562,0,0,0,38.394,5.613L36.77,7.253a7.308,7.308,0,0,1-1.239,8.421,7.454,7.454,0,0,1-10.513-.268,7.423,7.423,0,0,1-.251-10.513,7.217,7.217,0,0,1,8.37-1.222L34.778,2.03A9.5,9.5,0,0,0,23.209,3.336,9.649,9.649,0,0,0,23.444,16.963Zm5.073-7.517,2.478,2.461a2.655,2.655,0,0,0,4,.084l3.516-3.532L37.038,7l-3.2,3.164a.983.983,0,0,1-1.507,0L30.291,8.107a1.023,1.023,0,0,1-.084-1.54l3.231-3.2L31.915,1.9,28.433,5.4A2.64,2.64,0,0,0,28.516,9.446ZM7.389,35.144a2.068,2.068,0,1,0,0-4.135,2.068,2.068,0,0,0,0,4.135Z" transform="translate(0.103 -0.234)" fill="#fff"/>
  </g>
</svg>
