<svg id="Component_36_1" data-name="Component 36 – 1" xmlns="http://www.w3.org/2000/svg" width="96" height="96" viewBox="0 0 96 96">
  <g id="Component_34_1" data-name="Component 34 – 1">
    <rect id="Rectangle_5244" data-name="Rectangle 5244" width="96" height="96" rx="48" fill="#006cf2"/>
  </g>
  <g id="medal" transform="translate(30.859 28.441)">
    <rect id="Rectangle_5579" data-name="Rectangle 5579" width="40" height="40" transform="translate(-2.859 -0.441)" fill="#fff" opacity="0"/>
    <path id="Path_598" data-name="Path 598" d="M6.944,22.22l1.791-1.858L2.776,8.66l2.7-4.135,7.065,13.929L15.281,18,7.095,2.751H24.723L16.537,18l2.745.452L26.347,4.525,29.059,8.66l-5.977,11.7,1.791,1.858L31.6,9.581a1.577,1.577,0,0,0-.05-1.708L27.017.926a1.582,1.582,0,0,0-1.423-.7H6.241a1.546,1.546,0,0,0-1.423.7L.264,7.873a1.647,1.647,0,0,0-.05,1.708ZM9.706,10.435H22.128V7.907H9.706Zm6.211,27.891A10.974,10.974,0,1,0,4.935,27.36,10.96,10.96,0,0,0,15.917,38.325Zm0-2.528a8.446,8.446,0,1,1,8.437-8.437A8.438,8.438,0,0,1,15.917,35.8ZM12.971,32.65l2.963-2.16,2.93,2.16c.636.452,1.272-.017,1.038-.72l-1.189-3.5,3-2.143a.635.635,0,0,0-.385-1.189l-3.666.034-1.122-3.516a.627.627,0,0,0-1.239,0l-1.122,3.516L10.51,25.1a.639.639,0,0,0-.368,1.205l3,2.126-1.189,3.5C11.715,32.633,12.351,33.1,12.971,32.65Z" transform="translate(1.225 0.285)" fill="#fff"/>
  </g>
</svg>
