<svg xmlns="http://www.w3.org/2000/svg" width="32" height="32" viewBox="0 0 32 32">
  <g id="focus" transform="translate(-528 -3329)">
    <rect id="Rectangle_6197" data-name="Rectangle 6197" width="32" height="32" transform="translate(528 3329)" fill="#006cf2" opacity="0"/>
    <path id="focus-2" data-name="focus" d="M20.385,17.667a1.918,1.918,0,1,1-3.836,0,1.836,1.836,0,0,1,1.918-1.918A1.977,1.977,0,0,1,20.385,17.667Zm12.749,0a1.066,1.066,0,0,1-1.128,1.128H30.087a12.274,12.274,0,0,1-.79,3.385,12.47,12.47,0,0,1-2.482,3.836A10.706,10.706,0,0,1,22.979,28.5a11.4,11.4,0,0,1-3.385.79v1.918a1.128,1.128,0,1,1-2.256,0V29.287a12.274,12.274,0,0,1-3.385-.79,12.47,12.47,0,0,1-3.836-2.482,10.706,10.706,0,0,1-2.482-3.836,18.363,18.363,0,0,1-.79-3.385H4.928a1.128,1.128,0,1,1,0-2.256H6.846a12.274,12.274,0,0,1,.79-3.385,12.47,12.47,0,0,1,2.482-3.836,10.706,10.706,0,0,1,3.836-2.482,10.633,10.633,0,0,1,3.385-.79V4.128a1.128,1.128,0,1,1,2.256,0V6.046a12.274,12.274,0,0,1,3.385.79A12.283,12.283,0,0,1,26.7,9.431a10.706,10.706,0,0,1,2.482,3.836,11.4,11.4,0,0,1,.79,3.385h1.918A.978.978,0,0,1,33.133,17.667Zm-5.3,0a9.772,9.772,0,0,0-.677-3.61,9.334,9.334,0,0,0-5.077-5.077,9.965,9.965,0,0,0-7.221,0,9.334,9.334,0,0,0-5.077,5.077,9.966,9.966,0,0,0,0,7.221,9.334,9.334,0,0,0,5.077,5.077,9.965,9.965,0,0,0,7.221,0,9.334,9.334,0,0,0,5.077-5.077A9.772,9.772,0,0,0,27.831,17.667Z" transform="translate(525.534 3327.333)" fill="#006cf2"/>
  </g>
</svg>
