<svg xmlns="http://www.w3.org/2000/svg" xmlns:xlink="http://www.w3.org/1999/xlink" width="140.454" height="37" viewBox="0 0 140.454 37">
  <defs>
    <clipPath id="clip-path">
      <rect id="Rectangle_5229" data-name="Rectangle 5229" width="140.454" height="37" fill="none"/>
    </clipPath>
  </defs>
  <g id="Group_1" data-name="Group 1" clip-path="url(#clip-path)">
    <path id="Path_1" data-name="Path 1" d="M63.349,5.227a5.227,5.227,0,1,0-5.227,5.227,5.227,5.227,0,0,0,5.227-5.227" transform="translate(-38.755)" fill="#f9ae40"/>
    <path id="Path_2" data-name="Path 2" d="M44.109,19.715A16.3,16.3,0,0,1,34.7,34.473a16.251,16.251,0,0,0-17.483-2.429,16.245,16.245,0,0,1-5.661-12.329h6.794a9.485,9.485,0,1,0,18.97,0Z" transform="translate(-8.464 -14.444)" fill="#57cefb"/>
    <path id="Path_3" data-name="Path 3" d="M31.2,85.232,24.69,83.293a9.485,9.485,0,0,0-18.18-5.416L0,75.937A16.234,16.234,0,0,1,8.75,65.831,16.249,16.249,0,0,0,26.233,68.26,16.292,16.292,0,0,1,31.2,85.232" transform="translate(0 -48.232)" fill="#006cf2"/>
    <g id="Group_3" data-name="Group 3" transform="translate(44.474 5.997)">
      <path id="Path_4" data-name="Path 4" d="M369,98.111a1.775,1.775,0,0,0-1.772,2.232,2.914,2.914,0,0,0,2.719,2.259,1.782,1.782,0,0,0,1.8-2.259A2.96,2.96,0,0,0,369,98.111" transform="translate(-313.495 -77.879)" fill="#fff"/>
      <path id="Path_5" data-name="Path 5" d="M368.644,53.95h-1.625l-.016,0h5.577l-1.15-5.363-.508-2.361-.011-.048h-3.978l.016.072Z" transform="translate(-313.311 -39.832)" fill="#fff"/>
      <path id="Path_6" data-name="Path 6" d="M390.522,98.111a1.774,1.774,0,0,0-1.772,2.232,2.914,2.914,0,0,0,2.719,2.259,1.782,1.782,0,0,0,1.8-2.259,2.962,2.962,0,0,0-2.748-2.232" transform="translate(-329.259 -77.879)" fill="#fff"/>
      <path id="Path_7" data-name="Path 7" d="M404.875,26.922a1.777,1.777,0,0,0,1.775-2.262,2.962,2.962,0,0,0-2.746-2.23,1.773,1.773,0,0,0-1.775,2.23,2.922,2.922,0,0,0,2.746,2.262" transform="translate(-339.062 -22.431)" fill="#fff"/>
      <path id="Path_8" data-name="Path 8" d="M262.219,44.8l-.059-.345a9.008,9.008,0,0,0-8.555-7.154h-7.127l1.553,7.285.021.1.615,2.767-1.061,0H247.6c-.04,0-.08,0-.123,0h-7.5l-.019-.013-3,0-1.674-7.726h-3.949l1.374,7.723-.66,0h-.021a.11.11,0,0,1-.029,0h-.489l-.024,0h-1.524l-.008-.008H217.007l-38.417.013h-5.422l-1.754-7.737h-3.836l2.3,10.83c.572,2.6-1.061,3.462-3.521,3.949l2.232,3.748c3.863-.743,5.839-3.061,5.352-6.782l-.086-.628a7.935,7.935,0,0,0,1.222.444l51.495.1c-.342-.938-.663-1.794-.9-2.4,0,.008.053.045.059.051.527.449,1.059.9,1.58,1.353.262.227.516.471.794.676a1.817,1.817,0,0,0,1.051.326s.136,0,.356,0l-.008.016h8.277l-.847-2.374,2.062,1.8a2.314,2.314,0,0,0,1.524.572h7.787c1.43,0,4.515,0,2.9-2.922,1.4,1.085,3.625,2.922,5.4,2.922a5.436,5.436,0,0,0,5.611-6.611m-6.44,2.66a3.818,3.818,0,0,1-3.751-2.748l-.743-3.462h3.034a3.938,3.938,0,0,1,3.863,3.034l.086.315a2.421,2.421,0,0,1-2.489,2.861" transform="translate(-166.357 -33.328)" fill="#fff"/>
    </g>
  </g>
</svg>
