<svg xmlns="http://www.w3.org/2000/svg" width="32" height="32" viewBox="0 0 32 32">
  <g id="hide-images" transform="translate(-294 -3329)">
    <rect id="Rectangle_6183" data-name="Rectangle 6183" width="32" height="32" transform="translate(294 3329)" fill="#006cf2" opacity="0"/>
    <path id="hide-images-2" data-name="hide-images" d="M26.364,28.874,25,27.5H4.906a3.126,3.126,0,0,1-3.08-3.094V4.239L.455,2.863A1.117,1.117,0,0,1,0,1.833,1.4,1.4,0,0,1,.342.8,1.583,1.583,0,0,1,2.51.8L28.419,26.812a1.112,1.112,0,0,1,.457,1.03,1.708,1.708,0,0,1-.457,1.032,1.235,1.235,0,0,1-1.027.459A1.7,1.7,0,0,1,26.364,28.874ZM4.793,24.52h17.12l-3.08-3.094H7.76l-.229-.113c-.113-.115-.227-.231-.342-.344l-.113-.344v-.115a.217.217,0,0,0,0-.344l3.083-4.124a.8.8,0,0,1,1.253,0l2.854,3.78L15.522,18.1,4.793,7.333Zm21.458-4.354V3.092H9.244L6.162,0H26.139a3.1,3.1,0,0,1,2.168.917,3.9,3.9,0,0,1,1.027,2.175V23.259Z" transform="translate(295.334 3330.334)" fill="#006cf2"/>
  </g>
</svg>
