<svg xmlns="http://www.w3.org/2000/svg" width="32" height="32" viewBox="0 0 32 32">
  <g id="hover" transform="translate(-528 -3296)">
    <rect id="Rectangle_6194" data-name="Rectangle 6194" width="32" height="32" transform="translate(528 3296)" fill="#006cf2" opacity="0"/>
    <path id="hover-2" data-name="hover" d="M28.019,25.755a1.333,1.333,0,0,1-.105.63,1.845,1.845,0,0,1-.42.525,4.551,4.551,0,0,1-.525.105H22.24L19.4,30.8a1.049,1.049,0,0,1-.525.42h-.315a.386.386,0,0,1-.315-.105,1.049,1.049,0,0,1-.525-.42,1.494,1.494,0,0,1-.21-.63v-12.5a1.494,1.494,0,0,1,.21-.63c.105-.21.315-.315.42-.42h.63a.578.578,0,0,1,.525.315L27.7,25.23A.578.578,0,0,1,28.019,25.755ZM30.962,7.261A3.816,3.816,0,0,0,28.019,6H7A3.816,3.816,0,0,0,4.061,7.261,4.418,4.418,0,0,0,2.8,10.2V20.711a3.816,3.816,0,0,0,1.261,2.942A3.976,3.976,0,0,0,7,24.914H15.41V17.559a3.542,3.542,0,0,1,.525-1.786A2.905,2.905,0,0,1,17.3,14.617a3.5,3.5,0,0,1,1.786-.21,2.891,2.891,0,0,1,1.576.841l8.406,8.406a1.451,1.451,0,0,1,.315.42l.315.42.42-.21a5.143,5.143,0,0,0,1.366-1.261,4.236,4.236,0,0,0,.63-2.312V10.2A3.415,3.415,0,0,0,30.962,7.261Z" transform="translate(526.534 3294.39)" fill="#006cf2"/>
  </g>
</svg>
