<svg xmlns="http://www.w3.org/2000/svg" xmlns:xlink="http://www.w3.org/1999/xlink" width="128" height="111" viewBox="0 0 128 111">
  <defs>
    <linearGradient id="linear-gradient" x1="0.5" x2="0.5" y2="1" gradientUnits="objectBoundingBox">
      <stop offset="0" stop-color="#fff"/>
      <stop offset="1" stop-color="#dbc1ff"/>
    </linearGradient>
    <clipPath id="clip-path">
      <path id="Path_1575" data-name="Path 1575" d="M0,0H128V70H0Z" transform="translate(0 -0.283)" fill="#fff"/>
    </clipPath>
    <linearGradient id="linear-gradient-2" x1="0.5" x2="0.5" y2="1" gradientUnits="objectBoundingBox">
      <stop offset="0" stop-color="#fff"/>
      <stop offset="1" stop-color="#a7ceff"/>
    </linearGradient>
    <filter id="Path_1571">
      <feOffset dx="-1" input="SourceAlpha"/>
      <feGaussianBlur result="blur"/>
      <feFlood flood-color="#def7ff" result="color"/>
      <feComposite operator="out" in="SourceGraphic" in2="blur"/>
      <feComposite operator="in" in="color"/>
      <feComposite operator="in" in2="SourceGraphic"/>
    </filter>
    <clipPath id="clip-path-2">
      <rect id="Rectangle_6008" data-name="Rectangle 6008" width="128" height="27" transform="translate(0 -0.405)" fill="url(#linear-gradient)"/>
    </clipPath>
  </defs>
  <g id="Group_5839" data-name="Group 5839" transform="translate(-1095 -985)">
    <g id="Group_5830" data-name="Group 5830" transform="translate(0 -4)">
      <g id="Mask_Group_69" data-name="Mask Group 69" transform="translate(1095 989.283)" clip-path="url(#clip-path)">
        <g data-type="innerShadowGroup">
          <path id="Path_1571-2" data-name="Path 1571" d="M-127.755-14.6a2.77,2.77,0,0,1-2.021-.866,2.768,2.768,0,0,1-.866-2.02v-54.95l-15.819,12.121a2.527,2.527,0,0,1-2.136.577A3.246,3.246,0,0,1-150.5-61l-6.812-8.889a3.133,3.133,0,0,1-.52-2.251,2.582,2.582,0,0,1,1.328-1.9L-129.949-94.6a4.613,4.613,0,0,1,1.328-.635,5.5,5.5,0,0,1,1.443-.173h14.433a2.814,2.814,0,0,1,2.078.808,2.812,2.812,0,0,1,.808,2.078v75.036a2.867,2.867,0,0,1-.808,2.02,2.716,2.716,0,0,1-2.078.866Zm64.546,1.154A39.479,39.479,0,0,1-77.585-15.81a28.119,28.119,0,0,1-10.1-6.522,27.7,27.7,0,0,1-6.12-9.7,39.836,39.836,0,0,1-2.425-11.89q-.115-3.117-.173-7.1t0-8.081q.058-4.1.173-7.33A38.108,38.108,0,0,1-93.75-78.263a27.516,27.516,0,0,1,6.235-9.582,28.473,28.473,0,0,1,10.161-6.407A39.638,39.638,0,0,1-63.21-96.56a40,40,0,0,1,14.26,2.309,27.893,27.893,0,0,1,10.1,6.407,28.646,28.646,0,0,1,6.235,9.582,37.072,37.072,0,0,1,2.54,11.833q.115,3.232.173,7.33t0,8.081q-.058,3.983-.173,7.1a38.709,38.709,0,0,1-2.483,11.89,28.848,28.848,0,0,1-6.12,9.7A27.548,27.548,0,0,1-48.719-15.81,39.84,39.84,0,0,1-63.21-13.443Zm0-16.739q6,0,8.718-3.867T-51.663-44.5q.231-3.348.289-7.042t0-7.388q-.058-3.694-.289-6.811-.115-6.349-2.829-10.274t-8.718-4.04q-5.889.115-8.6,4.04a18.975,18.975,0,0,0-2.944,10.274q0,3.117-.058,6.811t0,7.388q.058,3.694.058,7.042.231,6.58,3,10.447T-63.21-30.182Z" transform="translate(157.869 96.277)" fill="url(#linear-gradient-2)"/>
          <g transform="matrix(1, 0, 0, 1, 0, -0.28)" filter="url(#Path_1571)">
            <path id="Path_1571-3" data-name="Path 1571" d="M-127.755-14.6a2.77,2.77,0,0,1-2.021-.866,2.768,2.768,0,0,1-.866-2.02v-54.95l-15.819,12.121a2.527,2.527,0,0,1-2.136.577A3.246,3.246,0,0,1-150.5-61l-6.812-8.889a3.133,3.133,0,0,1-.52-2.251,2.582,2.582,0,0,1,1.328-1.9L-129.949-94.6a4.613,4.613,0,0,1,1.328-.635,5.5,5.5,0,0,1,1.443-.173h14.433a2.814,2.814,0,0,1,2.078.808,2.812,2.812,0,0,1,.808,2.078v75.036a2.867,2.867,0,0,1-.808,2.02,2.716,2.716,0,0,1-2.078.866Zm64.546,1.154A39.479,39.479,0,0,1-77.585-15.81a28.119,28.119,0,0,1-10.1-6.522,27.7,27.7,0,0,1-6.12-9.7,39.836,39.836,0,0,1-2.425-11.89q-.115-3.117-.173-7.1t0-8.081q.058-4.1.173-7.33A38.108,38.108,0,0,1-93.75-78.263a27.516,27.516,0,0,1,6.235-9.582,28.473,28.473,0,0,1,10.161-6.407A39.638,39.638,0,0,1-63.21-96.56a40,40,0,0,1,14.26,2.309,27.893,27.893,0,0,1,10.1,6.407,28.646,28.646,0,0,1,6.235,9.582,37.072,37.072,0,0,1,2.54,11.833q.115,3.232.173,7.33t0,8.081q-.058,3.983-.173,7.1a38.709,38.709,0,0,1-2.483,11.89,28.848,28.848,0,0,1-6.12,9.7A27.548,27.548,0,0,1-48.719-15.81,39.84,39.84,0,0,1-63.21-13.443Zm0-16.739q6,0,8.718-3.867T-51.663-44.5q.231-3.348.289-7.042t0-7.388q-.058-3.694-.289-6.811-.115-6.349-2.829-10.274t-8.718-4.04q-5.889.115-8.6,4.04a18.975,18.975,0,0,0-2.944,10.274q0,3.117-.058,6.811t0,7.388q.058,3.694.058,7.042.231,6.58,3,10.447T-63.21-30.182Z" transform="translate(157.87 96.56)" fill="#fff"/>
          </g>
        </g>
      </g>
      <g id="Group_5829" data-name="Group 5829" transform="translate(1095 1073.405)">
        <g id="Group_5829-2" data-name="Group 5829" transform="translate(0 0)" clip-path="url(#clip-path-2)">
          <path id="Path_1577" data-name="Path 1577" d="M46.854,6.309H43.677V3.626h3.177ZM42.618,3.624H39.464V6.307h3.153Zm17.635,0h-4V6.378h4Zm3.754,8.52a5.944,5.944,0,0,1,.506,2.541,5.712,5.712,0,0,1-.53,2.541,5.207,5.207,0,0,1-1.425,1.8A6.007,6.007,0,0,1,60.477,20.1a8.749,8.749,0,0,1-2.506.353H50.322l0,0,0,0H33.9l-.006,0-.008,0h-.54a2.108,2.108,0,0,1-1.236-.4,2.245,2.245,0,0,1-.836-1.081h-.094a5.225,5.225,0,0,1-.2.706,3,3,0,0,1-.389.777H11.06V17.321h1.623V3.624H16.33v10.8h.094a17.309,17.309,0,0,1,1.531-1.905,10.7,10.7,0,0,1,1.847-1.6,9.6,9.6,0,0,1,2.131-1.093,6.892,6.892,0,0,1,2.4-.412,10.455,10.455,0,0,1,2.682.33,6.18,6.18,0,0,1,2.176,1.024,4.783,4.783,0,0,1,1.46,1.788,6.03,6.03,0,0,1,.53,2.647v.306a2.186,2.186,0,0,0,.177.965,1.331,1.331,0,0,0,.471.542,1.743,1.743,0,0,0,.695.247,5.623,5.623,0,0,0,.824.057h.54l.008,0,.006,0h3.7v-.094a4.764,4.764,0,0,1-.777-1.2,3.3,3.3,0,0,1-.283-1.342,5.869,5.869,0,0,1,.495-2.482,5.263,5.263,0,0,1,1.354-1.811,5.756,5.756,0,0,1,2.035-1.119A8.382,8.382,0,0,1,42.994,8.9a9.051,9.051,0,0,1,2.565.353,5.836,5.836,0,0,1,2.084,1.081,5.158,5.158,0,0,1,1.387,1.813,5.944,5.944,0,0,1,.506,2.541,3.268,3.268,0,0,1-.283,1.342,4.711,4.711,0,0,1-.777,1.2v.094h1.837l0,0,0,0H52.58v-.094a4.711,4.711,0,0,1-.777-1.2,3.3,3.3,0,0,1-.281-1.342,5.9,5.9,0,0,1,.493-2.482,5.263,5.263,0,0,1,1.354-1.811,5.765,5.765,0,0,1,2.037-1.119A8.36,8.36,0,0,1,57.971,8.9a9.041,9.041,0,0,1,2.565.353,5.82,5.82,0,0,1,2.084,1.081,5.158,5.158,0,0,1,1.387,1.813M27.133,15.251a2.673,2.673,0,0,0-.73-1.978,2.942,2.942,0,0,0-2.164-.728,5.273,5.273,0,0,0-1.837.33,9,9,0,0,0-1.693.836,11.385,11.385,0,0,0-1.47,1.093c-.447.392-.842.765-1.179,1.119s-.606.657-.81.918a4.854,4.854,0,0,0-.353.481H27.133Zm18.261-.565a4.166,4.166,0,0,0-.141-1.1,2.474,2.474,0,0,0-.436-.895,2.114,2.114,0,0,0-.754-.6,2.4,2.4,0,0,0-1.069-.224,2.072,2.072,0,0,0-1.825.824,3.406,3.406,0,0,0-.577,2,3.362,3.362,0,0,0,.577,1.99,2.445,2.445,0,0,0,3.636,0,3.3,3.3,0,0,0,.589-1.99m14.976,0a4.166,4.166,0,0,0-.141-1.1,2.474,2.474,0,0,0-.436-.895,2.1,2.1,0,0,0-.754-.6,2.411,2.411,0,0,0-1.069-.224,2.072,2.072,0,0,0-1.825.824,3.392,3.392,0,0,0-.577,2,3.348,3.348,0,0,0,.577,1.99,2.445,2.445,0,0,0,3.636,0,3.3,3.3,0,0,0,.589-1.99m25.995,1.366a13.068,13.068,0,0,1-.33,3.153,5.409,5.409,0,0,1-1,2.117,3.859,3.859,0,0,1-1.705,1.2A7.091,7.091,0,0,1,80.9,22.9a7.26,7.26,0,0,1-2.459-.377,3.846,3.846,0,0,1-1.719-1.2,5.381,5.381,0,0,1-1-2.117,12.971,12.971,0,0,1-.33-3.153V13.864H71.585v2.188a19.174,19.174,0,0,0,.389,3.989A7.742,7.742,0,0,0,73.4,23.206,6.8,6.8,0,0,0,76.258,25.3a12.417,12.417,0,0,0,4.694.754,12.182,12.182,0,0,0,4.672-.765,6.9,6.9,0,0,0,2.871-2.129,7.991,7.991,0,0,0,1.448-3.271,20.418,20.418,0,0,0,.4-4.19V13.369H86.366ZM83.094,8.968h-4v2.753h4Zm9.849,11.485h4V3.626h-4Zm31.88-14.144H128V3.626h-3.177ZM125.647,0H122.47V2.682h3.177Zm-2.259,10.426h4V20.453h-16.2a6.552,6.552,0,0,1-2.282,4.188,7.991,7.991,0,0,1-5.061,1.413,6.455,6.455,0,0,1-.907-.059c-.273-.039-.512-.082-.716-.13q-.353-.094-.659-.188V22.853a5.7,5.7,0,0,0,1,.294,5.37,5.37,0,0,0,3.542-.495,2.95,2.95,0,0,0,1.175-2.2H104.69a6.212,6.212,0,0,1-2.188-.377,5.173,5.173,0,0,1-1.754-1.071,4.782,4.782,0,0,1-1.154-1.7,5.877,5.877,0,0,1-.412-2.247,8.4,8.4,0,0,1,.33-2.388,5.083,5.083,0,0,1,1.071-1.954A5.189,5.189,0,0,1,102.5,9.392a7.409,7.409,0,0,1,2.871-.495,7.926,7.926,0,0,1,2.871.459,4.436,4.436,0,0,1,1.894,1.352,5.687,5.687,0,0,1,1.048,2.225,12.932,12.932,0,0,1,.33,3.095c0,.3,0,.522-.012.669s-.02.359-.035.624h11.921Zm-15.852,5.508a13.769,13.769,0,0,0-.094-1.7,4.27,4.27,0,0,0-.341-1.281,1.957,1.957,0,0,0-.657-.812,1.862,1.862,0,0,0-1.071-.283,1.827,1.827,0,0,0-1.024.271,2,2,0,0,0-.659.718,3.267,3.267,0,0,0-.351,1.013,6.05,6.05,0,0,0-.108,1.152,5.427,5.427,0,0,0,.082,1,1.569,1.569,0,0,0,.318.718,1.518,1.518,0,0,0,.648.436,3.272,3.272,0,0,0,1.095.151h2.164Zm15.757-12.31h-3.153V6.307h3.153ZM0,20.453H4.378V16.075H0ZM3.177,14.9,4.26,7.814V3.648H.141V7.814L1.223,14.9Z" transform="translate(0 -0.317)" fill="url(#linear-gradient)"/>
        </g>
      </g>
      <line id="Line_523" data-name="Line 523" x1="127" transform="translate(1095.5 1059.5)" fill="none" stroke="#3c27b2" stroke-width="1"/>
    </g>
  </g>
</svg>
