<svg xmlns="http://www.w3.org/2000/svg" xmlns:xlink="http://www.w3.org/1999/xlink" width="56" height="56" viewBox="0 0 56 56">
  <defs>
    <clipPath id="clip-path">
      <rect id="Rectangle_5550" data-name="Rectangle 5550" width="52.127" height="56" fill="#f7931b"/>
    </clipPath>
  </defs>
  <g id="Group_5525" data-name="Group 5525" transform="translate(2 0)">
    <rect id="Rectangle_5554" data-name="Rectangle 5554" width="56" height="56" transform="translate(-2)" fill="#f7931b" opacity="0"/>
    <g id="Group_5524" data-name="Group 5524" transform="translate(0 0)" clip-path="url(#clip-path)">
      <path id="Path_55" data-name="Path 55" d="M29.018,10.849H10.991a1.43,1.43,0,0,0-1.48,1.44,1.451,1.451,0,0,0,1.48,1.48H29.018a1.446,1.446,0,0,0,1.46-1.48,1.425,1.425,0,0,0-1.46-1.44m0,8.294H10.991a1.43,1.43,0,0,0-1.48,1.44,1.451,1.451,0,0,0,1.48,1.48H29.018a1.446,1.446,0,0,0,1.46-1.48,1.425,1.425,0,0,0-1.46-1.44m-9.51,8.294H10.991a1.46,1.46,0,1,0,0,2.92h8.517a1.46,1.46,0,1,0,0-2.92m0,0H10.991a1.46,1.46,0,1,0,0,2.92h8.517a1.46,1.46,0,1,0,0-2.92m9.51-8.294H10.991a1.43,1.43,0,0,0-1.48,1.44,1.451,1.451,0,0,0,1.48,1.48H29.018a1.446,1.446,0,0,0,1.46-1.48,1.425,1.425,0,0,0-1.46-1.44m0-8.294H10.991a1.43,1.43,0,0,0-1.48,1.44,1.451,1.451,0,0,0,1.48,1.48H29.018a1.446,1.446,0,0,0,1.46-1.48,1.425,1.425,0,0,0-1.46-1.44M32.607,0H7.381C2.454,0,0,2.514,0,7.462V43.517q0,7.452,7.381,7.442H23.056a16.629,16.629,0,0,1-1.825-3.833H7.564c-2.474,0-3.731-1.3-3.731-3.691V7.543c0-2.373,1.257-3.711,3.731-3.711H32.425c2.474,0,3.731,1.338,3.731,3.711V24.273c.527-.041,1.054-.061,1.6-.061a15.975,15.975,0,0,1,2.21.142V7.462C39.968,2.514,37.535,0,32.607,0m-13.1,27.436H10.991a1.46,1.46,0,1,0,0,2.92h8.517a1.46,1.46,0,1,0,0-2.92m9.51-8.294H10.991a1.43,1.43,0,0,0-1.48,1.44,1.451,1.451,0,0,0,1.48,1.48H29.018a1.446,1.446,0,0,0,1.46-1.48,1.425,1.425,0,0,0-1.46-1.44m0-8.294H10.991a1.43,1.43,0,0,0-1.48,1.44,1.451,1.451,0,0,0,1.48,1.48H29.018a1.446,1.446,0,0,0,1.46-1.48,1.425,1.425,0,0,0-1.46-1.44m-5.633,30.78A14.371,14.371,0,1,1,37.756,56,14.371,14.371,0,0,1,23.385,41.629M32.451,36.8a1.347,1.347,0,1,0-1.125,2.448l.067.028.667.286a14.167,14.167,0,0,0,3.009.915v2.813a2.152,2.152,0,0,1-.12.708l-1.61,4.832a1.35,1.35,0,0,0,2.541.913l.018-.059,1.371-4.108a.519.519,0,0,1,.988,0l1.369,4.108a1.349,1.349,0,0,0,2.559-.854l-1.61-4.834a2.107,2.107,0,0,1-.118-.708v-2.8a14.547,14.547,0,0,0,3.007-.915l.667-.286a1.347,1.347,0,1,0-1.018-2.494l-.043.018-.673.28a11.757,11.757,0,0,1-9.283,0l-.667-.286Zm5.3-.556A2.246,2.246,0,1,0,35.511,34a2.244,2.244,0,0,0,2.245,2.245" transform="translate(0 0)" fill="#f7931b"/>
    </g>
  </g>
</svg>
