<svg xmlns="http://www.w3.org/2000/svg" width="56" height="56" viewBox="0 0 56 56">
  <g id="rectangle.and.hand.point.up.left.filled" transform="translate(0 1.843)">
    <rect id="Rectangle_5549" data-name="Rectangle 5549" width="56" height="56" transform="translate(0 -1.843)" fill="#09abed" opacity="0"/>
    <path id="Path_54" data-name="Path 54" d="M7,37.4h9.839a10.55,10.55,0,0,1-1.866-3.249h-7.9c-2.466,0-3.825-1.359-3.825-3.848V7.42c0-2.489,1.36-3.871,3.825-3.871H37.467c2.443,0,3.8,1.383,3.8,3.871v8.618a6.089,6.089,0,0,1,3.249.945V7.212C44.518,2.6,42.214.3,37.536.3H7C2.327.3,0,2.581,0,7.212v23.3C0,35.14,2.327,37.4,7,37.4ZM45.647,49.749c9.4-3.433,12.512-11.2,8.871-21.291L53,24.287c-1.359-3.779-4.055-5.461-6.129-4.7a.688.688,0,0,0-.461.945l.668,1.867c.3.853.023,1.452-.484,1.659-.576.207-1.175-.069-1.5-.945l-.438-1.221c-.829-2.235-2.765-3.18-4.724-2.466-.876.323-1.152.807-.876,1.567l.922,2.489c.346.876.023,1.475-.484,1.659-.553.207-1.175-.069-1.475-.922l-.829-2.327c-.9-2.535-2.834-3.157-4.7-2.466-.829.277-1.129.853-.876,1.544L33.389,25.9c.322.876.046,1.452-.461,1.659-.576.207-1.175-.069-1.5-.945L25.462,10.185a2.607,2.607,0,1,0-4.885,1.774l8.779,24.056a.853.853,0,0,1-.438,1.175c-.369.092-.737.023-1.221-.484l-5.9-6.36a2.377,2.377,0,0,0-2.765-.783A2.41,2.41,0,0,0,17.42,32.7a3.7,3.7,0,0,0,.668,1.152l7.328,9.171C31.591,50.762,38.711,52.26,45.647,49.749Z" transform="translate(0 0.289)" fill="#09abed"/>
  </g>
</svg>
