<svg xmlns="http://www.w3.org/2000/svg" xmlns:xlink="http://www.w3.org/1999/xlink" width="56" height="56" viewBox="0 0 56 56">
  <defs>
    <clipPath id="clip-path">
      <rect id="Rectangle_5552" data-name="Rectangle 5552" width="56" height="47.333" fill="#767eff"/>
    </clipPath>
  </defs>
  <g id="Group_5527" data-name="Group 5527" transform="translate(0 4.667)">
    <rect id="Rectangle_5553" data-name="Rectangle 5553" width="56" height="56" transform="translate(0 -4.667)" fill="#767eff" opacity="0"/>
    <g id="Group_5526" data-name="Group 5526" transform="translate(0 0.333)" clip-path="url(#clip-path)">
      <path id="Path_57" data-name="Path 57" d="M19.155,9.324a3.692,3.692,0,0,1,3.536-3.829,3.67,3.67,0,0,1,3.544,3.811,3.746,3.746,0,0,1-3.544,3.917,3.74,3.74,0,0,1-3.536-3.9m-6.406,3.9a3.752,3.752,0,0,0,3.544-3.917,3.67,3.67,0,0,0-3.544-3.811A3.7,3.7,0,0,0,9.2,9.324a3.741,3.741,0,0,0,3.544,3.9m19.883,0a3.746,3.746,0,0,0,3.544-3.917,3.554,3.554,0,1,0-7.088.018,3.741,3.741,0,0,0,3.544,3.9m-.008,1.586a8.764,8.764,0,0,0-3.917.886,5.924,5.924,0,0,1,2.56,4.554,2.241,2.241,0,0,1-.3,1.179h7.22c1.4,0,1.9-.4,1.9-1.179,0-2.285-2.86-5.44-7.459-5.44m-9.932,0a8.687,8.687,0,0,0-3.925.894,5.932,5.932,0,0,1,2.552,4.546,2.152,2.152,0,0,1-.3,1.179h7.24c1.391,0,1.886-.4,1.886-1.179,0-2.285-2.862-5.44-7.451-5.44m-9.95,0c-4.59,0-7.451,3.155-7.451,5.44,0,.78.5,1.179,1.886,1.179H18.305c1.4,0,1.9-.4,1.9-1.179,0-2.285-2.862-5.44-7.461-5.44" transform="translate(5.314 5.519)" fill="#767eff"/>
      <path id="Path_58" data-name="Path 58" d="M50.576,0H5.4C2.045,0,0,2.021,0,5.4V33.568c0,3.384,2.045,5.426,5.4,5.426H20.578v4.534h-.14a1.9,1.9,0,1,0,0,3.807H35.564a1.9,1.9,0,0,0,0-3.807h-.14V38.994H50.576c3.382,0,5.426-2.043,5.426-5.426V5.4C56,2.021,53.957,0,50.576,0m1.644,33.521a1.579,1.579,0,0,1-1.692,1.692H5.474a1.579,1.579,0,0,1-1.692-1.692V5.474A1.567,1.567,0,0,1,5.474,3.783H50.528a1.567,1.567,0,0,1,1.692,1.692Z" transform="translate(0 -0.001)" fill="#767eff"/>
    </g>
  </g>
</svg>
