<svg xmlns="http://www.w3.org/2000/svg" xmlns:xlink="http://www.w3.org/1999/xlink" width="196" height="63.457" viewBox="0 0 196 63.457">
  <defs>
    <linearGradient id="linear-gradient" x1="-0.014" y1="3.787" x2="0.983" y2="2.894" gradientUnits="objectBoundingBox">
      <stop offset="0" stop-color="#0053e7"/>
      <stop offset="0.12" stop-color="#004fde"/>
      <stop offset="0.32" stop-color="#0047c5"/>
      <stop offset="0.58" stop-color="#00389d"/>
      <stop offset="0.87" stop-color="#002567"/>
      <stop offset="1" stop-color="#001c4d"/>
    </linearGradient>
    <linearGradient id="linear-gradient-2" x1="1.024" y1="-2.705" x2="0.02" y2="-1.806" gradientUnits="objectBoundingBox">
      <stop offset="0" stop-color="#ff5122"/>
      <stop offset="0.2" stop-color="#f6481e"/>
      <stop offset="0.52" stop-color="#e12f14"/>
      <stop offset="0.92" stop-color="#bd0803"/>
      <stop offset="1" stop-color="#b60000"/>
    </linearGradient>
    <linearGradient id="linear-gradient-3" x1="0.876" y1="1.41" x2="-0.007" y2="0.433" gradientUnits="objectBoundingBox">
      <stop offset="0" stop-color="#009457"/>
      <stop offset="0.17" stop-color="#008b53"/>
      <stop offset="0.46" stop-color="#00724a"/>
      <stop offset="0.81" stop-color="#004b3a"/>
      <stop offset="1" stop-color="#003432"/>
    </linearGradient>
    <linearGradient id="linear-gradient-4" x1="0.135" y1="-0.357" x2="0.999" y2="0.603" gradientUnits="objectBoundingBox">
      <stop offset="0" stop-color="#7100e5"/>
      <stop offset="0.13" stop-color="#6c00dc"/>
      <stop offset="0.34" stop-color="#6000c3"/>
      <stop offset="0.61" stop-color="#4c009c"/>
      <stop offset="0.92" stop-color="#310065"/>
      <stop offset="1" stop-color="#2a0056"/>
    </linearGradient>
  </defs>
  <g id="KACST-01_1_" data-name="KACST-01 (1)" transform="translate(-141.4 -383.9)">
    <g id="Group_5554" data-name="Group 5554" transform="translate(214.531 383.9)">
      <g id="Group_5552" data-name="Group 5552" transform="translate(0.027 0)">
        <path id="Path_670" data-name="Path 670" d="M414.374,398.313l9.92-10.713h6.641l-11.615,12.434,12.161,12.68H424.7l-10.33-10.822v10.822H409.1V387.6h5.274Z" transform="translate(-409.1 -386.589)" fill="#071e4f"/>
        <path id="Path_671" data-name="Path 671" d="M499.866,410.026H494.1L509.049,383.9,524,410.026h-5.821l-2.678-4.81H502.572l-2.706,4.81Zm5.028-8.936h8.253l-4.154-7.324-4.1,7.324Z" transform="translate(-470.871 -383.9)" fill="#071e4f"/>
        <path id="Path_672" data-name="Path 672" d="M613.119,391.394a8.049,8.049,0,0,0-2.9,3.006,8.311,8.311,0,0,0,0,8.144,8.263,8.263,0,0,0,2.9,3.006,7.679,7.679,0,0,0,4.017,1.12,11.42,11.42,0,0,0,7.16-2.624v5.684a12.719,12.719,0,0,1-7.16,1.858,13.193,13.193,0,0,1-6.7-1.776,13.381,13.381,0,0,1-4.864-4.782,12.472,12.472,0,0,1-1.776-6.586,12.8,12.8,0,0,1,1.776-6.586,13.6,13.6,0,0,1,4.864-4.783,13,13,0,0,1,6.7-1.776,12.818,12.818,0,0,1,7.269,2.05l-.082,5.493a11.55,11.55,0,0,0-7.187-2.624,8,8,0,0,0-4.017,1.175Z" transform="translate(-550.591 -384.917)" fill="#071e4f"/>
        <path id="Path_673" data-name="Path 673" d="M699.287,391.084a2.527,2.527,0,0,0-1.038,2.1,1.813,1.813,0,0,0,.683,1.476,5,5,0,0,0,1.749.875,24.684,24.684,0,0,0,2.979.656,37.137,37.137,0,0,1,4.81,1.2,7.6,7.6,0,0,1,3.279,2.241,6.4,6.4,0,0,1,1.366,4.373,6.729,6.729,0,0,1-2.87,5.876,13.207,13.207,0,0,1-7.707,2.022,17.074,17.074,0,0,1-6.2-1.066,12.859,12.859,0,0,1-4.236-2.514l2.3-4.209a14.484,14.484,0,0,0,3.744,2.241,11.764,11.764,0,0,0,4.455.875,6.622,6.622,0,0,0,3.8-.847,2.633,2.633,0,0,0,1.2-2.268,1.813,1.813,0,0,0-.683-1.476,5.1,5.1,0,0,0-1.722-.875,28.3,28.3,0,0,0-2.979-.683,34.514,34.514,0,0,1-4.755-1.23,7.612,7.612,0,0,1-3.225-2.214,6.288,6.288,0,0,1-1.366-4.263,7.043,7.043,0,0,1,1.2-4.1,7.439,7.439,0,0,1,3.416-2.651,14.259,14.259,0,0,1,10.6.191,14.533,14.533,0,0,1,4.072,2.624l-2.214,3.99c-2.514-2.077-4.974-3.143-7.461-3.143a5.031,5.031,0,0,0-3.2.793Z" transform="translate(-614.76 -385.208)" fill="#071e4f"/>
        <path id="Path_674" data-name="Path 674" d="M793.464,412.715h-5.274V392.3H780.1v-4.7h21.453v4.7h-8.089Z" transform="translate(-678.711 -386.589)" fill="#071e4f"/>
      </g>
      <g id="Group_5553" data-name="Group 5553" transform="translate(0 35.91)">
        <path id="Path_675" data-name="Path 675" d="M410.666,536.569a3.515,3.515,0,0,0,.9-.492,2.3,2.3,0,0,0,.6-.738,2.755,2.755,0,0,0,.328-1.011h10.849V529.3h-1.612v3.689h-9.128V529.3h-1.612v4.236a5.452,5.452,0,0,1-.055.738,1.25,1.25,0,0,1-.246.547,1.641,1.641,0,0,1-.519.41,4.149,4.149,0,0,1-.875.273l.219,1.366a7.039,7.039,0,0,0,1.148-.3Z" transform="translate(-409.218 -525.474)" fill="#071e4f"/>
        <path id="Path_676" data-name="Path 676" d="M415.619,519.512a.646.646,0,0,0,.246.164,1.162,1.162,0,0,0,.3.055.98.98,0,0,0,.3-.055.556.556,0,0,0,.246-.164.646.646,0,0,0,.164-.246.854.854,0,0,0,0-.6,1.282,1.282,0,0,0-.164-.246.644.644,0,0,0-.246-.164,1.162,1.162,0,0,0-.3-.055.982.982,0,0,0-.3.055.555.555,0,0,0-.246.164.644.644,0,0,0-.164.246.854.854,0,0,0,0,.6A.646.646,0,0,0,415.619,519.512Z" transform="translate(-413.651 -517.407)" fill="#071e4f"/>
        <path id="Path_677" data-name="Path 677" d="M451.666,551.355a1.161,1.161,0,0,0-.3-.055.982.982,0,0,0-.3.055.555.555,0,0,0-.246.164.645.645,0,0,0-.164.246.853.853,0,0,0,0,.6,1.285,1.285,0,0,0,.164.246.645.645,0,0,0,.246.164.854.854,0,0,0,.6,0,.556.556,0,0,0,.246-.164.646.646,0,0,0,.164-.246.854.854,0,0,0,0-.6,1.282,1.282,0,0,0-.164-.246A.556.556,0,0,0,451.666,551.355Z" transform="translate(-439.231 -541.462)" fill="#071e4f"/>
        <path id="Path_678" data-name="Path 678" d="M457.865,551.355a.555.555,0,0,0-.246.164.645.645,0,0,0-.164.246.853.853,0,0,0,0,.6,1.285,1.285,0,0,0,.164.246.645.645,0,0,0,.246.164.854.854,0,0,0,.6,0,.556.556,0,0,0,.246-.164.645.645,0,0,0,.164-.246.854.854,0,0,0,0-.6,1.282,1.282,0,0,0-.164-.246.644.644,0,0,0-.246-.164,1.162,1.162,0,0,0-.3-.055A.982.982,0,0,0,457.865,551.355Z" transform="translate(-444.173 -541.462)" fill="#071e4f"/>
        <path id="Path_679" data-name="Path 679" d="M464.894,526.541a3.517,3.517,0,0,0,.9-.492,2.3,2.3,0,0,0,.6-.738,2.755,2.755,0,0,0,.328-1.011h2.1a7.215,7.215,0,0,0,.793-.055,6.973,6.973,0,0,0,.738-.137,6.134,6.134,0,0,0,.656-.219l.574-.246c.137.055.273.137.465.219s.383.137.629.219a6.291,6.291,0,0,0,.765.164,4.56,4.56,0,0,0,.875.055h3.99v-8.8H476.7v7.461h-2.05a2.968,2.968,0,0,1-.492-.027,2.406,2.406,0,0,1-.465-.055c-.164-.027-.3-.027-.437-.055s-.246-.055-.355-.082c.273-.3.519-.574.711-.82a5.508,5.508,0,0,0,.437-.683,3.957,3.957,0,0,0,.219-.574,2.727,2.727,0,0,0,.055-.437.931.931,0,0,0-.191-.6,1.574,1.574,0,0,0-.519-.41A1.967,1.967,0,0,0,472.9,519a3.842,3.842,0,0,0-.765-.082c-.3,0-.6.027-.9.055-.273.055-.547.109-.793.164a3.685,3.685,0,0,0-.656.219c-.191.082-.355.164-.492.219a.631.631,0,0,0-.191.191,2.973,2.973,0,0,0-.164.3c-.055.109-.082.219-.137.355a2.644,2.644,0,0,0-.082.3c.027.027.082.109.164.191s.164.219.273.355a1.7,1.7,0,0,1,.246.328,4.083,4.083,0,0,0,.328.383,4.877,4.877,0,0,0,.355.383,4.347,4.347,0,0,0,.355.355,2.428,2.428,0,0,1-.629.137,8.881,8.881,0,0,1-.9.055h-2.1v-3.689h-1.612v4.236a5.445,5.445,0,0,1-.055.738,1.443,1.443,0,0,1-.246.547,1.336,1.336,0,0,1-.519.41,4.157,4.157,0,0,1-.875.273l.219,1.366a3.729,3.729,0,0,0,1.175-.246Zm5.548-5.63c-.109-.164-.191-.3-.273-.41a1.579,1.579,0,0,1,.383-.137,2.271,2.271,0,0,1,.41-.109c.137-.027.273-.055.383-.082a1.571,1.571,0,0,1,.328-.027,2.4,2.4,0,0,1,.465.055,1.372,1.372,0,0,1,.355.137.78.78,0,0,1,.219.191.441.441,0,0,1,.082.246,1.2,1.2,0,0,1-.055.273,1.541,1.541,0,0,1-.191.355,2.157,2.157,0,0,1-.328.41,4.782,4.782,0,0,1-.519.437,4.836,4.836,0,0,1-.437-.383c-.164-.164-.3-.328-.437-.492s-.273-.328-.383-.465Z" transform="translate(-448.606 -515.445)" fill="#071e4f"/>
        <path id="Path_680" data-name="Path 680" d="M469.919,519.512a.646.646,0,0,0,.246.164,1.162,1.162,0,0,0,.3.055.98.98,0,0,0,.3-.055.556.556,0,0,0,.246-.164.646.646,0,0,0,.164-.246.854.854,0,0,0,0-.6,1.28,1.28,0,0,0-.164-.246.644.644,0,0,0-.246-.164,1.162,1.162,0,0,0-.3-.055.982.982,0,0,0-.3.055.555.555,0,0,0-.246.164.644.644,0,0,0-.164.246.854.854,0,0,0,0,.6A1.283,1.283,0,0,0,469.919,519.512Z" transform="translate(-453.112 -517.407)" fill="#071e4f"/>
        <rect id="Rectangle_5601" data-name="Rectangle 5601" width="1.612" height="8.8" transform="translate(31.318 0.055)" fill="#071e4f"/>
        <path id="Path_681" data-name="Path 681" d="M536.744,531.839a2.281,2.281,0,0,0,.847-.465,2.384,2.384,0,0,0,.82.465,3.121,3.121,0,0,0,1.066.164h1.394a2.284,2.284,0,0,0,.793-.137,1.579,1.579,0,0,0,.547-.355,2.454,2.454,0,0,0,.765.355,4.039,4.039,0,0,0,1.066.137h5.848v-1.339H548.14a1.268,1.268,0,0,1-.574-.109,1.248,1.248,0,0,1-.437-.3,1.56,1.56,0,0,1-.3-.437,1.788,1.788,0,0,1-.109-.574,1.268,1.268,0,0,1,.109-.574.779.779,0,0,1,.3-.355,1.668,1.668,0,0,1,.383-.191,2.114,2.114,0,0,1,.41-.055,1.935,1.935,0,0,1,.383.027c.137.027.246.027.355.055l.328.082a1.269,1.269,0,0,1,.246.082l.164-1.394a2.837,2.837,0,0,0-.328-.082,2.109,2.109,0,0,0-.41-.055c-.137-.027-.273-.027-.41-.055-.137,0-.246-.027-.328-.027a3.031,3.031,0,0,0-1.12.219,2.7,2.7,0,0,0-.875.574,2.583,2.583,0,0,0-.574.847,2.694,2.694,0,0,0-.191,1.038,1.227,1.227,0,0,0,.027.3c.027.109.027.219.055.328l.082.328a1.541,1.541,0,0,0,.109.328h-1.394a6.711,6.711,0,0,1-.738-.055,2.306,2.306,0,0,1-.656-.191c0-.055.027-.137.027-.219v-3.225h-1.612v2.788a1.9,1.9,0,0,1-.055.437.855.855,0,0,1-.137.273.529.529,0,0,1-.246.137,1.387,1.387,0,0,1-.355.055h-.711a6.727,6.727,0,0,1-.765-.055,2.849,2.849,0,0,1-.683-.219,2.145,2.145,0,0,0,.055-.6,3.267,3.267,0,0,0-.628-1.776,8.612,8.612,0,0,0-1.858-1.913l-1.175,1.12a7.951,7.951,0,0,1,.738.656c.246.246.465.465.656.683a3.361,3.361,0,0,1,.465.683,1.5,1.5,0,0,1,.191.629.982.982,0,0,1-.055.3.646.646,0,0,1-.164.246,1.46,1.46,0,0,1-.355.164,3.479,3.479,0,0,1-.6.055H533v1.339h2.35a4.052,4.052,0,0,0,1.394-.137Z" transform="translate(-499.113 -523.148)" fill="#071e4f"/>
        <path id="Path_682" data-name="Path 682" d="M563.565,552.93a.982.982,0,0,0,.3-.055.555.555,0,0,0,.246-.164.645.645,0,0,0,.164-.246.855.855,0,0,0,0-.6,1.289,1.289,0,0,0-.164-.246.492.492,0,0,0-.246-.164.855.855,0,0,0-.6,0,.754.754,0,0,0-.41.41.854.854,0,0,0,0,.6,1.283,1.283,0,0,0,.164.246.49.49,0,0,0,.246.164A.982.982,0,0,0,563.565,552.93Z" transform="translate(-520.769 -541.534)" fill="#071e4f"/>
        <path id="Path_683" data-name="Path 683" d="M622.96,528.34h-.41a.984.984,0,0,1-.3-.055.6.6,0,0,1-.219-.137.723.723,0,0,1-.137-.164.465.465,0,0,1-.027-.191.288.288,0,0,1,.109-.273.582.582,0,0,1,.328-.082.758.758,0,0,1,.246.027c.082.027.191.027.273.055l.109-.765a3.756,3.756,0,0,0-.437-.055h-.3a2,2,0,0,0-.6.082.987.987,0,0,0-.41.219.854.854,0,0,0-.246.3.872.872,0,0,0-.082.383,1.6,1.6,0,0,0,.055.355,3.666,3.666,0,0,0,.164.328H620.5v.738h2.432l.027-.765Z" transform="translate(-562.7 -523.585)" fill="#071e4f"/>
        <path id="Path_684" data-name="Path 684" d="M629.111,523.444a4.69,4.69,0,0,0,.383.3,2.426,2.426,0,0,0,.465.219,2.952,2.952,0,0,0,.574.137,3.4,3.4,0,0,0,.574.055h3.225v-8.8h-1.612v7.461h-1.476a4.241,4.241,0,0,1-.847-.082,2.17,2.17,0,0,1-.738-.273c.027-.109.055-.219.082-.355a1.558,1.558,0,0,0,.027-.355,2.647,2.647,0,0,0-.082-.629,2.866,2.866,0,0,0-.219-.629,6.549,6.549,0,0,0-.355-.574,2.111,2.111,0,0,0-.519-.465,2.536,2.536,0,0,0-1.53-.437,2.541,2.541,0,0,0-.738.109,2.4,2.4,0,0,0-.82.437,4.242,4.242,0,0,0-.82.957,5.955,5.955,0,0,0-.683,1.612,1.112,1.112,0,0,1-.328.492.9.9,0,0,1-.519.164h-1.23a6.7,6.7,0,0,1-.738-.055,2.3,2.3,0,0,1-.656-.191c0-.055.027-.137.027-.219V515.3h-1.612v6.586a1.9,1.9,0,0,1-.055.437.854.854,0,0,1-.137.273.528.528,0,0,1-.246.137,1.384,1.384,0,0,1-.355.055h-.711a6.7,6.7,0,0,1-.738-.055,2.307,2.307,0,0,1-.656-.191c0-.055.027-.137.027-.219v-7h-1.612v6.559a1.9,1.9,0,0,1-.055.437.853.853,0,0,1-.137.273.528.528,0,0,1-.246.137,1.384,1.384,0,0,1-.355.055h-3.935a7.584,7.584,0,0,1-1.257-.082,3.277,3.277,0,0,1-.765-.219.654.654,0,0,1-.355-.41,1.819,1.819,0,0,1-.109-.6,2.656,2.656,0,0,1,.027-.465c.027-.164.055-.3.082-.465l-1.421-.109c-.027.109-.027.219-.055.355-.027.109-.027.246-.055.355a1.561,1.561,0,0,0-.027.355v.3a4.473,4.473,0,0,0,.055.629,2.361,2.361,0,0,0,.191.574,1.361,1.361,0,0,0,.41.492,2.442,2.442,0,0,0,.656.383,4.053,4.053,0,0,0,.956.246,8.686,8.686,0,0,0,1.284.082h4.919a2.286,2.286,0,0,0,.793-.137,1.58,1.58,0,0,0,.547-.355,2.453,2.453,0,0,0,.765.355,4.042,4.042,0,0,0,1.066.137h1.284a2.286,2.286,0,0,0,.793-.137,1.579,1.579,0,0,0,.547-.355,2.453,2.453,0,0,0,.765.355,4.042,4.042,0,0,0,1.066.137h1.448a1.854,1.854,0,0,0,1.612-.765,4.667,4.667,0,0,0,.383.3,2.1,2.1,0,0,0,.492.273,3.424,3.424,0,0,0,.629.191,3.365,3.365,0,0,0,.793.082,2.924,2.924,0,0,0,1.12-.219,2.374,2.374,0,0,0,.738-.628Zm-.956-1.148a.888.888,0,0,1-.273.355,1.068,1.068,0,0,1-.437.191,1.771,1.771,0,0,1-.547.055,2.73,2.73,0,0,1-.437-.055,2.049,2.049,0,0,1-.437-.109c-.137-.055-.273-.109-.383-.164a.956.956,0,0,1-.246-.164,6.251,6.251,0,0,1,.219-.765,5.248,5.248,0,0,1,.328-.683,1.2,1.2,0,0,1,.437-.465,1.017,1.017,0,0,1,.547-.191,1.244,1.244,0,0,1,.547.137,1.747,1.747,0,0,1,.41.355,1.6,1.6,0,0,1,.328.929,1.2,1.2,0,0,1-.055.574Z" transform="translate(-552.017 -515.3)" fill="#071e4f"/>
        <rect id="Rectangle_5602" data-name="Rectangle 5602" width="1.612" height="8.8" transform="translate(83.926 0.055)" fill="#071e4f"/>
        <path id="Path_685" data-name="Path 685" d="M735.065,530.692a2.453,2.453,0,0,0,.765.355,3.006,3.006,0,0,0,.847.109,3.712,3.712,0,0,0,.793-.082,3.582,3.582,0,0,0,.793-.3,1.217,1.217,0,0,0,.219.3.833.833,0,0,0,.355.246,1.45,1.45,0,0,0,.519.164,2.893,2.893,0,0,0,.738.055H747.2a2.286,2.286,0,0,0,.793-.137,1.579,1.579,0,0,0,.547-.355,2.453,2.453,0,0,0,.765.355,4.042,4.042,0,0,0,1.066.137h3.225v-5.028h-1.612V530.2H750.4a6.7,6.7,0,0,1-.738-.055,2.3,2.3,0,0,1-.656-.191c0-.055.027-.137.027-.219v-3.225h-1.612V529.3a1.9,1.9,0,0,1-.055.437.852.852,0,0,1-.137.273.528.528,0,0,1-.246.137,1.384,1.384,0,0,1-.355.055h-6.258a.936.936,0,0,1-.3-.027.316.316,0,0,1-.191-.137.31.31,0,0,1-.082-.219,1.443,1.443,0,0,1-.027-.355V525.5h-1.612v.683c-.246.055-.492.137-.792.219a7.721,7.721,0,0,0-.847.3,3.833,3.833,0,0,0-.82.41,4.758,4.758,0,0,0-.711.519,1.979,1.979,0,0,0-.492.683,1.687,1.687,0,0,0-.191.847,1.834,1.834,0,0,0,.219.9,2.022,2.022,0,0,0,.547.629Zm.929-2.214a1.791,1.791,0,0,1,.465-.437,3.1,3.1,0,0,1,.738-.355,6.751,6.751,0,0,1,.957-.273v2.077a1.825,1.825,0,0,1-.574.246,2.75,2.75,0,0,1-.683.109,1.844,1.844,0,0,1-.383-.055,1.373,1.373,0,0,1-.355-.137.6.6,0,0,1-.246-.273.906.906,0,0,1-.109-.41,1.4,1.4,0,0,1,.191-.492Z" transform="translate(-645.4 -522.713)" fill="#071e4f"/>
        <path id="Path_686" data-name="Path 686" d="M741.619,518.312a.644.644,0,0,0,.246.164,1.162,1.162,0,0,0,.3.055.983.983,0,0,0,.3-.055.556.556,0,0,0,.246-.164.645.645,0,0,0,.164-.246.853.853,0,0,0,0-.6,1.278,1.278,0,0,0-.164-.246.645.645,0,0,0-.246-.164.855.855,0,0,0-.6,0,.556.556,0,0,0-.246.164.775.775,0,0,0-.164.246.854.854,0,0,0,0,.6A.646.646,0,0,0,741.619,518.312Z" transform="translate(-650.56 -516.535)" fill="#071e4f"/>
        <path id="Path_687" data-name="Path 687" d="M748.419,518.312a.645.645,0,0,0,.246.164,1.163,1.163,0,0,0,.3.055.982.982,0,0,0,.3-.055.556.556,0,0,0,.246-.164.646.646,0,0,0,.164-.246.853.853,0,0,0,0-.6,1.286,1.286,0,0,0-.164-.246.646.646,0,0,0-.246-.164.855.855,0,0,0-.6,0,.556.556,0,0,0-.246.164.645.645,0,0,0-.164.246.855.855,0,0,0,0,.6A.645.645,0,0,0,748.419,518.312Z" transform="translate(-655.502 -516.535)" fill="#071e4f"/>
        <path id="Path_688" data-name="Path 688" d="M782.419,519.512a.645.645,0,0,0,.246.164,1.162,1.162,0,0,0,.3.055.981.981,0,0,0,.3-.055.557.557,0,0,0,.246-.164.647.647,0,0,0,.164-.246.854.854,0,0,0,0-.6,1.286,1.286,0,0,0-.164-.246.645.645,0,0,0-.246-.164,1.163,1.163,0,0,0-.3-.055.982.982,0,0,0-.3.055.774.774,0,0,0-.246.164.644.644,0,0,0-.164.246.855.855,0,0,0,0,.6A.646.646,0,0,0,782.419,519.512Z" transform="translate(-680.21 -517.407)" fill="#071e4f"/>
        <path id="Path_689" data-name="Path 689" d="M801.965,551.355a.555.555,0,0,0-.246.164.644.644,0,0,0-.164.246.853.853,0,0,0,0,.6,1.282,1.282,0,0,0,.164.246.644.644,0,0,0,.246.164.853.853,0,0,0,.6,0,.556.556,0,0,0,.246-.164.645.645,0,0,0,.164-.246.853.853,0,0,0,0-.6,1.283,1.283,0,0,0-.164-.246.645.645,0,0,0-.246-.164.853.853,0,0,0-.6,0Z" transform="translate(-694.236 -541.462)" fill="#071e4f"/>
        <path id="Path_690" data-name="Path 690" d="M795.866,551.355a1.162,1.162,0,0,0-.3-.055.982.982,0,0,0-.3.055.556.556,0,0,0-.246.164.775.775,0,0,0-.164.246.853.853,0,0,0,0,.6,1.284,1.284,0,0,0,.164.246.491.491,0,0,0,.246.164.853.853,0,0,0,.6,0,.556.556,0,0,0,.246-.164.773.773,0,0,0,.164-.246.853.853,0,0,0,0-.6,1.281,1.281,0,0,0-.164-.246A.491.491,0,0,0,795.866,551.355Z" transform="translate(-689.367 -541.462)" fill="#071e4f"/>
        <path id="Path_691" data-name="Path 691" d="M821.891,529a2.87,2.87,0,0,0-.219-.629,6.526,6.526,0,0,0-.355-.574,2.11,2.11,0,0,0-.519-.465,2.537,2.537,0,0,0-1.53-.437,2.539,2.539,0,0,0-.738.109,2.4,2.4,0,0,0-.82.437,4.242,4.242,0,0,0-.82.956,5.956,5.956,0,0,0-.683,1.612,1.111,1.111,0,0,1-.328.492.9.9,0,0,1-.519.164h-.3a6.728,6.728,0,0,1-.765-.055,2.852,2.852,0,0,1-.683-.219,2.142,2.142,0,0,0,.055-.6,3.266,3.266,0,0,0-.629-1.776,8.611,8.611,0,0,0-1.858-1.913L810,527.22a7.941,7.941,0,0,1,.738.656,7.581,7.581,0,0,1,.656.683,3.363,3.363,0,0,1,.465.683,1.5,1.5,0,0,1,.191.629.981.981,0,0,1-.055.3.646.646,0,0,1-.164.246,1.46,1.46,0,0,1-.355.164,3.478,3.478,0,0,1-.6.055H808.5v1.339h2.35a4.449,4.449,0,0,0,1.284-.164,2.279,2.279,0,0,0,.847-.465,2.384,2.384,0,0,0,.82.465,3.122,3.122,0,0,0,1.066.164h.629a1.854,1.854,0,0,0,1.612-.765,4.682,4.682,0,0,0,.383.3,2.1,2.1,0,0,0,.492.273,3.433,3.433,0,0,0,.629.191,3.362,3.362,0,0,0,.793.082,2.783,2.783,0,0,0,1.093-.191,2.406,2.406,0,0,0,.793-.547,2.157,2.157,0,0,0,.492-.793,2.66,2.66,0,0,0,.164-.929,1.549,1.549,0,0,0-.055-.6Zm-1.5,1.148a.888.888,0,0,1-.273.355,1.065,1.065,0,0,1-.437.191,1.769,1.769,0,0,1-.547.055,2.725,2.725,0,0,1-.437-.055,2.053,2.053,0,0,1-.437-.109c-.137-.055-.273-.109-.383-.164a.956.956,0,0,1-.246-.164,6.253,6.253,0,0,1,.219-.765,5.258,5.258,0,0,1,.328-.683,1.793,1.793,0,0,1,.437-.465,1.017,1.017,0,0,1,.547-.191,1.243,1.243,0,0,1,.547.137,1.288,1.288,0,0,1,.41.355,1.6,1.6,0,0,1,.328.929,1.2,1.2,0,0,1-.055.574Z" transform="translate(-699.323 -523.148)" fill="#071e4f"/>
        <path id="Path_692" data-name="Path 692" d="M418.166,572.055a1.162,1.162,0,0,0-.3-.055.982.982,0,0,0-.3.055.556.556,0,0,0-.246.164.775.775,0,0,0-.164.246.854.854,0,0,0,0,.6,1.285,1.285,0,0,0,.164.246.491.491,0,0,0,.246.164.854.854,0,0,0,.6,0,.753.753,0,0,0,.41-.41.854.854,0,0,0,0-.6,1.284,1.284,0,0,0-.164-.246A.491.491,0,0,0,418.166,572.055Z" transform="translate(-414.886 -556.505)" fill="#071e4f"/>
        <path id="Path_693" data-name="Path 693" d="M424.966,572.055a1.162,1.162,0,0,0-.3-.055.982.982,0,0,0-.3.055.556.556,0,0,0-.246.164.776.776,0,0,0-.164.246.854.854,0,0,0,0,.6,1.286,1.286,0,0,0,.164.246.491.491,0,0,0,.246.164.854.854,0,0,0,.6,0,.753.753,0,0,0,.41-.41.854.854,0,0,0,0-.6,1.286,1.286,0,0,0-.164-.246A.491.491,0,0,0,424.966,572.055Z" transform="translate(-419.828 -556.505)" fill="#071e4f"/>
        <path id="Path_694" data-name="Path 694" d="M514.112,606.619a.646.646,0,0,0-.246-.164,1.162,1.162,0,0,0-.3-.055.982.982,0,0,0-.3.055.556.556,0,0,0-.246.164.644.644,0,0,0-.164.246.854.854,0,0,0,0,.6,1.282,1.282,0,0,0,.164.246.491.491,0,0,0,.246.164.853.853,0,0,0,.6,0,.556.556,0,0,0,.246-.164.775.775,0,0,0,.164-.246.854.854,0,0,0,0-.6A.4.4,0,0,0,514.112,606.619Z" transform="translate(-484.433 -581.504)" fill="#071e4f"/>
        <path id="Path_695" data-name="Path 695" d="M520.912,606.619a.645.645,0,0,0-.246-.164,1.161,1.161,0,0,0-.3-.055.982.982,0,0,0-.3.055.557.557,0,0,0-.246.164.645.645,0,0,0-.164.246.854.854,0,0,0,0,.6,1.286,1.286,0,0,0,.164.246.492.492,0,0,0,.246.164.853.853,0,0,0,.6,0,.555.555,0,0,0,.246-.164.774.774,0,0,0,.164-.246.854.854,0,0,0,0-.6A.4.4,0,0,0,520.912,606.619Z" transform="translate(-489.375 -581.504)" fill="#071e4f"/>
        <path id="Path_696" data-name="Path 696" d="M532.819,574.512a.644.644,0,0,0,.246.164,1.159,1.159,0,0,0,.3.055.981.981,0,0,0,.3-.055.556.556,0,0,0,.246-.164.775.775,0,0,0,.164-.246.854.854,0,0,0,0-.6,1.282,1.282,0,0,0-.164-.246.491.491,0,0,0-.246-.164,1.165,1.165,0,0,0-.3-.055.984.984,0,0,0-.3.055.754.754,0,0,0-.41.41.854.854,0,0,0,0,.6A.644.644,0,0,0,532.819,574.512Z" transform="translate(-498.822 -557.377)" fill="#071e4f"/>
        <path id="Path_697" data-name="Path 697" d="M552.166,573.155a1.163,1.163,0,0,0-.3-.055.981.981,0,0,0-.3.055.555.555,0,0,0-.246.164.645.645,0,0,0-.164.246.853.853,0,0,0,0,.6,1.278,1.278,0,0,0,.164.246.491.491,0,0,0,.246.164.854.854,0,0,0,.6,0,.753.753,0,0,0,.41-.41.854.854,0,0,0,0-.6,1.29,1.29,0,0,0-.164-.246Z" transform="translate(-512.266 -557.304)" fill="#071e4f"/>
        <path id="Path_698" data-name="Path 698" d="M559.212,573.419a.644.644,0,0,0-.246-.164.854.854,0,0,0-.6,0,.555.555,0,0,0-.246.164.775.775,0,0,0-.164.246.854.854,0,0,0,0,.6,1.289,1.289,0,0,0,.164.246.491.491,0,0,0,.246.164.854.854,0,0,0,.6,0,.753.753,0,0,0,.41-.41.854.854,0,0,0,0-.6A.4.4,0,0,0,559.212,573.419Z" transform="translate(-517.208 -557.377)" fill="#071e4f"/>
        <path id="Path_699" data-name="Path 699" d="M583.366,573.155a1.162,1.162,0,0,0-.3-.055.98.98,0,0,0-.3.055.777.777,0,0,0-.246.164.647.647,0,0,0-.164.246.854.854,0,0,0,0,.6,1.287,1.287,0,0,0,.164.246.644.644,0,0,0,.246.164.854.854,0,0,0,.6,0,.775.775,0,0,0,.246-.164.645.645,0,0,0,.164-.246.853.853,0,0,0,0-.6,1.285,1.285,0,0,0-.164-.246A.957.957,0,0,0,583.366,573.155Z" transform="translate(-534.94 -557.304)" fill="#071e4f"/>
        <path id="Path_700" data-name="Path 700" d="M576.566,573.155a1.162,1.162,0,0,0-.3-.055.98.98,0,0,0-.3.055.753.753,0,0,0-.41.41.853.853,0,0,0,0,.6,1.281,1.281,0,0,0,.164.246.491.491,0,0,0,.246.164,1.162,1.162,0,0,0,.3.055.982.982,0,0,0,.3-.055.775.775,0,0,0,.246-.164.644.644,0,0,0,.164-.246.853.853,0,0,0,0-.6,1.285,1.285,0,0,0-.164-.246C576.757,573.237,576.648,573.209,576.566,573.155Z" transform="translate(-529.998 -557.304)" fill="#071e4f"/>
        <path id="Path_701" data-name="Path 701" d="M460.514,578.133h-2.1a6.682,6.682,0,0,1-.738-.055,2.3,2.3,0,0,1-.656-.191c0-.055.027-.137.027-.219v-3.225h-1.612v2.788a1.9,1.9,0,0,1-.055.437.854.854,0,0,1-.137.273.528.528,0,0,1-.246.137,1.381,1.381,0,0,1-.355.055h-2.815a1.672,1.672,0,0,1,.137-.328c.055-.137.082-.273.137-.41.027-.137.082-.3.109-.437a2.21,2.21,0,0,0,.027-.41,2.512,2.512,0,0,0-.164-.9,2.184,2.184,0,0,0-.492-.738,1.953,1.953,0,0,0-.793-.492,2.562,2.562,0,0,0-1.066-.191,3.421,3.421,0,0,0-1.23.191,3.092,3.092,0,0,0-.929.547,2.882,2.882,0,0,0-.6.82,2.342,2.342,0,0,0-.191.984,1.226,1.226,0,0,0,.027.3c.027.109.055.219.082.355a1.46,1.46,0,0,0,.164.383,1.55,1.55,0,0,0,.219.355h-1.585a6.711,6.711,0,0,1-.738-.055,2.308,2.308,0,0,1-.656-.191c0-.055.027-.137.027-.219v-3.225H442.7v2.788a1.9,1.9,0,0,1-.055.437.855.855,0,0,1-.137.273.529.529,0,0,1-.246.137,1.387,1.387,0,0,1-.355.055h-.656a6.712,6.712,0,0,1-.738-.055,2.308,2.308,0,0,1-.656-.191c0-.055.027-.137.027-.219v-3.225h-1.612v2.788a1.9,1.9,0,0,1-.055.437.856.856,0,0,1-.137.273.529.529,0,0,1-.246.137,1.387,1.387,0,0,1-.355.055H415.121a.934.934,0,0,1-.3-.027.316.316,0,0,1-.191-.137.31.31,0,0,1-.082-.219,1.443,1.443,0,0,1-.027-.355V573.46h-1.612v.683c-.246.055-.492.137-.793.219s-.574.191-.874.3a4.845,4.845,0,0,0-.847.41,3.674,3.674,0,0,0-.711.519,2.417,2.417,0,0,0-.492.683,1.687,1.687,0,0,0-.191.847,1.834,1.834,0,0,0,.219.9,1.8,1.8,0,0,0,.574.629,2.339,2.339,0,0,0,.793.355,3.138,3.138,0,0,0,.847.109,3.712,3.712,0,0,0,.793-.082,3.583,3.583,0,0,0,.793-.3,1.213,1.213,0,0,0,.219.3.832.832,0,0,0,.355.246,1.45,1.45,0,0,0,.519.164,2.893,2.893,0,0,0,.738.055h23.2a2.286,2.286,0,0,0,.793-.137,1.581,1.581,0,0,0,.547-.355,2.457,2.457,0,0,0,.765.355,4.042,4.042,0,0,0,1.066.137H442.5a2.285,2.285,0,0,0,.793-.137,1.58,1.58,0,0,0,.547-.355,2.457,2.457,0,0,0,.765.355,4.041,4.041,0,0,0,1.066.137h.9c.3,0,.574,0,.875-.027.3,0,.6-.027.9-.027.3-.027.6-.027.875-.055s.547-.055.765-.082c.328.055.711.109,1.12.137.437.027.875.055,1.339.055h2.706a2.286,2.286,0,0,0,.793-.137,1.578,1.578,0,0,0,.547-.355,2.455,2.455,0,0,0,.765.355,4.041,4.041,0,0,0,1.066.137h3.744v-8.8h-1.612l.055,7.433Zm-47.579-.711a1.823,1.823,0,0,1-.574.246,2.749,2.749,0,0,1-.683.109,1.844,1.844,0,0,1-.383-.055,1.374,1.374,0,0,1-.355-.137.6.6,0,0,1-.246-.273.905.905,0,0,1-.109-.41.986.986,0,0,1,.164-.547,1.793,1.793,0,0,1,.465-.437,3.713,3.713,0,0,1,.738-.355,7.974,7.974,0,0,1,.956-.273l.027,2.132Zm37.631-.3a1.568,1.568,0,0,1-.109.383,1.372,1.372,0,0,1-.137.355,2.526,2.526,0,0,0-.137.273h-.246a1.6,1.6,0,0,1-.629-.109,1.978,1.978,0,0,1-.519-.3,1.91,1.91,0,0,1-.355-.465,1.518,1.518,0,0,1-.137-.629,1.04,1.04,0,0,1,.109-.519,1.233,1.233,0,0,1,.273-.383,1.072,1.072,0,0,1,.383-.219,1.237,1.237,0,0,1,.437-.082,1.1,1.1,0,0,1,.41.082,1.039,1.039,0,0,1,.355.246,1.028,1.028,0,0,1,.246.41,1.761,1.761,0,0,1,.082.547,1.041,1.041,0,0,1-.027.41Z" transform="translate(-409 -555.56)" fill="#071e4f"/>
        <rect id="Rectangle_5603" data-name="Rectangle 5603" width="1.612" height="8.8" transform="translate(54.739 15.113)" fill="#071e4f"/>
        <path id="Path_702" data-name="Path 702" d="M625.883,584.793a1.827,1.827,0,0,0-.465-.547,2.9,2.9,0,0,0-.547-.328,2.27,2.27,0,0,0-.574-.164,4.085,4.085,0,0,0-.574-.055,3.177,3.177,0,0,0-1.148.219,2.945,2.945,0,0,0-.929.574,2.853,2.853,0,0,0-.629.875,2.49,2.49,0,0,0-.219,1.12,2.332,2.332,0,0,0,.164.847,2.4,2.4,0,0,0,.492.793,2.221,2.221,0,0,0,.875.574,3.142,3.142,0,0,0,1.312.219,2.659,2.659,0,0,0,.437-.027,3.073,3.073,0,0,0,.492-.082,1.17,1.17,0,0,1-.41.492,2.494,2.494,0,0,1-.629.41,5,5,0,0,1-.847.328,5.531,5.531,0,0,1-1.011.191h-.137l.137,1.312a9.389,9.389,0,0,0,1.858-.328,4.447,4.447,0,0,0,1.448-.683,3.265,3.265,0,0,0,.956-1.148,4.076,4.076,0,0,0,.328-1.749V586.6a4.126,4.126,0,0,0-.109-1.066,1.721,1.721,0,0,0-.273-.738Zm-1.175,2.706c-.055.027-.109.027-.164.055s-.137.027-.219.055c-.082,0-.164.027-.246.027h-.219a1.708,1.708,0,0,1-.683-.109,1.106,1.106,0,0,1-.465-.273,1.083,1.083,0,0,1-.273-.41,1.761,1.761,0,0,1-.082-.547,1.224,1.224,0,0,1,.109-.547,1.468,1.468,0,0,1,.273-.437.906.906,0,0,1,.383-.273,1.287,1.287,0,0,1,.465-.109,1.237,1.237,0,0,1,.437.082.984.984,0,0,1,.383.3,1.953,1.953,0,0,1,.273.629,4.966,4.966,0,0,1,.109,1.011l-.082.547Z" transform="translate(-562.918 -565.007)" fill="#071e4f"/>
        <path id="Path_703" data-name="Path 703" d="M659.489,586.132a5.112,5.112,0,0,0-.191-.6,3.272,3.272,0,0,0-.355-.574,2.221,2.221,0,0,0-.519-.492,2.639,2.639,0,0,0-.683-.328,2.8,2.8,0,0,0-.875-.137,3.048,3.048,0,0,0-.465.055,1.907,1.907,0,0,0-.519.164,2.067,2.067,0,0,0-.547.355,2.212,2.212,0,0,0-.547.574,7.146,7.146,0,0,0-.519.82,7.794,7.794,0,0,0-.437,1.148c-.137.055-.273.137-.437.191a1.691,1.691,0,0,0-.465.3,3.126,3.126,0,0,0-.465.41,2.771,2.771,0,0,0-.383.547,3.514,3.514,0,0,0-.273.711,4.528,4.528,0,0,0-.109.9,4.3,4.3,0,0,0,.082.765c.055.3.109.629.191.956.055.3.137.574.219.875l1.448-.547c-.055-.219-.109-.41-.164-.628-.055-.3-.109-.547-.137-.82a6.835,6.835,0,0,1-.055-.683,2.154,2.154,0,0,1,.109-.765,1.679,1.679,0,0,1,.3-.492,1.562,1.562,0,0,1,.437-.3,4.2,4.2,0,0,1,.465-.137,1.532,1.532,0,0,0,.41.273,3.027,3.027,0,0,0,.519.246,4.222,4.222,0,0,0,.629.191,2.976,2.976,0,0,0,.711.082,3.15,3.15,0,0,0,1.2-.219,2.22,2.22,0,0,0,.82-.574,2.406,2.406,0,0,0,.492-.793,2.661,2.661,0,0,0,.164-.929,4.1,4.1,0,0,0-.055-.547Zm-1.53,1.175a.887.887,0,0,1-.273.355,1.043,1.043,0,0,1-.437.164,3.362,3.362,0,0,1-.547.055,1.279,1.279,0,0,1-.437-.055,2.043,2.043,0,0,1-.437-.109c-.137-.055-.273-.109-.383-.164a.953.953,0,0,1-.246-.164,6.257,6.257,0,0,1,.219-.765,2.519,2.519,0,0,1,.355-.656,1.875,1.875,0,0,1,.465-.465,1.01,1.01,0,0,1,.574-.164,1.155,1.155,0,0,1,.547.137,1.6,1.6,0,0,1,.383.355,1.04,1.04,0,0,1,.219.465,1.5,1.5,0,0,1,.082.437,1.272,1.272,0,0,1-.082.574Z" transform="translate(-585.374 -565.225)" fill="#071e4f"/>
        <path id="Path_704" data-name="Path 704" d="M730.757,577.843h-1.5a6.683,6.683,0,0,1-.738-.055,2.3,2.3,0,0,1-.656-.191c0-.055.027-.137.027-.219v-7.023h-1.612v6.586a1.9,1.9,0,0,1-.055.437.854.854,0,0,1-.137.273.528.528,0,0,1-.246.137,1.384,1.384,0,0,1-.355.055h-1.257a2.974,2.974,0,0,1-.492-.027,2.411,2.411,0,0,1-.465-.055c-.164-.027-.3-.027-.437-.055s-.246-.055-.355-.082a8.345,8.345,0,0,0,.711-.82,5.507,5.507,0,0,0,.437-.683,3.94,3.94,0,0,0,.219-.574,2.715,2.715,0,0,0,.055-.437.932.932,0,0,0-.191-.6,1.572,1.572,0,0,0-.519-.41,1.968,1.968,0,0,0-.711-.219,3.847,3.847,0,0,0-.765-.082c-.3,0-.6.027-.9.055-.273.055-.547.109-.793.164a3.687,3.687,0,0,0-.656.219c-.191.082-.355.164-.492.219a.631.631,0,0,0-.191.191,2.98,2.98,0,0,0-.164.3,1.369,1.369,0,0,0-.137.355c-.027.109-.055.219-.082.3.027.027.082.109.164.191s.164.219.273.355a1.707,1.707,0,0,1,.246.328,4.077,4.077,0,0,0,.328.383,4.905,4.905,0,0,0,.355.383l.355.355a2.428,2.428,0,0,1-.629.137,8.861,8.861,0,0,1-.9.055h-.9a6.683,6.683,0,0,1-.738-.055,2.3,2.3,0,0,1-.656-.191c0-.055.027-.137.027-.219V570.3h-1.612v6.586a1.9,1.9,0,0,1-.055.437.855.855,0,0,1-.137.273.528.528,0,0,1-.246.137,1.384,1.384,0,0,1-.355.055H690.748v-.956a4.126,4.126,0,0,0-.109-1.066,4.378,4.378,0,0,0-.3-.792,1.825,1.825,0,0,0-.465-.547,2.232,2.232,0,0,0-.547-.328,2.268,2.268,0,0,0-.574-.164,4.083,4.083,0,0,0-.574-.055,3.635,3.635,0,0,0-1.23.219,3.205,3.205,0,0,0-.929.6,2.612,2.612,0,0,0-.6.9,2.752,2.752,0,0,0-.219,1.066,2.333,2.333,0,0,0,.164.847,2.1,2.1,0,0,0,.519.792,2.439,2.439,0,0,0,.929.574,4.2,4.2,0,0,0,1.421.219H689a2.359,2.359,0,0,1-.437.492,2.661,2.661,0,0,1-.656.41,3.646,3.646,0,0,1-.875.3,6.214,6.214,0,0,1-1.066.164l.137,1.312a7.227,7.227,0,0,0,1.53-.3,5.733,5.733,0,0,0,1.312-.547,4.191,4.191,0,0,0,1.011-.793,2.792,2.792,0,0,0,.656-1.038h23.721a2.286,2.286,0,0,0,.793-.137,1.58,1.58,0,0,0,.547-.355,2.457,2.457,0,0,0,.765.355,4.042,4.042,0,0,0,1.066.137h.847a7.229,7.229,0,0,0,.793-.055,6.983,6.983,0,0,0,.738-.137,4.61,4.61,0,0,0,.656-.219c.219-.082.383-.164.574-.246.137.055.273.137.465.219s.41.137.629.219a6.3,6.3,0,0,0,.765.164,4.708,4.708,0,0,0,.9.055h2.159a2.285,2.285,0,0,0,.793-.137,1.579,1.579,0,0,0,.547-.355,2.457,2.457,0,0,0,.765.355,4.041,4.041,0,0,0,1.066.137h3.143v-8.8h-1.612l.027,7.543Zm-41.649,0h-.875a1.693,1.693,0,0,1-1.148-.328,1.2,1.2,0,0,1-.355-.929,1.222,1.222,0,0,1,.109-.547,1.467,1.467,0,0,1,.273-.437,1.234,1.234,0,0,1,.383-.273,1.287,1.287,0,0,1,.465-.109,1.238,1.238,0,0,1,.437.082.983.983,0,0,1,.383.3,1.952,1.952,0,0,1,.273.629,4.959,4.959,0,0,1,.109,1.011v.6Zm33.177-1.913a1.544,1.544,0,0,1-.191.355,2.157,2.157,0,0,1-.328.41.485.485,0,0,1-.956.055c-.164-.164-.3-.328-.437-.492a6.036,6.036,0,0,1-.383-.492c-.109-.164-.219-.3-.273-.41a1.581,1.581,0,0,1,.383-.137,2.278,2.278,0,0,1,.41-.109c.137-.027.273-.055.383-.082a1.568,1.568,0,0,1,.328-.027,2.4,2.4,0,0,1,.465.055,1.374,1.374,0,0,1,.355.137.779.779,0,0,1,.219.191.44.44,0,0,1,.082.246.589.589,0,0,1-.055.3Z" transform="translate(-609.719 -555.269)" fill="#071e4f"/>
      </g>
    </g>
    <g id="Group_5563" data-name="Group 5563" transform="translate(141.4 384.911)">
      <g id="Group_5556" data-name="Group 5556" transform="translate(11.486 0)">
        <path id="Path_705" data-name="Path 705" d="M221.381,396.591l-8.909,8.909a3.831,3.831,0,0,1-1.2.793,3.66,3.66,0,0,1-1.339.273H195.419a3.579,3.579,0,0,1-2.542-1.066l-8.909-8.909a1.851,1.851,0,0,1-.492-1.722,1.754,1.754,0,0,1,.683-1.038,30.665,30.665,0,0,1,37.057,0,1.837,1.837,0,0,1,.164,2.76Z" transform="translate(-183.43 -387.6)" fill="#0053e7"/>
        <g id="Group_5555" data-name="Group 5555" transform="translate(1.304 0.109)">
          <path id="Path_706" data-name="Path 706" d="M212.6,408.174a12.734,12.734,0,0,0-.875-1.476,9.394,9.394,0,0,0-7.679-3.935,9.962,9.962,0,0,0-2.022.219,10.751,10.751,0,0,0-1.995.683,8.22,8.22,0,0,0-.793-1.339,9.463,9.463,0,0,0-1.394-1.558,9.3,9.3,0,0,0-4.892-2.268c-.355.164-.711.328-1.038.519.273,0,.547.027.82.055l-3.635,2.432a5.257,5.257,0,0,1-.355-.465c-.027-.027-.027-.055-.055-.055-.164.109-.328.246-.492.355.027.027.027.055.055.082a9.119,9.119,0,0,0,1.366,1.53,9.45,9.45,0,0,0,6.313,2.432,16.7,16.7,0,0,0,3.853-.82,9.988,9.988,0,0,0,.875,1.476,2.362,2.362,0,0,1,.191.273l.355.437a9.352,9.352,0,0,0,5.712,3.143,11.96,11.96,0,0,0,1.394.109,9.643,9.643,0,0,0,4.017-.9,2.992,2.992,0,0,0,.219.41h0a6.548,6.548,0,0,0,.574.929A9.464,9.464,0,0,0,214.517,412a11.179,11.179,0,0,0,1.749,1.23l.465-.465c-.246-.137-.492-.273-.738-.437l2.542-1.394,1.421-1.421-4.482,2.46a10.856,10.856,0,0,1-1.312-1.2l4.509-2.432a8.455,8.455,0,0,1,1.8.683l.465-.465a9.342,9.342,0,0,0-4.427-1.12,7.807,7.807,0,0,0-3.908.738Zm-23.147-6.258,4.072-2.706a9.976,9.976,0,0,1,1.8.6l-4.7,3.143A10.321,10.321,0,0,1,189.457,401.916Zm1.667,1.394,4.782-3.17a9.129,9.129,0,0,1,1.448,1.011l-4.4,3.061a11.386,11.386,0,0,1-1.831-.9Zm4.782,1.394a9.068,9.068,0,0,1-2.268-.3l4.154-2.87a9.9,9.9,0,0,1,.984,1.148,8,8,0,0,1,.738,1.257A9.4,9.4,0,0,1,195.907,404.7Zm5.22.9a11.662,11.662,0,0,1-.82-1.394,8.7,8.7,0,0,1,3.744-.847,8.928,8.928,0,0,1,1.913.219l-4.619,2.35A2.278,2.278,0,0,0,201.126,405.605Zm.629.765,5.056-2.569a8.813,8.813,0,0,1,1.858.847l-5.493,3.006A9.011,9.011,0,0,1,201.755,406.371Zm1.94,1.64L209.188,405a7.611,7.611,0,0,1,1.476,1.339l-4.892,2.569h0a9.96,9.96,0,0,1-2.077-.9Zm4.591,1.284a8.683,8.683,0,0,1-1.694-.164l4.455-2.323c.055.082.137.164.191.246a11.654,11.654,0,0,1,.82,1.394A8.9,8.9,0,0,1,208.286,409.295Zm5.493.929-.164-.246a8.006,8.006,0,0,1-.738-1.257,8.919,8.919,0,0,1,3.607-.765,7.085,7.085,0,0,1,1.312.109Z" transform="translate(-188.2 -395.631)" fill="#00a5ff"/>
          <path id="Path_707" data-name="Path 707" d="M245.4,395.242l-4.782,2.624a10.854,10.854,0,0,1-1.312-1.2l4.537-2.46a8.153,8.153,0,0,1,1.366.492,1.35,1.35,0,0,0-.492-.547c-.219-.164-.465-.355-.711-.519a8.928,8.928,0,0,0-2.4-.3,9.577,9.577,0,0,0-3.853.82,12.734,12.734,0,0,0-.875-1.476,9.394,9.394,0,0,0-7.679-3.935,10.174,10.174,0,0,0-2.022.219,9.067,9.067,0,0,0-1.995.683,8.221,8.221,0,0,0-.793-1.339c-.082-.109-.137-.191-.219-.3-.246.027-.492.027-.765.055.082.082.137.164.219.246l-4.017,2.241a8.949,8.949,0,0,1-2.022-.574l2.788-1.5c-.683.137-1.366.3-2.05.465l-1.366.738a1.745,1.745,0,0,1-.383-.219c-.246.082-.492.164-.765.273a9.234,9.234,0,0,0,4.837,1.558h.383a16.7,16.7,0,0,0,3.853-.82,9.985,9.985,0,0,0,.875,1.476,7,7,0,0,0,.547.711l.082.082a9.429,9.429,0,0,0,7.051,3.143,8.411,8.411,0,0,0,1.858-.191,12.086,12.086,0,0,0,1.858-.574c.109-.055.191-.082.3-.137a8.222,8.222,0,0,0,.793,1.339,9.466,9.466,0,0,0,4.045,3.225l.492-.492a8.126,8.126,0,0,1-1.612-.82l4.263-2.35a1.6,1.6,0,0,0-.027-.629Zm-24.35-4.619h-.437L224,388.738a9.225,9.225,0,0,1,.656,1.12,8.488,8.488,0,0,1-3.607.765Zm5.52,1.339a3.908,3.908,0,0,1-.3-.41,11.662,11.662,0,0,1-.82-1.394,8.7,8.7,0,0,1,3.744-.847h0a9.7,9.7,0,0,1,1.995.219l-4.618,2.432Zm.383.437,5.028-2.651c.164.055.3.109.465.164a8.041,8.041,0,0,1,1.448.738l-5.493,3.006a9.023,9.023,0,0,1-1.448-1.257Zm1.995,1.612,5.466-2.979a9.2,9.2,0,0,1,1.421,1.312l-4.892,2.542A10.777,10.777,0,0,1,228.945,394.012Zm4.482,1.2a8.342,8.342,0,0,1-1.64-.164l4.427-2.3c.055.082.109.137.164.219a11.668,11.668,0,0,1,.82,1.394,8.9,8.9,0,0,1-3.771.847Zm5.3.711a8,8,0,0,1-.738-1.257,8.919,8.919,0,0,1,3.607-.765,7.991,7.991,0,0,1,1.394.109l-4.045,2.186c-.082-.082-.137-.191-.219-.273Z" transform="translate(-208.257 -388)" fill="#00a5ff"/>
        </g>
        <path id="Path_708" data-name="Path 708" d="M211.269,423.225a3.66,3.66,0,0,1-1.339.273H195.419a3.579,3.579,0,0,1-2.542-1.066l-8.909-8.909a1.851,1.851,0,0,1-.492-1.722,23.953,23.953,0,0,1,6.586-.9,24.23,24.23,0,0,1,12.626,3.525,24.747,24.747,0,0,1,8.581,8.8Z" transform="translate(-183.43 -404.532)" fill="url(#linear-gradient)"/>
      </g>
      <g id="Group_5558" data-name="Group 5558" transform="translate(11.451 42.441)">
        <path id="Path_709" data-name="Path 709" d="M183.847,552.875l8.909-8.909a3.832,3.832,0,0,1,1.2-.793,3.661,3.661,0,0,1,1.339-.273h14.511a3.579,3.579,0,0,1,2.542,1.066l8.909,8.909a1.851,1.851,0,0,1,.492,1.722,1.754,1.754,0,0,1-.683,1.038,30.665,30.665,0,0,1-37.057,0,1.837,1.837,0,0,1-.164-2.76Z" transform="translate(-183.3 -542.9)" fill="#ff5122"/>
        <g id="Group_5557" data-name="Group 5557" transform="translate(0.191)">
          <path id="Path_710" data-name="Path 710" d="M208.381,546a.833.833,0,0,0-.219.219l-.492.492.711,3.2-3.17-.738-.711.711,5.028,1.2C209.528,551.056,208.381,546,208.381,546Z" transform="translate(-198.898 -545.153)" fill="#ff9300"/>
          <path id="Path_711" data-name="Path 711" d="M187.689,567.1l-.738.738.711,3.143-3.088-.738-.219.219a1.6,1.6,0,0,0-.355.519l4.837,1.148-1.148-5.029Z" transform="translate(-184 -560.487)" fill="#ff9300"/>
          <path id="Path_712" data-name="Path 712" d="M210.734,554.624l-1.694-7.515,7.488,1.776-1.339-5.985h-.9l1.093,4.81-7.488-1.776,1.694,7.515-7.488-1.776,1.694,7.515-5.493-1.312a33.349,33.349,0,0,0,3.58,1.749l3.061.738-1.694-7.515,7.488,1.776Z" transform="translate(-194.392 -542.9)" fill="#ff9300"/>
          <path id="Path_713" data-name="Path 713" d="M240.169,561.187l7.461,1.776-1.694-7.515,7.488,1.776-.055-.219-1.148-1.148.055.219-7.488-1.776,1.694,7.515-7.488-1.776,1.694,7.515-7.488-1.776.9,4.045c.3.055.6.082.9.137l-.683-3.006,7.488,1.776-1.64-7.543Z" transform="translate(-219.754 -551.185)" fill="#ff9300"/>
          <path id="Path_714" data-name="Path 714" d="M304.133,577.276,296.7,575.5l1.585,7.023c.273-.137.519-.273.793-.41l-1.23-5.466,6.368,1.5a1.628,1.628,0,0,0-.082-.875Z" transform="translate(-265.901 -566.591)" fill="#ff9300"/>
          <path id="Path_715" data-name="Path 715" d="M276.22,600.153c.273-.055.574-.137.847-.191l-.492-2.214,4.236,1.011c.465-.191.9-.355,1.339-.574L275.4,596.6l.82,3.553Z" transform="translate(-250.422 -581.925)" fill="#ff9300"/>
        </g>
        <path id="Path_716" data-name="Path 716" d="M222.3,543.173a3.661,3.661,0,0,1,1.339-.273h14.511a3.579,3.579,0,0,1,2.542,1.066l8.909,8.909a1.851,1.851,0,0,1,.492,1.722,23.956,23.956,0,0,1-6.586.9A24.44,24.44,0,0,1,222.3,543.173Z" transform="translate(-211.642 -542.9)" fill="url(#linear-gradient-2)"/>
      </g>
      <g id="Group_5559" data-name="Group 5559" transform="translate(42.441 11.459)">
        <path id="Path_717" data-name="Path 717" d="M306.675,467.581l-8.909-8.909a3.831,3.831,0,0,1-.793-1.2,3.66,3.66,0,0,1-.273-1.339V441.619a3.579,3.579,0,0,1,1.066-2.542l8.909-8.909a1.851,1.851,0,0,1,1.722-.492,1.754,1.754,0,0,1,1.038.683,30.665,30.665,0,0,1,0,37.057,1.837,1.837,0,0,1-2.76.164Z" transform="translate(-296.7 -429.602)" fill="#009457"/>
        <path id="Path_718" data-name="Path 718" d="M316.828,470.645c.219-.383.41-.765.6-1.175a20.935,20.935,0,0,1-4.7,1.694,20.23,20.23,0,0,1-2.924.492c-.109,0-.219.027-.3.027a24.271,24.271,0,0,0,2.733-3.334,22.55,22.55,0,0,0,3.252-1.2,19.088,19.088,0,0,0,3.689-2.132c.137-.437.273-.9.383-1.366a16.057,16.057,0,0,1-4.373,2.76,20.213,20.213,0,0,1-2.241.874,29.536,29.536,0,0,0,2.241-4.455,28.012,28.012,0,0,0,2.378-1.558,22.487,22.487,0,0,0,2.842-2.46c.027-.437.055-.847.082-1.284a19.814,19.814,0,0,1-3.389,3.115,17.243,17.243,0,0,1-1.448.984,32.817,32.817,0,0,0,1.421-5.411c.328-.219,1.093-.765,1.913-1.448a13.659,13.659,0,0,0,1.421-1.394c-.027-.383-.082-.765-.109-1.12a4.313,4.313,0,0,1-.328.41,14.843,14.843,0,0,1-2.268,2.132c-.164.137-.328.246-.465.355a46.786,46.786,0,0,0,.41-4.837,7.157,7.157,0,0,0,1.2-1.284,7.517,7.517,0,0,0,.629-.9c-.109-.355-.191-.711-.3-1.066a9.191,9.191,0,0,1-.957,1.476,8.121,8.121,0,0,1-.574.656,40.363,40.363,0,0,0-.82-7.734c-.273-.492-.547-.984-.847-1.448.3,1.476.574,2.951.738,4.455.055.711.109,1.421.164,2.1a20.6,20.6,0,0,1-1.23-1.667,17.693,17.693,0,0,1-2.487-5.3l-.765.191a18.031,18.031,0,0,0,2.678,5.684,16.86,16.86,0,0,0,1.831,2.3l.027-.027c0,.492.027.984,0,1.476a33.085,33.085,0,0,1-.164,3.307,14.7,14.7,0,0,1-1.394-1.448A8.947,8.947,0,0,1,313.3,447.2l-.793.137a9.7,9.7,0,0,0,2.35,4.373,15.018,15.018,0,0,0,1.8,1.8,37.958,37.958,0,0,1-.847,4.728,18.41,18.41,0,0,1-1.8-1.5,13.419,13.419,0,0,1-3.225-4.4l-.738.3a14.433,14.433,0,0,0,3.525,4.783,25.168,25.168,0,0,0,1.995,1.64,33.891,33.891,0,0,1-1.886,5.22,22.03,22.03,0,0,1-2.46-1.968,15.631,15.631,0,0,1-1.913-2.1,6.634,6.634,0,0,1-1.2-2.4l-.765.191a7.981,7.981,0,0,0,1.394,2.76,19.1,19.1,0,0,0,3.115,3.17c.656.519,1.2.9,1.476,1.12a30.218,30.218,0,0,1-2.432,4.017,24.607,24.607,0,0,1-3.771-3.033,16.945,16.945,0,0,1-1.995-2.268,6.167,6.167,0,0,1-1.066-2.186l-.765.164a7.168,7.168,0,0,0,1.2,2.487,21.329,21.329,0,0,0,3.225,3.443,23.707,23.707,0,0,0,2.678,2.022,25.113,25.113,0,0,1-1.776,2.05h0c-.027.027-.055.082-.109.109l.656.656a24.717,24.717,0,0,0,3.689-.574,21.449,21.449,0,0,0,3.963-1.284Z" transform="translate(-301.496 -436.848)" fill="#00d17d"/>
        <path id="Path_719" data-name="Path 719" d="M296.973,457.369a3.66,3.66,0,0,1-.273-1.339V441.519a3.579,3.579,0,0,1,1.066-2.542l8.909-8.909a1.851,1.851,0,0,1,1.722-.492,23.952,23.952,0,0,1,.9,6.586,24.44,24.44,0,0,1-12.325,21.207Z" transform="translate(-296.7 -429.53)" fill="url(#linear-gradient-3)"/>
      </g>
      <g id="Group_5561" data-name="Group 5561" transform="translate(0 11.433)">
        <path id="Path_720" data-name="Path 720" d="M150.391,429.972l8.909,8.909a3.832,3.832,0,0,1,.793,1.2,3.66,3.66,0,0,1,.273,1.339v14.511a3.579,3.579,0,0,1-1.066,2.542l-8.909,8.909a1.851,1.851,0,0,1-1.722.492,1.754,1.754,0,0,1-1.038-.683,30.665,30.665,0,0,1,0-37.057A1.858,1.858,0,0,1,150.391,429.972Z" transform="translate(-141.4 -429.434)" fill="#7100e5"/>
        <g id="Group_5560" data-name="Group 5560" transform="translate(0.164 1.166)">
          <path id="Path_721" data-name="Path 721" d="M167.612,437.143h0a1.306,1.306,0,0,0,1.312-1.312,1.364,1.364,0,0,0-.137-.574l.956-.957-.6-.6-.956.956a1.469,1.469,0,0,0-.574-.137h0a1.314,1.314,0,0,0-.929,2.241,1.2,1.2,0,0,0,.929.383Z" transform="translate(-159.659 -433.7)" fill="#c58bf3"/>
          <path id="Path_722" data-name="Path 722" d="M151.4,469.641a1.35,1.35,0,0,0,.929.383h0a1.312,1.312,0,1,0-.929-2.241,1.681,1.681,0,0,0-.328.519h-6.45c-.082.273-.137.547-.219.82h6.668A2.079,2.079,0,0,0,151.4,469.641Z" transform="translate(-143.744 -458.19)" fill="#c58bf3"/>
          <path id="Path_723" data-name="Path 723" d="M156.137,515.6l14.621-14.621V499.8L155.7,514.858C155.837,515.1,156,515.35,156.137,515.6Z" transform="translate(-151.956 -481.736)" fill="#c58bf3"/>
          <path id="Path_724" data-name="Path 724" d="M160.747,470.9l-4.072,4.072H142.082c-.027.273-.055.547-.082.847h14.429l-12.954,12.954c.109.3.191.574.3.875L160.8,472.622v-1.039a5.76,5.76,0,0,0-.055-.683Z" transform="translate(-142 -460.734)" fill="#c58bf3"/>
          <path id="Path_725" data-name="Path 725" d="M155.412,452.2h0a1.349,1.349,0,0,0,.929-.383,1.275,1.275,0,0,0,.328-.547h6.859L165,449.792l-.492-.492-1.257,1.257H156.7a1.144,1.144,0,0,0-.355-.6,1.35,1.35,0,0,0-.929-.383h0a1.314,1.314,0,0,0-.929,2.241,1.28,1.28,0,0,0,.929.383Zm-.355-1.667a.528.528,0,1,1-.164.383A.5.5,0,0,1,155.057,450.53Z" transform="translate(-150.793 -445.037)" fill="#c58bf3"/>
          <path id="Path_726" data-name="Path 726" d="M146.937,498.224a1.312,1.312,0,1,0,0-2.624h0a1.306,1.306,0,0,0-1.312,1.312,1.455,1.455,0,0,0,.164.656l-3.389,3.389a7.832,7.832,0,0,0,.137.847l3.744-3.744A1.456,1.456,0,0,0,146.937,498.224Z" transform="translate(-142.291 -478.684)" fill="#c58bf3"/>
        </g>
        <path id="Path_727" data-name="Path 727" d="M177.125,468.5a3.66,3.66,0,0,1,.273,1.339v14.511a3.579,3.579,0,0,1-1.066,2.542l-8.909,8.909a1.851,1.851,0,0,1-1.722.492,23.954,23.954,0,0,1-.9-6.586,24.23,24.23,0,0,1,3.525-12.626,23.883,23.883,0,0,1,8.8-8.581Z" transform="translate(-158.405 -457.824)" fill="url(#linear-gradient-4)"/>
      </g>
      <g id="Group_5562" data-name="Group 5562" transform="translate(23.609 21.671)">
        <path id="Path_728" data-name="Path 728" d="M241.893,515.863c-2.3-1.394-5.056.027-7,1.366-1.94-1.366-4.7-2.76-7-1.366-.191.109-.109.109.027.082a2.818,2.818,0,0,0,.519-.027,11.5,11.5,0,0,1,5.3,2.132l-.027.027a23.747,23.747,0,0,1-3.115,2.077h1.913a1.56,1.56,0,0,0,.874-.246c.465-.3.956-.656,1.476-1.011a.027.027,0,0,0,.027-.027.027.027,0,0,1,.027.027c.519.355.984.711,1.476,1.011a1.625,1.625,0,0,0,.875.246h1.913a29.378,29.378,0,0,1-3.115-2.077l-.027-.027a11.5,11.5,0,0,1,5.3-2.132,4.078,4.078,0,0,1,.519.027c.164.027.219.027.027-.082Z" transform="translate(-227.788 -502.062)" fill="#001f55"/>
        <path id="Path_729" data-name="Path 729" d="M234.107,473.541a7.073,7.073,0,0,0-1.858,3.143l2.46-1.968a6.3,6.3,0,0,0,.082,3.416l1.339-3.279a19.393,19.393,0,0,0,.9,5.958,19.4,19.4,0,0,0,.9-5.958l1.339,3.279a6.047,6.047,0,0,0,.082-3.416l2.46,1.968a6.829,6.829,0,0,0-1.858-3.143l3.252.765a8.1,8.1,0,0,0-3.115-1.968l3.061-.574a9.3,9.3,0,0,0-3.717-.519L242,469.414a9.384,9.384,0,0,0-3.443.957l1.612-2.46a7.322,7.322,0,0,0-2.487,1.694A14.546,14.546,0,0,0,237,466.9a14.028,14.028,0,0,0-.683,2.705,7.733,7.733,0,0,0-2.487-1.694l1.612,2.46a9.687,9.687,0,0,0-3.443-.957l2.569,1.831a9.889,9.889,0,0,0-3.717.519l3.061.574a9.057,9.057,0,0,0-3.115,1.968l3.307-.765Z" transform="translate(-229.977 -466.9)" fill="#001f55"/>
      </g>
    </g>
  </g>
</svg>
