<svg xmlns="http://www.w3.org/2000/svg" width="32" height="32" viewBox="0 0 32 32">
  <g id="keyboard" transform="translate(-294 -3362)">
    <rect id="Rectangle_6184" data-name="Rectangle 6184" width="32" height="32" transform="translate(294 3362)" fill="#006cf2" opacity="0"/>
    <path id="keyboard-2" data-name="keyboard" d="M15.7,12.8H13.6V10.7h2.1v2.1Zm0,4.3h2.1V15H15.7Zm-4.2,0h2.1V15H11.5Zm0-6.4H9.3v2.1h2.1V10.7Zm12.8,0H22.2v2.1h2.1ZM20,17.1h2.1V15H20Zm0-6.4H17.9v2.1H20Zm-12.8,0H5.1v2.1H7.2Zm19.2,2.1h2.1V10.7H26.4ZM5.1,21.3H7.2V19.2H5.1ZM32.8,9.6V22.4a3.081,3.081,0,0,1-3.2,3.2H4a3.168,3.168,0,0,1-2.3-.9,3.168,3.168,0,0,1-.9-2.3V9.6a3.168,3.168,0,0,1,.9-2.3A3.523,3.523,0,0,1,4,6.4H29.6a3.081,3.081,0,0,1,3.2,3.2Zm-2.4-.8a1.135,1.135,0,0,0-.8-.3H4a1.135,1.135,0,0,0-.8.3,1.909,1.909,0,0,0-.3.8V22.4a1.135,1.135,0,0,0,.3.8,1.135,1.135,0,0,0,.8.3H29.6a1.032,1.032,0,0,0,1.1-1.1V9.6A1.135,1.135,0,0,0,30.4,8.8Zm-4,12.5h2.1V19.2H26.4Zm0-6.4H24.3V17h2.1Zm-17.1,0H7.2V17H9.3V14.9Zm0,6.4H24.2V19.2H9.3Z" transform="translate(293.201 3361.467)" fill="#006cf2"/>
  </g>
</svg>
