<svg xmlns="http://www.w3.org/2000/svg" width="32" height="32" viewBox="0 0 32 32">
  <g id="keys" transform="translate(-528 -3461)">
    <rect id="Rectangle_6199" data-name="Rectangle 6199" width="32" height="32" transform="translate(528 3461)" fill="#006cf2" opacity="0"/>
    <path id="keys-2" data-name="keys" d="M30.709,15.341H24.883V2.726A.967.967,0,0,0,23.861,1.7H10.268A.967.967,0,0,0,9.246,2.726V15.341H3.522A.967.967,0,0,0,2.5,16.367V30.008a.967.967,0,0,0,1.022,1.026H30.811a.967.967,0,0,0,1.022-1.026V16.367A1.116,1.116,0,0,0,30.709,15.341ZM21.919,4.777v9.538H12.414V4.777ZM19.16,27.956V18.418h9.505v9.538Zm-13.593,0V18.418h9.505v9.538Zm8.074-17.744a.994.994,0,0,1,0-1.436L16.4,6.11c.1-.1.2-.205.307-.205s.2-.1.409-.1h0a.613.613,0,0,1,.409.1c.1,0,.2.1.307.205h0l2.76,2.769a1.014,1.014,0,0,1-1.431,1.436L18.138,9.29v2.974a1.022,1.022,0,1,1-2.044,0V9.29l-1.022,1.026a1.1,1.1,0,0,1-.715.308A1.3,1.3,0,0,1,13.641,10.213Zm.409,13.026a.967.967,0,0,1-1.022,1.026H10.063l1.022,1.026a.994.994,0,0,1,0,1.436,1.1,1.1,0,0,1-.715.308,1.548,1.548,0,0,1-.818-.41l-2.76-2.769h0c-.1-.1-.2-.205-.2-.308s-.1-.205-.1-.41,0-.308.1-.41c0-.1.1-.205.2-.308h0l2.76-2.769a1.014,1.014,0,0,1,1.431,1.436L9.961,22.11h2.964C13.641,22.213,14.049,22.623,14.049,23.238Zm13.593-.41c0,.1.1.205.1.41a.618.618,0,0,1-.1.41c0,.1-.1.205-.2.308h0l-2.76,2.667a.986.986,0,0,1-1.431,0,.994.994,0,0,1,0-1.436l1.022-1.026H21.306a1.026,1.026,0,0,1,0-2.051H24.27l-1.022-1.026a1.014,1.014,0,0,1,1.431-1.436l2.76,2.769h0c.1.205.1.308.2.41Z" transform="translate(526.833 3460.633)" fill="#006cf2"/>
  </g>
</svg>
