<svg xmlns="http://www.w3.org/2000/svg" width="196" height="90.231" viewBox="0 0 196 90.231">
  <g id="King-Abdullah-University-of-Science-and-Technology-01" transform="translate(-99.726 -315.4)">
    <path id="Path_784" data-name="Path 784" d="M313.542,455.171a3.454,3.454,0,0,1,2.566-.073l.758-.978c-1.809,0-2.4-.9-2.029-1.491s1.124-.147,1.735.22l.758-.9a1.978,1.978,0,0,0-2.713.147c-.073.073-.147.147-.147.22a1.3,1.3,0,0,0,.073,1.735,2.728,2.728,0,0,0-1.344.758Z" transform="translate(-161.302 -102.818)" fill="#706259"/>
    <path id="Path_785" data-name="Path 785" d="M440,450.6v10.289c.9,0,1.418-.758,1.418-2.028V450.6Z" transform="translate(-257.112 -102.157)" fill="#706259"/>
    <path id="Path_786" data-name="Path 786" d="M404.9,509.073v10.216c.9,0,1.418-.758,1.418-2.028V509H404.9Z" transform="translate(-230.59 -146.285)" fill="#706259"/>
    <path id="Path_787" data-name="Path 787" d="M312.145,458.643a1.678,1.678,0,0,0,1.735,1.124h3.69v-1.124a1.678,1.678,0,0,0,1.735,1.124h.831a1.635,1.635,0,0,0,1.271-.367,3.526,3.526,0,0,0,.758-1.344c-.147,1.2,2.1,1.662,3.373,1.735,1.2.147,1.271-.684,1.271-1.124a1.678,1.678,0,0,0,1.735,1.124h3.617V450.7h-1.466v7.967h-2.322a1.475,1.475,0,0,1-1.589-1.344v-.293c0-1.882-.367-3.519-2.1-3.519-2.713,0-3.079,3.006-3.984,4.5a1.146,1.146,0,0,1-1.124.684h-.44a1.472,1.472,0,0,1-1.589-1.271v-6.672h-1.417v7.967h-2.4a1.475,1.475,0,0,1-1.589-1.344v-6.6h-1.417v7.967h-7.283c-2.1,0-1.809-1.735-.758-2.933l-.367-.367c-1.589,1.344-2.468,3.153-1.2,4.13a1.758,1.758,0,0,0,1.344.293h9.7v-1.222Zm13.149-2.566v2.4a5.044,5.044,0,0,1-2.933-1.271c.147-.538.293-.9.44-1.417.293-.978.758-1.882,1.589-1.662.684.147.9.978.9,1.955" transform="translate(-151.717 -102.233)" fill="#706259"/>
    <path id="Path_788" data-name="Path 788" d="M169.8,450.6v10.289c.9,0,1.417-.758,1.417-2.028V450.6Z" transform="translate(-52.948 -102.157)" fill="#706259"/>
    <path id="Path_789" data-name="Path 789" d="M511.757,516.967h-.9c-2.175,0-1.882-2.1-.684-3.006,1.051-.831,1.662.538,1.662,2.249Zm11.047-2.639.684-1.051c2.029.22,1.662,1.809.758,2.859a2.723,2.723,0,0,0-1.442-1.809m11.34-5.254v7.894h-2.4a1.475,1.475,0,0,1-1.589-1.344V509h-1.417v7.894h-3.91c.9-.831,2.029-2.859,1.124-3.91s-2.248-.9-3.226-.978l-1.491,2.248a3.8,3.8,0,0,1,2.322,2.713h-4.888a1.475,1.475,0,0,1-1.589-1.344V509h-1.417v7.894h-2.322v-.611c0-2.4-1.589-4.35-3.69-2.786-1.491,1.124-2.4,3.226-1.124,4.2a1.758,1.758,0,0,0,1.344.293h1.735c-.293,1.882-.758,3.69-3.373,4.888l.147.44c2.175-.684,4.277-1.589,4.815-5.328h3.984V516.87a1.678,1.678,0,0,0,1.735,1.124h3.617a1.869,1.869,0,0,0,1.417-.367,1.9,1.9,0,0,0,1.418.367h4.815V516.65a1.394,1.394,0,0,0,.538,1.051,1.758,1.758,0,0,0,1.344.293h3.519v-8.945h-1.442Z" transform="translate(-308.437 -146.285)" fill="#706259"/>
    <path id="Path_790" data-name="Path 790" d="M422.881,529.362h-.9c-2.175,0-1.882-2.1-.684-3.006,1.051-.831,1.662.538,1.662,2.248Zm1.564-.611c0-2.4-1.589-4.35-3.69-2.786-1.491,1.124-2.4,3.153-1.124,4.2a1.758,1.758,0,0,0,1.344.293h1.735c-.293,1.882-.758,3.69-3.373,4.888l.147.44c2.175-.684,4.277-1.662,4.815-5.328a12.07,12.07,0,0,0,.147-1.711" transform="translate(-241.264 -158.679)" fill="#706259"/>
    <path id="Path_791" data-name="Path 791" d="M109.031,459.692v-1.124a1.678,1.678,0,0,0,1.735,1.124h3.69V450.6h-1.418v7.967h-2.4a1.475,1.475,0,0,1-1.589-1.344v-6.6h-1.442v7.967h-2.468v-.611c0-2.4-1.589-4.35-3.69-2.786-1.491,1.124-2.4,3.226-1.124,4.13a1.891,1.891,0,0,0,1.344.367Zm-5.474-1.124h-.9c-2.175,0-1.882-2.1-.684-3.006,1.051-.831,1.662.538,1.662,2.248Z" transform="translate(0 -102.158)" fill="#706259"/>
    <path id="Path_792" data-name="Path 792" d="M491.231,467.035a4.347,4.347,0,0,1-2.933-1.271c.147-.538.293-.9.44-1.418.293-.978.758-1.882,1.589-1.662.611.147.9.978.9,1.955v2.4ZM480.5,464.468l.684-1.051c2.029.147,1.662,1.809.758,2.859a2.738,2.738,0,0,0-1.442-1.809m-5.646,2.639h-.9c-2.175,0-1.882-2.1-.684-3.006,1.051-.831,1.662.538,1.662,2.248ZM490.645,462c-2.713,0-3.079,3.006-3.984,4.5a1.146,1.146,0,0,1-1.124.684H482.6c.9-.831,2.029-2.859,1.124-3.91s-2.248-.9-3.226-.978l-1.491,2.248a3.826,3.826,0,0,1,2.322,2.639h-4.888v-.611c0-2.4-1.589-4.35-3.69-2.786-1.491,1.124-2.4,3.226-1.124,4.2a2.145,2.145,0,0,0,1.344.293h7.21a1.869,1.869,0,0,0,1.417-.367,1.9,1.9,0,0,0,1.418.367h2.933a1.635,1.635,0,0,0,1.271-.367,3.528,3.528,0,0,0,.758-1.344c-.147,1.2,2.1,1.662,3.373,1.735,1.2.147,1.2-.684,1.2-1.124v-1.662c.122-1.809-.269-3.519-1.906-3.519" transform="translate(-280.555 -110.771)" fill="#706259"/>
    <path id="Path_793" data-name="Path 793" d="M206.339,467.408a2.35,2.35,0,0,1-2.468-2.639c-.073-1.491,1.417-2.029,3.764-1.344l.147-.44a7.834,7.834,0,0,0-2.566-.684c-2.028,0-3.006.978-3.006,2.639a2.635,2.635,0,0,0,1.124,2.4h-3.153a1.378,1.378,0,0,1-1.491-1.344v-1.637H197.2v3.079h-3.226a1.475,1.475,0,0,1-1.589-1.344v-3.666h-1.515v5.035H188.23c-.758,0-.684-.44-.367-.831l-.367-.22c-.9.978-.758,2.248.9,2.248h3.91v-1.2a1.678,1.678,0,0,0,1.735,1.124h4.5v-1.124a1.678,1.678,0,0,0,1.735,1.124h7.674v-1.124Z" transform="translate(-65.903 -110.998)" fill="#706259"/>
    <path id="Path_794" data-name="Path 794" d="M581.665,456.148c-.831-1.418-1.809-2.468-3.69-2.468l-.073.538c2.933.538,1.491,2.322,3.984,4.35h-7.967V450.6H572.5v7.063c0,1.271.611,2.028,1.417,2.028h10.753v-1.124a4.2,4.2,0,0,1-3.006-2.42" transform="translate(-357.23 -102.158)" fill="#706259"/>
    <path id="Path_795" data-name="Path 795" d="M261.845,517.118v-.611c0-2.4-1.491-4.35-3.69-2.786-1.491,1.124-2.4,3.153-1.124,4.2a1.758,1.758,0,0,0,1.344.293h7.576v-1.124a1.678,1.678,0,0,0,1.735,1.124h3.788v-1.124a1.678,1.678,0,0,0,1.735,1.124h4.741c1.124,0,1.271-.684,1.271-1.124a1.625,1.625,0,0,0,1.735,1.124h3.837v-1.124a1.625,1.625,0,0,0,1.735,1.124h3.617V509.2h-1.417v7.894h-2.322a1.475,1.475,0,0,1-1.589-1.344v-1.711h-1.491v3.079h-2.566a1.6,1.6,0,0,1-1.589-1.589c-.147-1.124-.684-2.859-2.248-2.859a1.8,1.8,0,0,0-1.955,2.1,3.886,3.886,0,0,0,1.955,2.322h-3.91a1.475,1.475,0,0,1-1.589-1.344v-1.711h-1.418v3.079H267.54a1.475,1.475,0,0,1-1.589-1.344v-1.735h-1.417v3.079Zm14.346-3.006c1.491-.9,1.955,2.1,1.955,3.006-1.955-1.051-2.786-2.493-1.955-3.006m-15.935,3.006h-.9c-2.1,0-1.882-2.1-.684-3.006,1.051-.831,1.662.538,1.662,2.248Z" transform="translate(-118.403 -146.436)" fill="#706259"/>
    <rect id="Rectangle_5604" data-name="Rectangle 5604" width="1.418" height="1.344" transform="translate(130.978 358.878)" fill="#706259"/>
    <rect id="Rectangle_5605" data-name="Rectangle 5605" width="1.418" height="1.271" transform="translate(193.715 349.42)" fill="#706259"/>
    <rect id="Rectangle_5606" data-name="Rectangle 5606" width="1.418" height="1.271" transform="translate(191.515 349.42)" fill="#706259"/>
    <rect id="Rectangle_5607" data-name="Rectangle 5607" width="1.418" height="1.271" transform="translate(141.34 363.766)" fill="#706259"/>
    <rect id="Rectangle_5608" data-name="Rectangle 5608" width="1.418" height="1.344" transform="translate(151.629 365.037)" fill="#706259"/>
    <rect id="Rectangle_5609" data-name="Rectangle 5609" width="1.418" height="1.271" transform="translate(139.165 363.766)" fill="#706259"/>
    <rect id="Rectangle_5610" data-name="Rectangle 5610" width="1.418" height="1.271" transform="translate(158.766 363.766)" fill="#706259"/>
    <rect id="Rectangle_5611" data-name="Rectangle 5611" width="1.418" height="1.271" transform="translate(156.591 363.766)" fill="#706259"/>
    <rect id="Rectangle_5612" data-name="Rectangle 5612" width="1.418" height="1.344" transform="translate(165.976 365.037)" fill="#706259"/>
    <rect id="Rectangle_5613" data-name="Rectangle 5613" width="1.418" height="1.344" transform="translate(163.8 365.037)" fill="#706259"/>
    <rect id="Rectangle_5614" data-name="Rectangle 5614" width="1.418" height="1.271" transform="translate(147.279 373.224)" fill="#706259"/>
    <rect id="Rectangle_5615" data-name="Rectangle 5615" width="1.418" height="1.271" transform="translate(145.104 373.224)" fill="#706259"/>
    <rect id="Rectangle_5616" data-name="Rectangle 5616" width="1.418" height="1.344" transform="translate(222.187 358.878)" fill="#706259"/>
    <path id="Path_796" data-name="Path 796" d="M475.646,525.435v-2.4c0-.978-.293-1.809-.9-2.028-.831-.22-1.271.684-1.589,1.662-.147.44-.367,1.2-.538,1.735a17.722,17.722,0,0,1,3.031,1.026m-.611-5.035c1.662,0,2.1,1.735,2.1,3.519v1.662c0,.538-.147,1.589-1.2,1.124-1.271-.538-3.153-1.491-3.91-.978-.538.367-.44.9-.44,2.1v2.786c0,1.271-.611,2.028-1.418,2.028V527a2.53,2.53,0,0,1,1.051-2.322l.073-.073c.66-1.589,1.271-4.2,3.739-4.2" transform="translate(-279.903 -154.899)" fill="#706259"/>
    <path id="Path_797" data-name="Path 797" d="M100.3,588h1.271v3.446h0L104.137,588h1.2l-2.713,3.519,3.006,4.228H104.21l-2.639-3.764h0v3.764H100.3Z" transform="translate(-0.434 -205.977)" fill="#706259"/>
    <path id="Path_798" data-name="Path 798" d="M125.873,595.747H127v-5.328h-1.124Zm-.073-6.623H127V588h-1.2Z" transform="translate(-19.702 -205.977)" fill="#706259"/>
    <path id="Path_799" data-name="Path 799" d="M138.1,597.573h1.124v1.271h0a1.988,1.988,0,0,1,1.882-1.344,1.4,1.4,0,0,1,1.344,1.417V602.9h-1.124v-3.3c0-.684-.073-1.271-.684-1.271-1.124,0-1.418,1.735-1.418,2.4V602.9H138.1Z" transform="translate(-28.996 -213.156)" fill="#706259"/>
    <path id="Path_800" data-name="Path 800" d="M166.524,602.755c0,1.491-.44,2.713-2.639,2.713a5.12,5.12,0,0,1-1.491-.22v-1.124a3.925,3.925,0,0,0,1.735.684c1.2,0,1.344-.831,1.344-2.029v-.611h0a1.357,1.357,0,0,1-1.344.758c-1.418,0-2.029-1.124-2.029-2.713s.44-2.713,2.029-2.713a1.344,1.344,0,0,1,1.344.978h0v-.9H166.6Zm-2.248-.513c.978,0,1.051-1.124,1.051-2.029s-.147-2.1-1.051-2.1-1.051,1.124-1.051,2.028.147,2.1,1.051,2.1" transform="translate(-47.13 -213.156)" fill="#706259"/>
    <path id="Path_801" data-name="Path 801" d="M199.739,588h1.271l2.566,7.747h-1.271l-.684-2.322h-2.713l-.684,2.322H197.1Zm-.513,4.741H201.4l-1.051-3.617h0Z" transform="translate(-73.576 -205.977)" fill="#706259"/>
    <path id="Path_802" data-name="Path 802" d="M228.424,591.153h0a1.562,1.562,0,0,1,1.491-.831c1.417,0,2.029,1.2,2.029,2.786,0,1.955-.978,2.786-2.4,2.786-2.1,0-2.248-1.418-2.248-2.786V588h1.124Zm1.124,4.277c.9,0,1.124-1.2,1.124-2.322,0-.9-.22-2.175-1.124-2.175s-1.124,1.124-1.124,2.175c.073,1.344.22,2.248,1.124,2.322" transform="translate(-96.395 -205.977)" fill="#706259"/>
    <path id="Path_803" data-name="Path 803" d="M253.773,594.616h0a1.43,1.43,0,0,1-1.344.978c-1.491,0-2.029-1.271-2.029-2.786s.611-2.786,2.029-2.786a1.379,1.379,0,0,1,1.344.831h0V587.7H254.9v7.821h-1.124Zm-1.051.293c.9,0,1.051-1.2,1.051-2.1s-.073-2.175-1.051-2.175-1.051,1.2-1.051,2.175c-.024.978.147,2.1,1.051,2.1" transform="translate(-113.85 -205.751)" fill="#706259"/>
    <path id="Path_804" data-name="Path 804" d="M279.426,601.857h0a2.166,2.166,0,0,1-1.882,1.417,1.4,1.4,0,0,1-1.344-1.417V597.8h1.124v3.3c0,.684.073,1.271.684,1.271,1.124,0,1.417-1.735,1.417-2.4V597.8h1.124v5.328h-1.124Z" transform="translate(-133.344 -213.382)" fill="#706259"/>
    <rect id="Rectangle_5617" data-name="Rectangle 5617" width="1.124" height="7.747" transform="translate(149.014 382.023)" fill="#706259"/>
    <rect id="Rectangle_5618" data-name="Rectangle 5618" width="1.124" height="7.747" transform="translate(151.923 382.023)" fill="#706259"/>
    <path id="Path_805" data-name="Path 805" d="M327.182,602.168h0a1.771,1.771,0,0,1-1.491.9A1.342,1.342,0,0,1,324.2,601.8v-.073c0-1.662,2.248-1.735,3.006-1.735v-.44c0-.611,0-1.589-.758-1.589s-.831.538-.831,1.2H324.4c.073-.831.367-1.662,2.028-1.662s1.882.978,1.882,2.029V602.9h-1.124Zm0-1.735c-.44,0-1.735.147-1.735,1.124a.771.771,0,0,0,.684.831,1.234,1.234,0,0,0,1.124-1.271v-.684Z" transform="translate(-169.613 -213.156)" fill="#706259"/>
    <path id="Path_806" data-name="Path 806" d="M347.8,588h1.124v3.69h0a1.988,1.988,0,0,1,1.882-1.344,1.4,1.4,0,0,1,1.344,1.417v3.984h-1.124v-3.3c0-.684-.073-1.271-.684-1.271-1.124,0-1.417,1.735-1.417,2.4v2.175H347.8Z" transform="translate(-187.446 -205.977)" fill="#706259"/>
    <path id="Path_807" data-name="Path 807" d="M391.079,592.961c0,1.418-.22,2.859-2.639,2.859s-2.639-1.417-2.639-2.859V588H387v4.961c0,1.2.073,2.175,1.344,2.175s1.344-.978,1.344-2.175V588h1.2v4.961Z" transform="translate(-216.158 -205.977)" fill="#706259"/>
    <path id="Path_808" data-name="Path 808" d="M414.5,597.573h1.124v1.271h0a1.988,1.988,0,0,1,1.882-1.344,1.4,1.4,0,0,1,1.344,1.417V602.9h-1.124v-3.3c0-.684-.073-1.271-.684-1.271-1.124,0-1.417,1.735-1.417,2.4V602.9H414.5Z" transform="translate(-237.844 -213.156)" fill="#706259"/>
    <path id="Path_809" data-name="Path 809" d="M439.473,595.747H440.6v-5.328h-1.124Zm-.073-6.623h1.2V588h-1.2Z" transform="translate(-256.659 -205.977)" fill="#706259"/>
    <path id="Path_810" data-name="Path 810" d="M448.3,597.8h1.2l1.344,3.837h.1l1.271-3.837h.978l-1.882,5.352h-.978Z" transform="translate(-263.384 -213.382)" fill="#706259"/>
    <path id="Path_811" data-name="Path 811" d="M474.828,602.679a4.061,4.061,0,0,1-1.589.293c-1.491,0-2.639-.9-2.639-3.006,0-1.491.611-2.566,2.248-2.566,1.662,0,2.028,1.124,2.028,2.175h-3.153c0,1.051.44,2.786,2.1,2.786a2.7,2.7,0,0,0,1.051-.22Zm-.953-3.593c0-.44-.147-1.2-.978-1.2s-1.051.9-1.051,1.2Z" transform="translate(-280.234 -213.08)" fill="#706259"/>
    <path id="Path_812" data-name="Path 812" d="M493.8,597.347h1.124v1.344h0c.367-.684.758-1.417,1.735-1.491v1.2c-1.051.073-1.735.367-1.735,1.809v2.468H493.8Z" transform="translate(-297.764 -212.929)" fill="#706259"/>
    <path id="Path_813" data-name="Path 813" d="M511.353,599.153a2.2,2.2,0,0,0-1.344-.538c-.367,0-.758.147-.758.611,0,.978,2.4,1.051,2.4,2.786,0,1.124-.9,1.662-2.028,1.662a4.759,4.759,0,0,1-1.418-.22V602.4a3.783,3.783,0,0,0,1.491.611c.684,0,.9-.293.9-.684,0-.9-2.4-1.124-2.4-2.639,0-.831.538-1.491,1.882-1.491a3.863,3.863,0,0,1,1.271.22Z" transform="translate(-308.644 -213.685)" fill="#706259"/>
    <path id="Path_814" data-name="Path 814" d="M527.6,595.747h1.124v-5.328H527.6Zm0-6.623h1.2V588h-1.2Z" transform="translate(-323.303 -205.977)" fill="#706259"/>
    <path id="Path_815" data-name="Path 815" d="M541.25,597.256a2.659,2.659,0,0,1-.758.073c-1.051,0-1.662-.293-1.662-1.344v-3.519H538v-.611h.831v-1.271l1.124-.684v1.955h1.491v.611h-1.491v3.079c0,.758.073,1.2.831,1.2a1.426,1.426,0,0,0,.538-.073Z" transform="translate(-331.161 -207.413)" fill="#706259"/>
    <path id="Path_816" data-name="Path 816" d="M554.828,603.226,552.8,597.8H554l1.369,3.837h.073l1.2-3.837h1.124l-2.786,7.747h-.9Z" transform="translate(-342.344 -213.382)" fill="#706259"/>
    <path id="Path_817" data-name="Path 817" d="M583.9,600.286c0-1.809.758-2.786,2.322-2.786s2.322.978,2.322,2.786-.831,2.786-2.322,2.786-2.322-.978-2.322-2.786m2.322,2.248c1.051,0,1.124-1.344,1.124-2.322s-.147-2.322-1.124-2.322-1.124,1.344-1.124,2.322.147,2.322,1.124,2.322" transform="translate(-365.843 -213.156)" fill="#706259"/>
    <path id="Path_818" data-name="Path 818" d="M607.5,590.477h-.9v-.611h.9v-.538c0-.978.22-2.029,2.028-2.029a5.906,5.906,0,0,1,1.124.147v.758a2.365,2.365,0,0,0-.978-.22c-.9,0-1.051.684-1.051,1.2v.611h1.491v.611h-1.491v4.815H607.5Z" transform="translate(-382.996 -205.449)" fill="#706259"/>
    <path id="Path_819" data-name="Path 819" d="M173.855,643.071a4.576,4.576,0,0,0-1.882-.538c-.684,0-1.124.367-1.124.978,0,1.662,3.69,1.589,3.69,3.984,0,1.662-1.271,2.248-2.786,2.248a5.746,5.746,0,0,1-1.955-.293v-1.2a5.8,5.8,0,0,0,2.175.684c.831,0,1.418-.293,1.418-1.124,0-1.809-3.69-1.662-3.69-4.057,0-1.271.9-1.955,2.566-1.955a7.626,7.626,0,0,1,1.809.22Z" transform="translate(-52.873 -246.629)" fill="#706259"/>
    <path id="Path_820" data-name="Path 820" d="M196.03,656.952a4.759,4.759,0,0,1-1.418.22c-1.662,0-2.713-.978-2.713-3.006,0-1.589.758-2.566,2.248-2.566s1.882.758,1.882,1.882h-1.2c0-.611-.073-1.344-.758-1.344s-.978.758-.978,1.735c0,1.271.538,2.786,1.882,2.786a2.364,2.364,0,0,0,.978-.22Z" transform="translate(-69.647 -254.034)" fill="#706259"/>
    <path id="Path_821" data-name="Path 821" d="M213.8,650.147h1.124V644.82H213.8Zm-.1-6.623h1.2V642.4h-1.2Z" transform="translate(-86.119 -247.082)" fill="#706259"/>
    <path id="Path_822" data-name="Path 822" d="M228.628,657.179a4.06,4.06,0,0,1-1.589.293c-1.491,0-2.639-.9-2.639-3.006,0-1.491.611-2.566,2.248-2.566s2.029,1.124,2.029,2.175h-3.226c0,1.051.44,2.786,2.1,2.786a2.7,2.7,0,0,0,1.051-.22v.538Zm-1.051-3.617c0-.44-.147-1.2-.978-1.2s-1.051.9-1.051,1.2Z" transform="translate(-94.204 -254.26)" fill="#706259"/>
    <path id="Path_823" data-name="Path 823" d="M247.2,651.973h1.124v1.271h0a1.988,1.988,0,0,1,1.882-1.344,1.4,1.4,0,0,1,1.344,1.418v4.057h-1.124v-3.3c0-.684-.073-1.271-.684-1.271-1.124,0-1.417,1.735-1.417,2.4v2.175H247.2Z" transform="translate(-111.432 -254.26)" fill="#706259"/>
    <path id="Path_824" data-name="Path 824" d="M274.73,656.952a4.418,4.418,0,0,1-1.417.22c-1.662,0-2.713-.978-2.713-3.006,0-1.589.758-2.566,2.248-2.566s1.882.758,1.882,1.882h-1.2c0-.611-.073-1.344-.758-1.344s-.978.758-.978,1.735c0,1.271.538,2.786,1.955,2.786a2.364,2.364,0,0,0,.978-.22Z" transform="translate(-129.113 -254.034)" fill="#706259"/>
    <path id="Path_825" data-name="Path 825" d="M294.728,657.179a4.061,4.061,0,0,1-1.589.293c-1.491,0-2.639-.9-2.639-3.006,0-1.491.611-2.566,2.248-2.566s2.029,1.124,2.029,2.175h-3.153c0,1.051.44,2.786,2.1,2.786a2.13,2.13,0,0,0,.978-.22v.538Zm-.978-3.617c0-.44-.147-1.2-.978-1.2s-1.051.9-1.051,1.2Z" transform="translate(-144.149 -254.26)" fill="#706259"/>
    <path id="Path_826" data-name="Path 826" d="M328.608,656.341h0a1.7,1.7,0,0,1-1.491.831A1.3,1.3,0,0,1,325.7,655.9v-.073c0-1.662,2.248-1.735,3.006-1.735v-.44c0-.611,0-1.589-.758-1.589s-.831.538-.9,1.2h-1.2c.073-.831.367-1.662,2.029-1.662s1.882.978,1.882,2.028v3.446h-1.124v-.733Zm0-1.735c-.44,0-1.735.147-1.735,1.124,0,.538.293.831.684.831a1.126,1.126,0,0,0,1.051-1.271Z" transform="translate(-170.747 -254.034)" fill="#706259"/>
    <path id="Path_827" data-name="Path 827" d="M349.3,651.973h1.124v1.271h0a1.988,1.988,0,0,1,1.882-1.344,1.4,1.4,0,0,1,1.344,1.418v4.057h-1.124v-3.3c0-.684-.073-1.271-.684-1.271-1.124,0-1.417,1.735-1.417,2.4v2.175H349.3Z" transform="translate(-188.579 -254.26)" fill="#706259"/>
    <path id="Path_828" data-name="Path 828" d="M376.373,649.543h0a1.43,1.43,0,0,1-1.344.978c-1.491,0-2.029-1.271-2.029-2.786,0-1.491.611-2.786,2.029-2.786a1.342,1.342,0,0,1,1.344.9h0V642.7H377.5v7.747h-1.124Zm-1.124.22c.9,0,1.051-1.2,1.051-2.1s-.073-2.1-1.051-2.1-1.051,1.2-1.051,2.1.147,2.1,1.051,2.1" transform="translate(-206.487 -247.309)" fill="#706259"/>
    <path id="Path_829" data-name="Path 829" d="M409.882,643.158H408V642.4h4.961v.758h-1.882v6.99h-1.2Z" transform="translate(-232.933 -247.082)" fill="#706259"/>
    <path id="Path_830" data-name="Path 830" d="M433.028,657.179a4.061,4.061,0,0,1-1.589.293c-1.491,0-2.639-.9-2.639-3.006,0-1.491.611-2.566,2.248-2.566s2.029,1.124,2.029,2.175h-3.153c0,1.051.44,2.786,2.1,2.786a2.7,2.7,0,0,0,1.051-.22Zm-1.051-3.617c0-.44-.147-1.2-.978-1.2s-1.051.9-1.051,1.2Z" transform="translate(-248.649 -254.26)" fill="#706259"/>
    <path id="Path_831" data-name="Path 831" d="M454.23,656.952a4.418,4.418,0,0,1-1.417.22c-1.662,0-2.713-.978-2.713-3.006,0-1.589.758-2.566,2.248-2.566s1.955.758,1.955,1.882h-1.2c0-.611-.073-1.344-.758-1.344s-.978.758-.978,1.735c0,1.271.538,2.786,1.955,2.786a2.365,2.365,0,0,0,.978-.22Z" transform="translate(-264.744 -254.034)" fill="#706259"/>
    <path id="Path_832" data-name="Path 832" d="M471.7,642.4h1.124v3.69h0a1.988,1.988,0,0,1,1.882-1.344,1.4,1.4,0,0,1,1.344,1.417v4.057h-1.124v-3.3c0-.684-.073-1.271-.684-1.271-1.124,0-1.417,1.735-1.417,2.4v2.175H471.7Z" transform="translate(-281.065 -247.082)" fill="#706259"/>
    <path id="Path_833" data-name="Path 833" d="M496.9,651.973h1.124v1.271h0a1.988,1.988,0,0,1,1.882-1.344,1.4,1.4,0,0,1,1.344,1.418v4.057h-1.124v-3.3c0-.684-.073-1.271-.684-1.271-1.124,0-1.418,1.735-1.418,2.4v2.175H496.9Z" transform="translate(-300.106 -254.26)" fill="#706259"/>
    <path id="Path_834" data-name="Path 834" d="M520.2,654.686c0-1.809.758-2.786,2.322-2.786s2.322.978,2.322,2.786-.831,2.786-2.322,2.786-2.322-.978-2.322-2.786m2.346,2.322c1.051,0,1.124-1.344,1.124-2.322s-.147-2.322-1.124-2.322-1.124,1.344-1.124,2.322c-.024.978.147,2.322,1.124,2.322" transform="translate(-317.712 -254.26)" fill="#706259"/>
    <rect id="Rectangle_5619" data-name="Rectangle 5619" width="1.124" height="7.747" transform="translate(208.574 395.318)" fill="#706259"/>
    <path id="Path_835" data-name="Path 835" d="M555.9,654.686c0-1.809.758-2.786,2.322-2.786s2.322.978,2.322,2.786-.831,2.786-2.322,2.786-2.322-.978-2.322-2.786m2.322,2.322c.978,0,1.124-1.344,1.124-2.322s-.147-2.322-1.124-2.322-1.124,1.344-1.124,2.322.073,2.322,1.124,2.322" transform="translate(-344.687 -254.26)" fill="#706259"/>
    <path id="Path_836" data-name="Path 836" d="M583.8,657.179c0,1.491-.44,2.713-2.639,2.713a5.122,5.122,0,0,1-1.491-.22v-1.149a3.925,3.925,0,0,0,1.735.684c1.2,0,1.344-.831,1.344-2.029v-.611h0a1.4,1.4,0,0,1-1.418.758c-1.417,0-2.029-1.124-2.029-2.713s.44-2.713,2.029-2.713a1.5,1.5,0,0,1,1.418.978h0v-.9h1.124v5.181H583.8Zm-2.248-.464c.978,0,1.051-1.124,1.051-2.029s-.147-2.1-1.051-2.1-1.051,1.124-1.051,2.028.147,2.1,1.051,2.1" transform="translate(-362.368 -254.26)" fill="#706259"/>
    <path id="Path_837" data-name="Path 837" d="M603.429,657.626,601.4,652.2h1.2l1.344,3.837h.073l1.222-3.837h1.124l-2.786,7.747h-.9Z" transform="translate(-379.067 -254.487)" fill="#706259"/>
    <path id="Path_838" data-name="Path 838" d="M803.229,449.492a9.133,9.133,0,0,0,1.491-5.475,11.7,11.7,0,0,0-.538-3.617,5.516,5.516,0,0,0-1.882,4.13,19.386,19.386,0,0,0,.929,4.961" transform="translate(-530.867 -94.45)" fill="#f08f21"/>
    <path id="Path_839" data-name="Path 839" d="M849.479,425.1a31.742,31.742,0,0,1,.538,5.866c0,7.283-1.418,12.464-3.617,16.228a5.8,5.8,0,0,0,1.124.073c10.216,0,12.391-9.458,12.391-13.588,0-6.7-6.77-8.432-10.436-8.578" transform="translate(-564.189 -82.89)" fill="#f08f21"/>
    <path id="Path_840" data-name="Path 840" d="M810.175,438.348A10.15,10.15,0,0,1,808,444.971a19.905,19.905,0,0,0,1.417,2.786c2.029-2.322,3.006-5.646,3.006-9.923a15.757,15.757,0,0,0-.831-5.035,12.341,12.341,0,0,0-2.1,1.271,13.409,13.409,0,0,1,.684,4.277" transform="translate(-535.174 -88.708)" fill="#f08f21"/>
    <path id="Path_841" data-name="Path 841" d="M820.419,434.132c0,5.255-1.417,8.725-3.519,10.973a15.215,15.215,0,0,0,1.882,1.882c2.248-2.859,3.764-7.063,3.764-13.369a20.543,20.543,0,0,0-.758-5.719c-.758.22-1.491.44-2.175.684a17.126,17.126,0,0,1,.807,5.548" transform="translate(-541.899 -85.005)" fill="#f08f21"/>
    <path id="Path_842" data-name="Path 842" d="M833.857,431.4c0,6.77-1.662,11.267-4.057,14.346a8.26,8.26,0,0,0,2.175.978c2.175-3.519,3.617-8.652,3.617-15.861a29.868,29.868,0,0,0-.611-5.866c-.611.073-1.271.147-2.028.293a20.549,20.549,0,0,1,.9,6.11" transform="translate(-551.646 -82.814)" fill="#f08f21"/>
    <path id="Path_843" data-name="Path 843" d="M728.722,380.566a17.009,17.009,0,0,1,13.3,5.719,19.379,19.379,0,0,0,1.589-2.639A15.347,15.347,0,0,0,731.142,378a42.964,42.964,0,0,0-13.442,2.566,4.473,4.473,0,0,0,.611,1.735,32.759,32.759,0,0,1,10.411-1.735" transform="translate(-466.943 -47.301)" fill="#edb51d"/>
    <path id="Path_844" data-name="Path 844" d="M749.026,328.915c-.367-5.108-3.079-13.515-12.464-13.515-7.283,0-11.633,6.843-13.662,12.1a50.829,50.829,0,0,1,14.493-2.4,17.517,17.517,0,0,1,11.633,3.813" transform="translate(-470.872)" fill="#edb51d"/>
    <path id="Path_845" data-name="Path 845" d="M724.311,397.1a25.483,25.483,0,0,1,5.792-.611c3.153,0,9.238.611,12.782,4.424a11.524,11.524,0,0,0,2.029-1.735c-2.713-3.373-7.136-5.475-12.464-5.475a31.817,31.817,0,0,0-9.849,1.589,11.988,11.988,0,0,0,1.711,1.809" transform="translate(-470.646 -59.164)" fill="#edb51d"/>
    <path id="Path_846" data-name="Path 846" d="M750.8,413.31c-3.3-3.373-8.872-3.91-11.731-3.91a32.515,32.515,0,0,0-4.668.367c3.617,2.639,8.8,4.5,12.171,4.5a7.607,7.607,0,0,0,4.228-.953" transform="translate(-479.562 -71.027)" fill="#edb51d"/>
    <path id="Path_847" data-name="Path 847" d="M731.344,364.724c5.866,0,10.216,2.248,13.149,5.646a18.172,18.172,0,0,0,.831-3.446c-2.566-2.639-6.305-4.424-11.633-4.424a52.2,52.2,0,0,0-15.25,2.786c-.147.611-.293,1.271-.44,1.882a41.187,41.187,0,0,1,13.344-2.444" transform="translate(-467.17 -35.589)" fill="#edb51d"/>
    <path id="Path_848" data-name="Path 848" d="M668.322,397.436c0-4.277,2.713-7.356,6.452-9.6a5.408,5.408,0,0,0-1.735-.831c-3.519,2.248-5.939,5.328-5.939,9.238a27.69,27.69,0,0,0,3.617,12.391,3.065,3.065,0,0,0,1.124-.22c-2.248-3.837-3.519-7.894-3.519-10.973" transform="translate(-428.71 -54.101)" fill="#cacb2b"/>
    <path id="Path_849" data-name="Path 849" d="M680.017,404.9c0-3.69,2.4-6.305,5.646-8.114a6.042,6.042,0,0,0-.978-1.491c-3.519,1.955-6.085,4.668-6.085,8.481,0,2.933,1.2,6.7,3.3,10.362a5.727,5.727,0,0,0,.978-.9,18.311,18.311,0,0,1-2.859-8.334" transform="translate(-437.399 -60.373)" fill="#cacb2b"/>
    <path id="Path_850" data-name="Path 850" d="M635.586,384.573a8.263,8.263,0,0,0-1.344-.073c-4.277,0-13.442,3.519-13.442,10.069,0,6.99,7.747,11.267,12.782,12.1a29.667,29.667,0,0,1-3.373-12.318c.049-4.057,2.151-7.283,5.377-9.776" transform="translate(-393.725 -52.212)" fill="#cacb2b"/>
    <path id="Path_851" data-name="Path 851" d="M691.262,414.114a7.01,7.01,0,0,1,3.519-5.939,7.121,7.121,0,0,0-.367-2.175c-2.859,1.589-4.815,3.837-4.815,6.916a15.971,15.971,0,0,0,2.322,7.283,13.336,13.336,0,0,0,.758-1.417,10.2,10.2,0,0,1-1.417-4.668" transform="translate(-445.711 -68.458)" fill="#cacb2b"/>
    <path id="Path_852" data-name="Path 852" d="M701,424.995a8.445,8.445,0,0,0,.9,3.373,29.566,29.566,0,0,0,1.589-7.967A5.543,5.543,0,0,0,701,424.995" transform="translate(-454.325 -79.338)" fill="#cacb2b"/>
    <path id="Path_853" data-name="Path 853" d="M724.253,481.135a18.335,18.335,0,0,1-12.391-5.035,9.341,9.341,0,0,0-1.662.758c3.519,4.13,8.725,7.5,14.957,7.5a15.779,15.779,0,0,0,7.5-1.589,9.346,9.346,0,0,0-1.589-2.859,17.426,17.426,0,0,1-6.819,1.222" transform="translate(-461.276 -121.425)" fill="#08a5a9"/>
    <path id="Path_854" data-name="Path 854" d="M675.019,496.1c-2.175,2.175-3.519,4.595-3.519,7.063,0,9.458,14.737,14.81,20.432,14.81,6.77,0,9.922-4.277,11.267-8.8a25.538,25.538,0,0,1-5.792.684c-9.458-.1-17.279-6.33-22.387-13.76" transform="translate(-432.034 -136.537)" fill="#08a5a9"/>
    <path id="Path_855" data-name="Path 855" d="M727.465,470a17.054,17.054,0,0,0-5.865,1.051,16.887,16.887,0,0,0,11.267,4.35,15.8,15.8,0,0,0,5.939-.978c-3.617-3.69-9.238-4.424-11.34-4.424" transform="translate(-469.89 -116.816)" fill="#08a5a9"/>
    <path id="Path_856" data-name="Path 856" d="M717.452,489.787c-6.7,0-12.318-3.764-16.081-8.187a8.7,8.7,0,0,0-1.271.758c4.13,5.646,10.509,10.362,18.11,10.362a17.892,17.892,0,0,0,7.43-1.418,14.157,14.157,0,0,0-.367-3.079,18.423,18.423,0,0,1-7.821,1.564" transform="translate(-453.645 -125.581)" fill="#08a5a9"/>
    <path id="Path_857" data-name="Path 857" d="M711.385,499.22c-8.114,0-14.957-5.108-19.381-11.12-.293.22-.611.538-.9.758,4.815,7.063,12.171,13,21.116,13a21.6,21.6,0,0,0,6.232-.9,23.065,23.065,0,0,0,.367-3.153,19.6,19.6,0,0,1-7.43,1.418" transform="translate(-446.844 -130.493)" fill="#08a5a9"/>
  </g>
</svg>
