<svg id="Group_2" data-name="Group 2" xmlns="http://www.w3.org/2000/svg" xmlns:xlink="http://www.w3.org/1999/xlink" width="127.999" height="33.719" viewBox="0 0 127.999 33.719">
  <defs>
    <clipPath id="clip-path">
      <rect id="Rectangle_5229" data-name="Rectangle 5229" width="127.999" height="33.719" fill="none"/>
    </clipPath>
  </defs>
  <g id="Group_1" data-name="Group 1" clip-path="url(#clip-path)">
    <path id="Path_1" data-name="Path 1" d="M62.422,4.763a4.763,4.763,0,1,0-4.763,4.763,4.763,4.763,0,0,0,4.763-4.763" transform="translate(-40.009)" fill="#f9ae40"/>
    <path id="Path_2" data-name="Path 2" d="M41.222,19.715a14.852,14.852,0,0,1-8.578,13.449A14.81,14.81,0,0,0,16.711,30.95a14.8,14.8,0,0,1-5.159-11.235h6.191a8.644,8.644,0,1,0,17.288,0Z" transform="translate(-8.738 -14.912)" fill="#57cefb"/>
    <path id="Path_3" data-name="Path 3" d="M28.434,83.511,22.5,81.744A8.644,8.644,0,0,0,5.933,76.808L0,75.041a14.8,14.8,0,0,1,7.974-9.21,14.808,14.808,0,0,0,15.933,2.214,14.847,14.847,0,0,1,4.528,15.467" transform="translate(0 -49.792)" fill="#006cf2"/>
    <g id="Group_3" data-name="Group 3" transform="translate(40.53 5.465)">
      <path id="Path_4" data-name="Path 4" d="M368.843,98.111a1.617,1.617,0,0,0-1.615,2.034,2.656,2.656,0,0,0,2.478,2.059,1.624,1.624,0,0,0,1.642-2.059,2.7,2.7,0,0,0-2.5-2.034" transform="translate(-318.256 -79.673)" fill="#07253f"/>
      <path id="Path_5" data-name="Path 5" d="M368.492,53.261h-1.481l-.015,0h5.082l-1.048-4.887-.463-2.151-.01-.044h-3.625l.015.066Z" transform="translate(-318.066 -40.395)" fill="#07253f"/>
      <path id="Path_6" data-name="Path 6" d="M390.36,98.111a1.616,1.616,0,0,0-1.615,2.034,2.656,2.656,0,0,0,2.478,2.059,1.624,1.624,0,0,0,1.642-2.059,2.7,2.7,0,0,0-2.5-2.034" transform="translate(-334.531 -79.673)" fill="#07253f"/>
      <path id="Path_7" data-name="Path 7" d="M404.627,26.524a1.619,1.619,0,0,0,1.618-2.061,2.7,2.7,0,0,0-2.5-2.032,1.616,1.616,0,0,0-1.618,2.032,2.663,2.663,0,0,0,2.5,2.061" transform="translate(-344.651 -22.431)" fill="#07253f"/>
      <path id="Path_8" data-name="Path 8" d="M253.718,44.138l-.054-.314a8.209,8.209,0,0,0-7.8-6.52h-6.5l1.415,6.639.02.093.56,2.522-.967,0h0c-.037,0-.073,0-.112,0h-6.839l-.017-.012-2.734,0-1.525-7.041h-3.6l1.252,7.039-.6,0H226.2a.1.1,0,0,1-.027,0h-.446l-.022,0h-1.389l-.007-.007h-11.8l-35.01.012h-4.941l-1.6-7.051h-3.5l2.1,9.87c.522,2.373-.967,3.155-3.208,3.6l2.034,3.416c3.52-.677,5.321-2.79,4.878-6.181l-.078-.573a7.229,7.229,0,0,0,1.114.4l46.928.09c-.312-.855-.6-1.635-.816-2.183,0,.007.049.041.054.046.48.409.965.821,1.44,1.233.239.207.47.429.724.616a1.656,1.656,0,0,0,.957.3l.324,0-.007.015h7.543L230.678,48l1.879,1.642a2.109,2.109,0,0,0,1.388.521h7.1c1.3,0,4.115,0,2.643-2.663,1.279.989,3.3,2.663,4.919,2.663a4.954,4.954,0,0,0,5.114-6.025m-5.869,2.424a3.479,3.479,0,0,1-3.418-2.5l-.677-3.155h2.765a3.588,3.588,0,0,1,3.52,2.765l.078.287a2.207,2.207,0,0,1-2.268,2.607" transform="translate(-166.357 -33.68)" fill="#07253f"/>
    </g>
  </g>
</svg>
