<svg xmlns="http://www.w3.org/2000/svg" width="38.534" height="40" viewBox="0 0 38.534 40">
  <g id="Group_5" data-name="Group 5" transform="translate(-662.602 -731)">
    <path id="Path_9" data-name="Path 9" d="M64.2,5.651A5.65,5.65,0,1,0,58.546,11.3,5.65,5.65,0,0,0,64.2,5.651" transform="translate(624.993 731)" fill="#d1dbf0"/>
    <path id="Path_10" data-name="Path 10" d="M46.749,19.715A17.619,17.619,0,0,1,36.573,35.669a17.569,17.569,0,0,0-18.9-2.626,17.563,17.563,0,0,1-6.12-13.328H18.9a10.254,10.254,0,1,0,20.508,0Z" transform="translate(654.387 716.983)" fill="#d1dbf0"/>
    <path id="Path_11" data-name="Path 11" d="M33.731,86.8l-7.039-2.1A10.254,10.254,0,0,0,7.038,78.853L0,76.756A17.551,17.551,0,0,1,9.459,65.831a17.566,17.566,0,0,0,18.9,2.626A17.613,17.613,0,0,1,33.731,86.8" transform="translate(662.602 684.195)" fill="#d1dbf0"/>
  </g>
</svg>
