<svg xmlns="http://www.w3.org/2000/svg" width="32" height="32" viewBox="0 0 32 32">
  <g id="mask" transform="translate(-294 -3428)">
    <rect id="Rectangle_6186" data-name="Rectangle 6186" width="32" height="32" transform="translate(294 3428)" fill="#006cf2" opacity="0"/>
    <path id="mask-2" data-name="mask" d="M28.8,2.233A2.019,2.019,0,0,0,27.378,1.7H1.956a2.179,2.179,0,0,0-1.422.533h0A2.179,2.179,0,0,0,0,3.656V25.167a2.179,2.179,0,0,0,.533,1.422,2.019,2.019,0,0,0,1.422.533H27.378a2.179,2.179,0,0,0,1.422-.533,2.019,2.019,0,0,0,.533-1.422V3.656A2.179,2.179,0,0,0,28.8,2.233ZM20.356,16.722a4.813,4.813,0,0,1-1.333,1.956,7.6,7.6,0,0,1-1.956,1.333,6.677,6.677,0,0,1-2.311.444A6.16,6.16,0,0,1,10.4,9.967a6.04,6.04,0,0,1,4.356-1.778,6.677,6.677,0,0,1,2.311.444,4.813,4.813,0,0,1,1.956,1.333,7.6,7.6,0,0,1,1.333,1.956,6.677,6.677,0,0,1,.444,2.311A7.712,7.712,0,0,1,20.356,16.722Z" transform="translate(295.333 3428.967)" fill="#006cf2"/>
  </g>
</svg>
