<svg xmlns="http://www.w3.org/2000/svg" width="32" height="32" viewBox="0 0 32 32">
  <g id="mute-sounds" transform="translate(-294 -3296)">
    <rect id="Rectangle_6182" data-name="Rectangle 6182" width="32" height="32" transform="translate(294 3296)" fill="#006cf2" opacity="0"/>
    <path id="icon_content-9" d="M23.3,4.313a1.331,1.331,0,0,0-1.344.244L14.26,11.4a1.568,1.568,0,0,1-1.221.489H7.053a2.77,2.77,0,0,0-2.2.855A3.511,3.511,0,0,0,4,14.939v7.328A2.853,2.853,0,0,0,7.053,25.2h5.863a2.17,2.17,0,0,1,1.221.489l7.695,6.84a1.319,1.319,0,0,0,.855.366.734.734,0,0,0,.489-.122,1.068,1.068,0,0,0,.733-1.1V5.535A1.5,1.5,0,0,0,23.3,4.313ZM21.466,28.985l-5.618-5.008a3.869,3.869,0,0,0-2.809-1.1H7.053a.577.577,0,0,1-.611-.611V14.939a.734.734,0,0,1,.122-.489c.122,0,.366-.122.489-.122h5.985a4.076,4.076,0,0,0,2.809-1.1l5.618-5.008Zm14.168-5.863a1.181,1.181,0,0,1-1.71,0l-2.809-2.809-2.809,2.809a1.181,1.181,0,0,1-1.71,0,1.181,1.181,0,0,1,0-1.71L29.4,18.6,26.6,15.794a1.209,1.209,0,0,1,1.71-1.71l2.809,2.809,2.809-2.809a1.209,1.209,0,0,1,1.71,1.71L32.824,18.6l2.809,2.809A1.181,1.181,0,0,1,35.634,23.122Z" transform="translate(290 3293.433)" fill="#006cf2"/>
  </g>
</svg>
