<svg xmlns="http://www.w3.org/2000/svg" width="164" height="83.749" viewBox="0 0 164 83.749">
  <g id="Saudi2-01" transform="translate(-141.4 -317)">
    <path id="Path_1384" data-name="Path 1384" d="M506.735,487.357a1.727,1.727,0,0,1-.915.183c.046.617.091,1.486.114,1.578a1.207,1.207,0,0,1-.023.3h0l.023.023v.023c0,.023.023.046.023.069a4.834,4.834,0,0,1-.16,2.652c-.252.48-.366,1.715-.594,2.241-.274.64-.389.914-.5,1.12a15.076,15.076,0,0,0,2.241-2.744,11.519,11.519,0,0,0,1.555-3.567c.091-.389.274-1.555.366-2.332a9.151,9.151,0,0,1-1.943.389c-.091.046-.16.046-.183.069" transform="translate(-280.237 -131.055)" fill="#369646"/>
    <path id="Path_1385" data-name="Path 1385" d="M592.442,456.433v-.16a1.5,1.5,0,0,1,0-.32v-.526c.023-.091.046-.16.069-.252v-.091c.046-.114.091-.274.137-.412.091-.32.183-.64.3-.937a1.637,1.637,0,0,1,.114-.206c.069-.137.16-.252.229-.412v.091c.137-.251.251-.594.389-.8a4.1,4.1,0,0,1,.434-.457c.069-.069.137-.16.229-.252l-1.1.732c-.343.229-.686.5-.983.732-.114.023-.206.046-.32.069a11.724,11.724,0,0,0-1.486.823c-.069.069-.252,0-.274,0a10.968,10.968,0,0,0-1.875.549,4.412,4.412,0,0,0-.549.023,1.147,1.147,0,0,0-.274.046,1.4,1.4,0,0,0-.274.114.8.8,0,0,0-.549-.114v.137a2.861,2.861,0,0,0-.983-.16.417.417,0,0,0-.252.114.683.683,0,0,1-.091-.183,3,3,0,0,1-.869-.206,2.763,2.763,0,0,0-.412-.114,2.462,2.462,0,0,0-.434-.069.126.126,0,0,1-.046-.114c-.114-.023-.206-.137-.32-.137-.114-.023-.206.069-.32.023-.229-.091-.32-.3-.572-.389a1.7,1.7,0,0,1-.777-.5c-.16-.091-.32-.206-.48-.32l-.114-.069c-.343-.251-.709-.5-1.052-.732l-.137-.183h0a3.052,3.052,0,0,1-.663.526,6.174,6.174,0,0,0-.777.572c-.091.069-.16.183-.252.229-.183.091-.389.069-.571.183s-.274.343-.434.5a.652.652,0,0,1-.32.183c-.526.091-.983.16-1.509.252a.434.434,0,0,0-.389.3.43.43,0,0,1-.183.251,2.634,2.634,0,0,0,.48.526c.069.046.16.023.206.091.091.069.114.183.183.274l.229.412.183-.046c.023.023.069.046.091.069a3.963,3.963,0,0,1,.32.274,7.929,7.929,0,0,0,.663.572c.069.069.137.023.206.046.16.069.206.3.343.389a18.783,18.783,0,0,0,2.172.754c.137.16,1.44.64,1.6.8.434.206-1.189.206-.732.389a4.567,4.567,0,0,0,.869.343c.114.023.526.252.64.274s.366-.16.48-.114c.206.069.435.137.64.206a6.532,6.532,0,0,0,.64.16,3.459,3.459,0,0,0,.686.046c.114,0,1.326-.229,1.555-.274a6.544,6.544,0,0,0,.64-.16,1.846,1.846,0,0,1,.366-.023c.137,0,.251-.023.366-.023.183-.091.366-.206.549-.32a1.547,1.547,0,0,0,1.143-.5l.32-.069c.091-.137.183-.274.274-.389.046.023.068.046.114.046v.069a.08.08,0,0,0,.023.046c.206-.114.48-.48.64-.572s.137.023.274-.023a2.087,2.087,0,0,1,.183-.3c.069-.023.114.023.183,0a.877.877,0,0,0,.252-.183l.046-.046.023-.023.046-.046.091-.091c.023-.023.046-.069.069-.091.069-.091.091-.091.114-.137.046-.023.069-.046.114-.069a.351.351,0,0,0,.16-.229c.137-.069.114-.16,0-.251,0,0,0-.046.023-.046a1,1,0,0,1,.137.16.318.318,0,0,0,.069-.091v-.069c.046,0,.069-.023.069-.091" transform="translate(-334.232 -103.903)" fill="#369646"/>
    <path id="Path_1386" data-name="Path 1386" d="M542.241,429.8a6.972,6.972,0,0,1-1.3-1.029,2.486,2.486,0,0,0-.229-.251c-.274-.16-.5-.412-.8-.549l-.229-.274a3.318,3.318,0,0,1-.594-.389c-.091-.069-.183-.16-.3-.252l-.069-.069-.046-.023c-.023-.023-.046-.023-.046-.046-.069-.046-.16-.114-.229-.16-.023.046-.046.069-.069.114a.652.652,0,0,0-.892-.183.406.406,0,0,1-.229.091,3.319,3.319,0,0,0-1.235.434c-.343.183-.663.343-1.006.526-.091.046-.183.091-.183.229v.023c-.96.229-1.806.617-2.744.937a6.032,6.032,0,0,0-1.532.64c-.137.091-.274.229-.411.343h0v.046c.366.16,1.555-.366,2.012-.16.48.183,1.212-.091,1.463.046.526.3.846.16,1.235.412a.591.591,0,0,1,.206.206,2.158,2.158,0,0,0,.229.229.721.721,0,0,1,.137.114l.137.114.274.206a.9.9,0,0,0,.091.069l.091.046.16.114c.206.137.343.526.594.572,0,.069-.046.091.023.16a6.569,6.569,0,0,0,.617.5c.229-.137.48-.251.709-.411l4.138-2.195a.566.566,0,0,0,.023-.183" transform="translate(-299.83 -84.542)" fill="#369646"/>
    <path id="Path_1387" data-name="Path 1387" d="M486.951,433.6c.046-.023.091-.023.137-.046.251-.023.526-.069.777-.114l-.069-.343a18.384,18.384,0,0,0-.846-3.521c-.183-.411-.412-.8-.594-1.235-.274-.64-.755-.777-1.006-1.44-.16-.389-.229-.732-.64-.754-.251-.023-.434-.549-.617-.732a4.491,4.491,0,0,0-2.972-1.395c-.137-.023-.3.046-.412,0-.526-.229-.915.046-1.257.457.137.251.274.526.412.8a.928.928,0,0,1-.206.114c.023.046.023.069.046.091a.658.658,0,0,1-.48.595,8.719,8.719,0,0,0-.48,1.052,12.039,12.039,0,0,0-.457,1.372c-.069.206-.114.412-.183.64a17.366,17.366,0,0,0-.5,1.783,3.887,3.887,0,0,1,.366-.252c.434-.3.32-.434.8-.389.366.023.617-.16.914.023a7.3,7.3,0,0,1,1.715,1.28,8.266,8.266,0,0,1,1.509,2.492,4.961,4.961,0,0,0,.572-.023c.572-.023,1.189-.114,1.738-.183.937-.137,1.715-.3,1.738-.274" transform="translate(-259.333 -82.488)" fill="#369646"/>
    <path id="Path_1388" data-name="Path 1388" d="M369.964,451.543c-.046-.114-.137-.206-.183-.343a.581.581,0,0,1-.046-.434c0-.023.046-.046.069-.046s.046.023.069.023h.046c.023,0,.023,0,.023-.023s.023-.091.023-.114a.506.506,0,0,0-.183.023l-.023.023s0,.046-.023.046-.069-.023-.091,0a.08.08,0,0,1,.023.046c0,.023-.023.023-.046.023H369.6c-.069-.046-.16-.114-.16-.206,0-.023.046-.023.046-.046s-.046-.023-.046-.023c-.023.023-.046.046-.069.046-.023-.046-.069-.091-.091-.137h0l-.069.069a3.116,3.116,0,0,0-.274.274c-.229.229-.594.457-.823.686a2.187,2.187,0,0,1-.572.457c-.046.046-.366.229-.411.274s-.252.343-.3.366a7.7,7.7,0,0,0-.709.48c-.091.069-.16.16-.229.206-.046.023-.091.069-.091.091-.023.114-.183-.023-.251.046-.3.206-.526.366-.823.594a3.5,3.5,0,0,1-.869.663c-.069.023-.16.229-.206.274a.848.848,0,0,1-.412.183.855.855,0,0,0-.16.137c-.229.229-.457.274-.709.5-.023.023-.023.069-.069.091a1.391,1.391,0,0,0-.549.343,1.584,1.584,0,0,1-.434.229c-.183-.023-.229.046-.3.206-.251.137-.48.274-.709.412a3.106,3.106,0,0,0-.823.617c-.3.069-.412.251-.663.412-.091.046-.3.046-.366.114-.091,0-.16.16-.229.229-.16.114-.3.023-.366.229,0,.023-.046.046-.069.069a5.4,5.4,0,0,0-.754.5.546.546,0,0,1-.206.046c-.16,0-.183.137-.3.229-.069.069-.3.091-.389.137a2.235,2.235,0,0,0-.5.3,1.542,1.542,0,0,1-.252.16c-.16.046.091.114,0,.251l-.114.114c-.069-.091-.091-.16-.206-.091-.046.023-.206.023-.252.046-.16.091-.3.091-.412.251-.091,0-.114.114-.183.114a2.061,2.061,0,0,0-.114.206c-.046.069,0,.137-.091.137s-.206-.16-.343-.137c-.251.046-.48.252-.732.32a1.161,1.161,0,0,0-.366.206.565.565,0,0,1-.206.091c-.114.046-.137.114-.251.137h-.114a.022.022,0,0,1,.023.023c.046.023.069.069.046.046-.023.046-.16-.046-.206,0-.069-.046-.229.023-.32.069-.206.091-.389.023-.594.091-.091.023-.366,0-.434.091-.023.046-.023.023-.023,0h-.137c-.023,0-.069.046-.091.023-.137-.091-.091.046-.251-.046a1.07,1.07,0,0,0-.366-.046c-.16.046-.229.114-.32-.046a.382.382,0,0,1-.412-.16c-.114-.137-.32-.069-.412-.229-.069.023-.183-.137-.252-.091s-.046-.183-.183-.229c-.32-.48-.229-.206-.434-.663a5.738,5.738,0,0,1-.412-1.349c-.023.023-.069.069-.069.091,0,.183-.069.274-.069.457s.069.457.091.663c0,.091.023.206.023.3a3.31,3.31,0,0,0,.183,1.075,2.53,2.53,0,0,1,.069.366,3.067,3.067,0,0,0,.114.686c.137.411.229.617.343,1.006.069.206.137.389.183.572a1.454,1.454,0,0,0,.229.411,3.645,3.645,0,0,1,.343.48,1.409,1.409,0,0,0,.572.64c.046.023.069.069.114.091.137.069.274.183.412.252.069.023.114.023.16.091a.16.16,0,0,0,.206.091.951.951,0,0,1,.663.137c.069-.023.114-.023.183-.046.069,0,.229-.023.3-.023a.8.8,0,0,0,.457-.069c.023-.023.069-.023.114-.046a.917.917,0,0,1,.343.069,2.98,2.98,0,0,1,.594-.32c.137.069.251-.023.412-.023a.247.247,0,0,0,.16-.069.383.383,0,0,1,.343-.091c.023-.046.091-.16.137-.16a1.221,1.221,0,0,1,.572-.114h.046a1.215,1.215,0,0,0,.663-.64c0-.023,0-.046.046-.023s.046.091.046.137c0,.091.046.16.137.137.16-.069.3-.137.457-.206a8.483,8.483,0,0,0,1.212-.595c.023-.023.069-.023.114-.046a2.108,2.108,0,0,0,.229-.114,3.074,3.074,0,0,1,.5-.32c.16-.069.252-.16.412-.229a3.711,3.711,0,0,0,.389-.252.928.928,0,0,1,.206-.114,1.627,1.627,0,0,0,.343-.183,2.242,2.242,0,0,1,.5-.3,6.7,6.7,0,0,0,.823-.389c.412-.252.823-.526,1.235-.754a.945.945,0,0,0,.251-.16c.069-.069.114-.137.183-.206a2.062,2.062,0,0,1,.229-.206,2.493,2.493,0,0,0,.252-.137.983.983,0,0,0,.229-.206c.137-.137.274-.3.412-.457a2.737,2.737,0,0,1,.48-.389,3.067,3.067,0,0,0,.526-.3c.16-.114.32-.229.48-.366.3-.251.617-.526.937-.754a2.738,2.738,0,0,1,.48-.3.5.5,0,0,0,.114-.069l.023-.023c.023-.023.023-.023.046-.023l.046-.046c.023-.023.046-.091.091-.114.023-.023.091-.046.114-.069.046,0,.069-.046.091-.046l.023-.023a3.8,3.8,0,0,1,.3-.32c.114-.091.3-.251.412-.343.3-.251.549-.48.823-.755l.046-.046c.252-.3.5-.617.732-.937.114-.16.343-.411.457-.594a1.408,1.408,0,0,0,.274-.434,7.548,7.548,0,0,0,.412-.732c-.023-.046,0-.114,0-.16a.812.812,0,0,0,.046-.229,4.463,4.463,0,0,1,.069-.777c0-.046-.091-.092-.091-.16-.091-.274-.183-.572-.3-.869" transform="translate(-158.67 -102.9)" fill="#369646"/>
    <path id="Path_1389" data-name="Path 1389" d="M271.309,437.333c.069-.069.114-.137.183-.206l.046-.046.069-.069c.046-.046.091-.114.137-.16l.229-.183.114-.091.023-.023h0a3.042,3.042,0,0,0,.114-.434,2.3,2.3,0,0,0,0-.686c0-.069.023-.16.023-.251a.929.929,0,0,0,0-.251,8.012,8.012,0,0,0-.32-1.052,3.122,3.122,0,0,0-.091-.526c-.046-.069-.069-.114-.114-.183l-1.029.846a1.979,1.979,0,0,0-.32.3c-.046.069-.252.046-.252.046a8.308,8.308,0,0,0-1.623.823c-.091.023-.16.023-.229.046-.023,0-.091.023-.137.023a.325.325,0,0,0-.137.046,1.163,1.163,0,0,0-.5.251c-.183-.091-.389,0-.572.023l.023.114a2.281,2.281,0,0,0-.96.137c-.046.023-.183.091-.206.16-.046-.046-.091-.069-.137-.114-.549.16-1.143.023-1.669.206-.046-.023-.046-.023-.069-.091-.114.023-.229-.046-.32-.023s-.16.114-.274.114a.633.633,0,0,1-.3-.069.664.664,0,0,0-.32-.069,1.52,1.52,0,0,1-.823-.16,10.88,10.88,0,0,1-1.692-.457.5.5,0,0,1-.183-.114.551.551,0,0,0-.183-.137,12.173,12.173,0,0,1-1.3-.709c-.091-.069-.206-.16-.3-.229-.091-.091-.206-.183-.32-.3a2.465,2.465,0,0,0-.663-.457.2.2,0,0,1,0-.16,3.874,3.874,0,0,1-.937-1.075,2.485,2.485,0,0,0-.137-.251c-.206-.206-.32-.48-.526-.686l-.114-.274c-.3-.3-.709-1.052-.755-1.029a4.506,4.506,0,0,0-.549-.96,3.266,3.266,0,0,1-.183-.5l-.3-.412-.069-.091a.5.5,0,0,0-.091.114.206.206,0,0,0,.023.114c.023.046.069-.023.114.046a.461.461,0,0,1,.069.251v.069a2.633,2.633,0,0,0-.754-.389c-.023-.023-.046-.046-.046-.069a1.271,1.271,0,0,0-.183-.137.609.609,0,0,0-.617-.183,1.588,1.588,0,0,0-.3-.114,1.013,1.013,0,0,0-.777,0c-.251.091-.343.251-.5.48-.412.595-.937.937-1.418,1.509-.251.3-.526.617-.777.937a2.9,2.9,0,0,0,.5.3c.023.046,0,.046,0,.069s.023.046.069.114c.023.023.046.069.091.091a.317.317,0,0,0,.069.091c.023.046.046.069.069.114a1.259,1.259,0,0,0,.16.206c.114.137.229.274.343.389a.728.728,0,0,0,.069.206,4.72,4.72,0,0,0,.434.572,1.4,1.4,0,0,0,.3.686c.251.389.594.892.892,1.257a7.688,7.688,0,0,0,.549.846c.046.046.137.069.183.114.114.137.114.343.251.457.389.389.732.846,1.1,1.258.069.069.137.046.206.091.16.091.16.3.3.412.183.16.343.3.526.434s.389.274.572.389c.137.137.251.3.412.434.206.114.412.251.64.366s.434.229.663.32a7.637,7.637,0,0,0,1.3.5c.434.137.823.3,1.212.457a3.756,3.756,0,0,0,1.258.3c.114,0,.16-.091.252-.091.046-.252.229-.434.274-.663,0-.046-.069-.046-.069-.091v-.114h.069a.289.289,0,0,1,.137.023.562.562,0,0,0,.091.251c.069.046.046.137.137.183.069.046.229.023.274.046.091.069.206.023.206.069s-.091.091-.183.114a.668.668,0,0,1-.206.046c-.114.023-.206.069-.183.114.229,0,.457.023.663.023.229,0,.389-.046.617-.046.206,0,.48.023.686.046l.549-.206a1.417,1.417,0,0,0,1.12-.274l.3-.023c.091-.091.183-.206.274-.3.023.023.069.046.091.069,0,.046,0,.023-.023.069l.023.046c.183-.069.5-.32.64-.366.16-.046.137.046.251.023.069-.069.137-.16.206-.229.069,0,.114.046.183.046a1.21,1.21,0,0,0,.48-.251c.16-.091.366-.023.457-.206q.206-.034.069-.206s.023-.046.023-.023a.46.46,0,0,1,.091.183c.229-.137.48-.274.709-.434.069-.046.137-.023.206-.069.023-.023.046-.091.069-.114a1.451,1.451,0,0,0,.846-.526,2.621,2.621,0,0,0,.892-.549.631.631,0,0,0,.526-.274" transform="translate(-82.536 -85.283)" fill="#369646"/>
    <path id="Path_1390" data-name="Path 1390" d="M269.374,331.653c3.521-1.189,15.844-5.579,18.679-6.653l-.709,1.326c-2.812,1.12-14.564,5.373-18.245,6.585Z" transform="translate(-98.503 -6.171)" fill="#5ab947"/>
    <path id="Path_1391" data-name="Path 1391" d="M189.719,373.219c-.114-.114-.183-.389-.48-.32a1.155,1.155,0,0,1-.343-.046c.206-.183.366-.3.526-.434.16.069.343.137.526.206,0-.137-.023-.206-.091-.251-.252-.16-.5-.274-.755-.434-.274-.206-.549-.434-.823-.663-.137-.091-.3-.16-.412-.251-.457-.457-.937-.892-1.372-1.372a9.009,9.009,0,0,0-1.12-1.166,1.135,1.135,0,0,1-.5-.686,3.277,3.277,0,0,0-.5.091c-.046.023-.137.046-.16.091-.16.274-.32.572-.5.869a1.7,1.7,0,0,0-1.12.892,7.1,7.1,0,0,1-1.006,1.166.98.98,0,0,1-.755.069,2.713,2.713,0,0,0-1.3-.823c-.114-.023-.206-.183-.32-.274-.091-.069-.274-.183-.32-.16-.229.183-.389,0-.549-.091-.343-.206-.663-.457-1.006-.663-.183-.114-.251-.229-.206-.412-.206-.091-.389-.16-.594-.251a.55.55,0,0,0-.137.183,1.6,1.6,0,0,1-.663.686,4.582,4.582,0,0,0-.732.754,11.035,11.035,0,0,1-.823.983.812.812,0,0,0-.32.915,4.134,4.134,0,0,0,.96,1.578,8.526,8.526,0,0,0,2.035,1.578.789.789,0,0,1,.183.206c.046.069.091.16.137.183.32.091.617.137.8.48.023.046.114.046.183.046.412.091.823.229,1.189-.114.023-.023.091-.023.137-.046a5.408,5.408,0,0,0,1.235-.915c.434-.526.915-1.006,1.418-1.555a8.387,8.387,0,0,0,3.841,3.109c.046-.206.206-.251.412-.183a.424.424,0,0,0,.16.046c-.023.091-.046.16-.046.183.252.252.343-.114.5-.114a2.945,2.945,0,0,1,.572.137.174.174,0,0,1,.091-.046c-.206-.137-.229-.274-.114-.457a2.753,2.753,0,0,0,.183-.617c.046-.183.183-.251.412-.16.091.023.16.069.274.091.069-.206.137-.366.206-.549.183,0,.48.114.48-.206,0-.183.069-.206.137-.3.137-.137.251-.3.389-.434.114-.206.229-.411.091-.549" transform="translate(-24.998 -39.185)" fill="#5ab947"/>
    <path id="Path_1392" data-name="Path 1392" d="M287.641,502.182c-.252-.229-.48-.457-.732-.663a8.487,8.487,0,0,0-.732-.526c-.366-.206-.869-.732-1.486-1.12-.366-.229-1.006-.937-1.463-1.029a15.932,15.932,0,0,0-1.578,1.395,2.981,2.981,0,0,1-.892.709c-.389-.366-.937-.549-1.349-.915-.32-.274-.686-.526-1.029-.8a1.254,1.254,0,0,1-.366-.412c-.091-.251-.252-.183-.412-.069-.206.16-.412.32-.594.48a1.886,1.886,0,0,0-.457.594c-.137.274-.411.32-.594.5a5.7,5.7,0,0,0-.526.526,8.817,8.817,0,0,1-1.235,1.372c-.274.252-.32.457-.091.686a4.263,4.263,0,0,0,.686.594c.434.32.869.64,1.326.96a7.272,7.272,0,0,1,1.349,1.166,3.722,3.722,0,0,0,.434.389c.343-.3.686-.572,1.052-.869.023,0,.114.023.137.023.183-.183.32-.343.457-.5a2.017,2.017,0,0,0,.183-.229.476.476,0,0,1,.549-.252,2.177,2.177,0,0,1,.412.091c.5.229.709.686.96.755.434.114.732.617,1.235.549.069,0,.114.091.183.137.183.092.343.274.64.069a.44.44,0,0,1,.3,0,.611.611,0,0,0,.663-.252c.069-.091.183-.251.206-.229.252.069.046-.229.229-.274.251-.069.709-.686.8-.846.183-.3.3-.617.709-.663.023,0,.046-.023.069-.046a7.673,7.673,0,0,1,.549-.663,1.083,1.083,0,0,0,.412-.64m-1.189.869c-.252-.229.023-.48.023-.777.114.114.206.183.3.274-.274.206-.274.206-.32.5" transform="translate(-102.252 -140.119)" fill="#5ab947"/>
    <path id="Path_1393" data-name="Path 1393" d="M830.234,352.987c.069-.069.229-.137.229-.251,0-.457.251-.686.023-1.12a.1.1,0,0,1,0-.114,10.414,10.414,0,0,0-.046-1.463.481.481,0,0,0-.114-.3.315.315,0,0,1-.046-.389,1.051,1.051,0,0,0,.069-1.006,2.352,2.352,0,0,1-.137-1.052,1.613,1.613,0,0,0-.137-.64c-.069-.206-.137-.457-.229-.663-.137-.3-.343-.617-.206-.937a1.453,1.453,0,0,1-.023-1.075.645.645,0,0,0-.16-.754.218.218,0,0,1-.046-.16,2.4,2.4,0,0,0,.023-.572,1.39,1.39,0,0,0-.183-.617c-.183-.229-.023-.412-.16-.617a.489.489,0,0,1-.023-.526c.091-.206,0-.343-.16-.48a.434.434,0,0,1-.137-.48c.114-.594.206-1.1.3-1.692a.976.976,0,0,0-.046-.434,4.17,4.17,0,0,1-.32-.732,4.053,4.053,0,0,1,.046-.732,1.455,1.455,0,0,0-.137-.412,12.188,12.188,0,0,1-.252-1.258,6.2,6.2,0,0,0-.229-1.166,1.152,1.152,0,0,1-.114-.572c.366-.732-.206-.686-.023-1.463a3.54,3.54,0,0,0-.091-.709,1.57,1.57,0,0,1-.137-.709,7.735,7.735,0,0,0-.114-1.075c-.046-.32-.16-.754-.229-1.075.137.114.366.274.594.48.16.137.274.343.434.457a3.875,3.875,0,0,0,.663.457c.046.023.137-.114.251-.274.046-.069-.069-.229-.023-.3.046-.091.252-.069.32-.16.069-.114.023-.3.069-.389.069-.137.229-.16.229-.229a10.926,10.926,0,0,0-.457-1.257c-.16-.366-.343-.8-.549-1.28s-.64-1.212-.869-1.738c-.206-.457-.229-1.1-.434-1.555-.252-.549-.457-.709-.686-1.257-.251-.549-.64-1.3-.869-1.783-.183-.366-.206-.457-.343-.755-.366-.732-.617-1.166-.709-1.166a7.46,7.46,0,0,0-.732,1.258c-.114.206-.32.434-.434.663-.114.206-.229.434-.343.64a3.624,3.624,0,0,0-.572,1.1.173.173,0,0,1-.023.091,12.08,12.08,0,0,0-.617,1.44.4.4,0,0,0-.023.137s.046.069.114.16a1.355,1.355,0,0,0,.3.412c.183.252.343.5.343.5.594,2.446.183,3.315.96,5.876s.892,6.562,1.212,8.94c.251,1.921.937,4.115.914,6.082,0,.3.023.549.023.823a3.719,3.719,0,0,0,.091,1.12c.183.732.091,1.326.229,2.1.206,1.189.3,1.9.457,3.338a22.932,22.932,0,0,1,.457,4.618c-.023.114.023.16.023.251a40.655,40.655,0,0,0,.183,6.013c.023.091-.023,1.875,0,1.966.366.96-.709,4.687-.343,4.436A8.2,8.2,0,0,0,828.2,367c.252-.549.137-.937.595-1.258.366-.251.343-1.166.5-1.509a15.232,15.232,0,0,0,.732-1.829,2.936,2.936,0,0,0,.229-1.006,4.181,4.181,0,0,1,.114-1.235,33.292,33.292,0,0,0,.114-3.612,17.822,17.822,0,0,1,.137-1.9,2.347,2.347,0,0,0-.389-1.669" transform="translate(-525.223 0)" fill="#5ab947"/>
    <path id="Path_1394" data-name="Path 1394" d="M693.215,364.322a9.216,9.216,0,0,1-1.715-.206,24.714,24.714,0,0,0,5.4-2.606l.5-.366-.617-.114c-1.806-.32-2.584-.937-2.584-2.1A3.07,3.07,0,0,1,697.1,356c.8,0,1.738.8,1.738,3.041a2.8,2.8,0,0,1-.137.892l-.091.3.32.046a2.465,2.465,0,0,1,.48.114l-.777,1.075c-.137-.069-.274-.114-.389-.16l-.183-.069-.114.16a11.812,11.812,0,0,1-4.733,2.926m3.132-7.431c-.823,0-1.623.617-1.623,1.235,0,.64.549,1.486,3.132,2.012l.229.046.069-.229a1.942,1.942,0,0,0,.091-.5c-.023-1.486-1.029-2.561-1.9-2.561" transform="translate(-424.328 -30.083)" fill="#5ab947"/>
    <path id="Path_1395" data-name="Path 1395" d="M346.874,540.907c3.521-1.189,11.249-3.932,14.084-5.007l-.709,1.326c-2.812,1.12-9.968,3.75-13.649,4.939Z" transform="translate(-158.284 -168.852)" fill="#5ab947"/>
    <path id="Path_1396" data-name="Path 1396" d="M305.921,494.58c0-.023-.023-.046-.023-.069v-.023l-.023-.023v.023c0,.023,0,.046-.023.046,0,.023,0,.023-.023.046a.08.08,0,0,1-.023.046v.023a33.219,33.219,0,0,1-2.881,3.613c-.023.046-.069.069-.091.114-.343.32-.709.663-1.052.96-.549.457-1.12.937-1.692,1.326-.206.137-.389.411-.594.48a5.182,5.182,0,0,0-.915.594c-.663.434-1.3.892-1.966,1.326a.991.991,0,0,0-.434.434.9.9,0,0,1-.549.48.933.933,0,0,0-.457.3,1.066,1.066,0,0,1-.434.366c-.526.251-1.029.594-1.555.869a2.04,2.04,0,0,1-.457.137c-.091.023-.183-.023-.251.046-.274.3-.549.274-.823.389a2.241,2.241,0,0,0-.5.3,2.729,2.729,0,0,1-1.235.617c-.412.023-.777.389-1.166.48-.366.091-.777.434-1.143.5a7.288,7.288,0,0,0-1.715.594c-.274.137-.549-.023-.823.366a.071.071,0,0,1-.046-.023c-.137-.3-.32-.046-.48.091s-.3.229-.457.183a.339.339,0,0,0-.16-.023c-.389.137-.754.274-1.143.434-.32.114-.64.343-.915.32-.434-.023-.892.366-1.326.274-.137-.023-.274.137-.32.457-.046.206-.137.412-.206.64-.183-.137-.343-.251-.5-.389l-.137.823c.3-.069.572-.137.846-.183.16-.046.3-.183.434-.5.16.389.389.411.663.32a2.535,2.535,0,0,0,.732-.251c.046-.046.114.023.183.046a6.732,6.732,0,0,1-1.509,2.035c-.3-.251-.64-.091-1.006.091-.434.252-.892.617-1.3.366-.114-.068-.3.069-.457.114a3.155,3.155,0,0,1-.617.183,3.414,3.414,0,0,0-.915.183,10.9,10.9,0,0,1-1.76.64A5.653,5.653,0,0,0,274,515a.469.469,0,0,1-.343.046c-.206-.114-.389-.023-.594.183-.3.274-.594.389-.892.206a1.114,1.114,0,0,0-1.257.091,1.544,1.544,0,0,1-.709.114c-.091,0-.206-.069-.3,0a1.232,1.232,0,0,1-1.1-.046.645.645,0,0,0-.823.16,1.465,1.465,0,0,0-.434-.16,1.316,1.316,0,0,0-.526.183,1.351,1.351,0,0,1-1.212.091.444.444,0,0,0-.5.114c-.091.091-.229.137-.3.091-.16-.16-.366-.069-.549-.069a4.835,4.835,0,0,1-.8.046c-.686-.046-1.372-.114-2.058-.16-.434-.023-.823-.274-1.28-.137-.206-.229-.457-.092-.686-.092a1.328,1.328,0,0,1-.434-.068c-.434-.091-.777-.48-1.258-.343-.069.023-.114-.069-.183-.092-.3-.091-.594-.32-.915-.274-.48.069-.846-.366-1.28-.457-.206-.32-.5-.343-.754-.5-.16-.091-.366-.114-.526-.206a11.513,11.513,0,0,0-1.12-.709,2.4,2.4,0,0,1-.64-.389c-.457-.457-.937-.892-1.395-1.349-.137-.137-.274-.32-.434-.32-.229,0-.366-.206-.5-.434-.252-.389-.434-.892-.777-1.029-.046-.023-.069-.091-.114-.16-.183-.3-.366-.594-.549-.915a5.1,5.1,0,0,1-.457-.937c-.3-.915-.572-1.852-.846-2.789-.069-.251-.091-.572-.16-.846-.114-.594-.114-1.28-.206-1.875A15.152,15.152,0,0,1,247,499.45c.046-.709.091-1.44.16-2.149.046-.389.114-.777.183-1.166.046-.3.114-.594.183-.869a14.69,14.69,0,0,1,.343-1.44c.046-.114.069-.206.114-.32.069-.32-.32.091-.5.343-.069.183-.412.823-.5.983-.343.8-.366,1.075-.663,1.943-.183.549-.3,1.143-.434,1.715a12.313,12.313,0,0,0-.274,1.555c-.091,1.075-.137,2.149-.183,3.2a18.433,18.433,0,0,0,.229,3.955,17.288,17.288,0,0,0,1.166,4.138,19.825,19.825,0,0,0,1.692,2.492c0,.023.023.023.046.046.434.457.846.937,1.28,1.395a.607.607,0,0,0,.137.114c.137.069.251.114.5.229a3.471,3.471,0,0,0-.3-.549,5.956,5.956,0,0,0-.526-.549c-.251-.252-.48-.594-.755-.846-.251-.229-.411-.732-.686-.937-.229-.16-.389-.572-.572-.823a1.251,1.251,0,0,1-.229-.64.328.328,0,0,1,.114-.343c.091.183.206.366.32.572a7.741,7.741,0,0,0,1.349,1.921c.412.343.823.663,1.257.983a8.336,8.336,0,0,1,.8.549,8.866,8.866,0,0,0,3.292,1.76,12.645,12.645,0,0,0,2.538.823,6.545,6.545,0,0,0,2.492.274c.091-.023.183.046.3.068a3.019,3.019,0,0,0,.892.137,13.838,13.838,0,0,1,2.378-.069c.366,0,.709.16,1.1,0,.023-.023.069.023.091.023.709-.069,1.395-.137,2.1-.229a.248.248,0,0,0,.114-.023c.16-.137.3-.046.457-.023a3.245,3.245,0,0,0,1.326-.023,3.958,3.958,0,0,1,.983-.274,7.814,7.814,0,0,0,1.44-.206,3.692,3.692,0,0,0,.777-.229c.434-.183.869-.457,1.258-.229.046.023.091,0,.16,0a7.386,7.386,0,0,1,1.829-.274.726.726,0,0,0,.206-.069c.183-.046.366-.091.572-.137.091-.023.206,0,.3-.023.457-.114.892-.434,1.349-.526a.461.461,0,0,0,.274-.274c.091-.3.206-.389.366-.434.274-.114.526-.183.709.114.114.183.3.114.434,0a.794.794,0,0,0,.183-.343c.16.069.229.366.434.274a.806.806,0,0,0,.5-.572c.023-.046.069-.046.091-.069.114.137.229.274.3.343.434-.114.8-.183,1.143-.3.594-.183,1.166-.457,1.76-.594.366-.091.732-.434,1.075-.457a2.725,2.725,0,0,0,.526-.16l.412-.069c-.023.229-.046.389-.046.549a.374.374,0,0,0,.16,0,15.265,15.265,0,0,0,1.395-.663A24.643,24.643,0,0,0,289.368,512c.549-.252,1.075-.5,1.623-.8a13.892,13.892,0,0,1,1.395-.755c.457-.206.915-.686,1.395-.732a.316.316,0,0,0,.206-.114c.366-.412.732-.3,1.075-.617a2.385,2.385,0,0,0,1.326-.594c.069-.046.114-.251.229-.457.114,0,.412.16.526.046a9.419,9.419,0,0,1,.8-.617,21.522,21.522,0,0,0,4.024-3.818c.594-.709,1.212-1.258,1.875-2.035a7.336,7.336,0,0,0,.777-.983c.114-.206.229-.5.5-1.12.229-.526.343-1.738.594-2.241a4,4,0,0,0,.206-2.584M246,506.72c.046-.023.069-.069.114-.114.114.457.206.915.32,1.349s.274.846.389,1.28a5.78,5.78,0,0,1,.389,1.418A7.486,7.486,0,0,1,246,506.72m38.8,4.115c-.183.274-.274-.023-.457-.114.137-.16.183-.229.229-.274a2.5,2.5,0,0,1,.343-.183c.137.274-.023.434-.114.572" transform="translate(-80.223 -136.06)" fill="#5ab947"/>
    <path id="Path_1397" data-name="Path 1397" d="M368.384,499.466c-.046-.023-.046,0,0,0" transform="translate(-175.061 -140.74)" fill="#5ab947"/>
    <path id="Path_1398" data-name="Path 1398" d="M361.8,500.854h.023c0-.046,0-.069-.023,0" transform="translate(-170.009 -141.785)" fill="#5ab947"/>
    <path id="Path_1399" data-name="Path 1399" d="M388.533,388.207A9.372,9.372,0,0,0,388.19,387a.284.284,0,0,0-.137-.183,1.148,1.148,0,0,1-.32-.343.335.335,0,0,0,.046-.091c.023-.091.046-.206-.069-.229a.275.275,0,0,1-.229-.16c-.046-.046-.091-.046-.183-.069a2.386,2.386,0,0,1-.274-.114c-.091-.046-.206-.091-.206-.229.069-.069.137-.114.206-.183a.932.932,0,0,0-.274-.411,2.767,2.767,0,0,1-.434-.457.5.5,0,0,0-.091-.114,4.858,4.858,0,0,0-.846-.549,2.691,2.691,0,0,1-.5-.389,1.533,1.533,0,0,0-.412-.251,2.442,2.442,0,0,1-.572-.366.624.624,0,0,0-.274-.137c-.206-.046-.389-.137-.572-.183a1.655,1.655,0,0,1-.526-.274,1.4,1.4,0,0,0-.526-.251c-.229-.091-.412-.229-.64-.343a4.617,4.617,0,0,1-.526-.16h0c-.046-.023-.114-.046-.16-.069l-.617-.274c-.206-.114-.389-.206-.595-.32a2.738,2.738,0,0,1-.343-.206c-.16-.091-.3-.183-.457-.274h0c-.114-.069-.229-.137-.366-.206-.206-.114-.366-.206-.572-.343-.16-.091-.411-.229-.572-.32a4.569,4.569,0,0,1-.549-.366c-.046-.023-.091-.069-.137-.091l-.023-.023a6.793,6.793,0,0,1-.777-.64.173.173,0,0,0-.091-.046c-.023-.023-.046-.046-.069-.046a.763.763,0,0,1-.229-.137,3.023,3.023,0,0,1,.617-.046c.366.046.526.069.823.091-.137-.114.114-.137.069-.229-.16-.252.32-.3.16-.412.091-.046-.206-.183-.114-.3s.229-.069.32-.114c-.206-.183.114,0-.137-.229a1.781,1.781,0,0,1,.3-.023,2.894,2.894,0,0,0-.3-.252c-.183-.343-.594-.389-.983-.617-.366-.206-.526-.5-.937-.709a7.241,7.241,0,0,1-.823-.366c-.274-.137-.869-.412-1.166-.572-.389-.206-.869-.48-1.212-.64a6.684,6.684,0,0,0-.777-.434,11.462,11.462,0,0,0-.366,1.212c-.069.389-.023.915-.274,1.166.023.023-.457,1.029-.229,1.12.114.046-.366.823-.229.869s-.252.823-.114.869a2.684,2.684,0,0,0,.617.114h0c.206.023.412.046.594.069v.046a2.523,2.523,0,0,0,.046.412c.023.137.046.274.069.389.046.137.091.274.137.389.16.3.389.594.549.869a5.675,5.675,0,0,0,1.166,1.463c.16.16.16.366.343.48a6.961,6.961,0,0,1,.755.64,3.958,3.958,0,0,0,.434.229c.091.069.114.183.206.251.434.274.892.549,1.349.8.023.023.023.091.069.114a5.21,5.21,0,0,0,1.029.457c.091.023.16.206.274.274a7.174,7.174,0,0,0,.732.343c.114.046.206.183.32.229.366.16.709.32,1.1.48.183.069.274.274.457.366.091.046.206.023.3.069a1,1,0,0,0,.411.274c.069.023.183-.023.229.023a1.493,1.493,0,0,0,.366.3,1.651,1.651,0,0,1,.594.32c.023-.023.023-.046.046-.069.572.366,1.189.64,1.738,1.029l.069-.069c.137.206.412.229.617.3.183.069.3.3.457.343.206.046.251.16.389.251a1.757,1.757,0,0,1,.412.229,2.412,2.412,0,0,0,.229-.274c0,.046-.046.091-.046.137s.046.046.069.091c-.069,0-.137.023-.183.023.046.114.16.16.274.229.023.114.137.069.206.16a8.852,8.852,0,0,0,.594.709c.023.023.046.046.046.069h0c.023.046.069.091.091.137.023,0,.046-.046.069-.046,0,0,.046,0,.046.023s-.046.023-.046.046c0,.091.091.137.16.206h.023a.079.079,0,0,1,.046-.023c0-.023-.023-.023-.023-.046.023-.023.069,0,.091,0s.023-.046.023-.046a.022.022,0,0,1,.023-.023.5.5,0,0,0,.183-.023c0,.023-.023.091-.023.114a.022.022,0,0,1-.023.023h-.046c-.023,0-.046-.023-.069-.023s-.069.023-.069.046a.7.7,0,0,0,.046.434c.069.137.137.229.183.343a4.153,4.153,0,0,1,.251.869c.023.069.091.114.091.16a4.668,4.668,0,0,0-.069.777.814.814,0,0,1-.046.229.2.2,0,0,0,0,.16c.091-.183.16-.389.251-.572.023-.114.069-.229.091-.343l.069-.137a16.427,16.427,0,0,1,.343-2.081c0-.252,0-.594.023-.823a14.135,14.135,0,0,0-.114-2.263" transform="translate(-176.234 -43.428)" fill="#5ab947"/>
    <path id="Path_1400" data-name="Path 1400" d="M324.548,389.256c.046-.206-.046-.252-.046-.434a.084.084,0,0,1,.023-.069c0-.023.023-.046.023-.069a.5.5,0,0,0,.023-.183,1.38,1.38,0,0,0-.114-.366c-.046-.114-.091-.206-.137-.3a1.321,1.321,0,0,1-.069-.32c-.023-.114-.046-.229-.137-.274.023-.046.069-.046.046-.114a4.74,4.74,0,0,0-.434-.732c-.023-.046,0-.114-.023-.183a1.962,1.962,0,0,0-.3-.457.724.724,0,0,0-.16-.526c-.16-.3-.412-.663-.594-.937-.16-.229-.16-.457-.32-.64-.046-.046-.114-.046-.137-.091-.069-.114-.023-.251-.114-.366a8.76,8.76,0,0,1-.64-.96c-.046-.046-.091-.046-.137-.069-.114-.069-.046-.229-.114-.32a6.35,6.35,0,0,0-.594-.732c-.046-.137-.069-.251-.114-.389-.412-.48-.64-1.029-1.052-1.486a.942.942,0,0,1-.16-.251h0c.3.251.617.206.983.3.412.091.549.32.869.389-.16-.137.183-.3.137-.389-.183-.3.48-.206.32-.343.114-.023.16-.206.274-.3.091-.092.137-.252.251-.274-.114-.114.16-.046.16-.206.274.023.16-.457.137-.3,0-.023-.457-.343-.457-.343-.206-.389-.686-.594-1.12-.892-.412-.274-.572-.617-1.052-.892-.206-.114-.412-.183-.937-.5-.3-.183-.96-.572-1.3-.777-.434-.274-.983-.64-1.372-.869-.5-.3-.686-.5-.892-.594-.114.343-.343.709-.48,1.212-.091.389-.069.96-.343,1.166.046.023-.549,1.006-.3,1.12.137.069-.434.8-.3.869.16.069-.32.823-.16.892a3.512,3.512,0,0,0,.8.229,3.609,3.609,0,0,0,.069,1.12,7.364,7.364,0,0,0,.343,1.189,5.173,5.173,0,0,0,.5,1.006c.274.389.617.754.869,1.12a19.124,19.124,0,0,0,1.646,2.1c.206.229.229.526.434.732a8.92,8.92,0,0,1,.915,1.166c.137.183.366.343.5.526.091.137.114.274.206.412.5.617.937,1.257,1.372,1.9.023.046-.023.114.023.183.274.389.457.8.732,1.189a1.28,1.28,0,0,1,.114.183,2.752,2.752,0,0,1,.091.526,8,8,0,0,1,.32,1.052v.251a.94.94,0,0,0-.023.252,2.3,2.3,0,0,1,0,.686,3.04,3.04,0,0,1-.114.434,1.128,1.128,0,0,0,.389-.411h0a2.291,2.291,0,0,1,.594-.8.315.315,0,0,0-.091-.069,1.2,1.2,0,0,0,.251-.343c.069-.137.114-.274.183-.412s.183-.206.252-.343a14.564,14.564,0,0,0,.526-2.081c.023-.274-.091-.595-.046-.8m-1.6,1.417a.325.325,0,0,0-.046-.137h.023a.29.29,0,0,1,.023.137h0m.16,1.12c-.023,0-.023,0-.023-.023a.08.08,0,0,1,.023-.046h.023a.084.084,0,0,0-.023.069m.549-1.257h-.046v-.046h.069c.023,0,0,.046-.023.046m.5.091h-.069v-.046a.084.084,0,0,1,.069.023c.023-.023.023,0,0,.023m.046-.3c0,.023-.023,0,0,0-.023-.023-.023-.069,0-.069l.046.023c0,.023-.046.046-.046.046" transform="translate(-132.872 -43.197)" fill="#5ab947"/>
    <path id="Path_1401" data-name="Path 1401" d="M171.305,417.43a.663.663,0,0,0-.069-.251c-.046-.069-.091,0-.114-.046a.206.206,0,0,1-.023-.114c0-.046.069-.069.091-.114a.627.627,0,0,0-.091-.114,5.39,5.39,0,0,0-.274-.64,13.513,13.513,0,0,0-.8-1.189c-.137-.183-.3-.343-.457-.526a1.5,1.5,0,0,0-.526-.412,1.151,1.151,0,0,1-.274-.183.855.855,0,0,0-.274-.16,6.1,6.1,0,0,1-.594-.206,3.223,3.223,0,0,0-1.212-.274,1.924,1.924,0,0,0-.617.091,3.3,3.3,0,0,0-.594.252,2.991,2.991,0,0,0-.549.389c-.137.114-.389.3-.526.434a4.841,4.841,0,0,1-.549.457c-.183.137-.389.274-.549.412-.343.3-.663.64-.983.96-.594.64-1.212,1.189-1.806,1.829-.16.16-.3.343-.434.5-.069.091-.091.229-.16.343a.608.608,0,0,1-.229.251c-.091.069-.16.137-.251.206a1.2,1.2,0,0,0-.229.252,1.966,1.966,0,0,1-.023.366,2.517,2.517,0,0,0-.64.663,8.817,8.817,0,0,1-1.326,1.578.606.606,0,0,0-.114.137l-.549.754a5.945,5.945,0,0,1-.594.732,10.554,10.554,0,0,0-.846,1.143,5.173,5.173,0,0,1-.64.8,1.6,1.6,0,0,0-.3.389,2.442,2.442,0,0,1-.732.869,2,2,0,0,0-.183.229c-.046.091-.114.251-.16.343-.137.046-.274.114-.412.16-.16.343-.343.709-.5,1.052-.251.069-.5.137-.732.206a1.894,1.894,0,0,1-.64.709,4,4,0,0,0-.732.663,2.306,2.306,0,0,1-.617.709c-.091.114-.252.114-.366.229a3.846,3.846,0,0,1-1.738,1.075,2.589,2.589,0,0,1-.343.091c.046.091.069.16.114.251a1.521,1.521,0,0,1-.64.046c-.069-.16.091-.137.114-.274a4.944,4.944,0,0,0-1.257.366c0,.091-.023.229-.023.3,0,.091-.023.206-.114.183s-.069-.091-.046-.16.091-.137,0-.183c-.137.137-.366.366-.457.48l-.023.023h0a1.321,1.321,0,0,1-.32-.114,2.146,2.146,0,0,1-.274-.206c-.069.114-.114.206-.183.32-.023.023-.091.046-.091.023-.046-.069.023-.114.046-.16,0,0,.023-.069,0-.069a.938.938,0,0,0-.251-.023,1.533,1.533,0,0,1-.915-.183,2.456,2.456,0,0,0-1.3-.16,5.95,5.95,0,0,0,.64.389,13.966,13.966,0,0,0,1.44.709.071.071,0,0,0,.023.046,1.836,1.836,0,0,0,.663.343c.754.229,1.509.32,2.241.617a.634.634,0,0,0,.457.023.144.144,0,0,1,.137,0,2.4,2.4,0,0,0,.8.183c.023,0,.046,0,.091-.046a.116.116,0,0,1,.183-.023c.137,0,.274-.023.412-.023a1.923,1.923,0,0,0,.617.046c.434-.069.846-.114,1.28-.16a1.908,1.908,0,0,0,.343-.091,3.149,3.149,0,0,1,.892-.3c.046,0,.091-.046.16-.069.251-.137.526-.3.8-.457l.137-.343c-.091-.023-.183-.069-.274-.091a.685.685,0,0,1-.274.343l-.046.023h0a4.985,4.985,0,0,1-2.218.64c0-.023-.023-.046,0-.069,0-.023.023-.023.046-.046.64-.183,1.257-.412,1.875-.64.114.046.206.069.32.114h.023c-.069-.114-.114-.16,0-.274a3.261,3.261,0,0,1,.412-.343,11,11,0,0,0,1.3-1.006c.572-.5,1.12-1.006,1.646-1.555.069-.069.229-.069.274-.183v-.023a1.579,1.579,0,0,1,.366-.411.727.727,0,0,1-.526.846.354.354,0,0,0-.183.183c-.023.069,0,.137-.046.183-.229.206-.389.411-.594.617-.069.069-.16.114-.229.183a2.224,2.224,0,0,1-.64.5,1.439,1.439,0,0,1-.64.457c-.046.023-.091.023-.137.046-.114.046-.16.069-.206.183a.319.319,0,0,0,.069.343,5.479,5.479,0,0,0,.617-.366,3.485,3.485,0,0,0,.5-.5.607.607,0,0,1,.137-.114,6.14,6.14,0,0,0,1.029-.846,9.765,9.765,0,0,0,1.623-1.875,1.937,1.937,0,0,0,.389-.091.587.587,0,0,1,.274-.48,2.16,2.16,0,0,1,.526-.366,2.091,2.091,0,0,1,.64-.777c.023-.023-.091-.114-.023-.137h0l.069-.046-.046.023c.16-.206.366-.434.526-.64.069-.114.137-.251.229-.3a.935.935,0,0,0,.434-.686c.046,0,.206-.023.206-.069.137-.229.343-.366.48-.572a2.025,2.025,0,0,0,.183-.389,1.956,1.956,0,0,1,.343-.5,4.207,4.207,0,0,0,.869-1.12.727.727,0,0,1,.251-.274,8.308,8.308,0,0,0,.937-1.075,2.976,2.976,0,0,1,.937-.915.9.9,0,0,0,.229-.183c.32-.366.594-.754.915-1.12l.755-.892h0c.274-.32.526-.64.777-.937.48-.594.983-.915,1.418-1.509.16-.229.252-.389.5-.48a1.131,1.131,0,0,1,.777,0,.674.674,0,0,1,.3.114.624.624,0,0,1,.617.183.954.954,0,0,1,.183.137c.023.023.046.046.046.069a2.947,2.947,0,0,1,.754.389c-.137,0-.137-.023-.137-.023m-27.253,16.187a.046.046,0,1,1,.046-.046s-.046.023-.046.046m.549.137c-.137.023-.229.046-.274-.137a1.309,1.309,0,0,1,.32-.091h0a1.006,1.006,0,0,0-.046.229m.229.754a.071.071,0,0,1-.046-.023.137.137,0,0,1,.023-.091c0-.023.023,0,.023.023.023.023.023.091,0,.091m.846-1.372a.241.241,0,0,1-.114.046c-.023,0-.046,0-.023-.023a.241.241,0,0,1,.114-.046c.046-.023.046.023.023.023m.412.709a.424.424,0,0,1-.16.046s-.023-.046,0-.046c.046-.023.137-.023.16-.046v.046m0-1.029c-.023,0-.046-.046-.046-.046,0-.023.069-.023.069-.023.023,0,.046.023.023.023,0,.023-.046.046-.046.046m.091.366c-.023,0-.023-.046,0-.069a.487.487,0,0,1,.183,0c.023,0,.023.046,0,.046-.046,0-.137.023-.183.023m.183.777c-.023,0-.023,0-.023-.023a.23.23,0,0,1,.023-.069c.023,0,.023,0,.023.023,0,0,0,.069-.023.069m.48-.069c-.046.046-.16.114-.206.16-.023-.069-.069-.16-.091-.229.091-.023.16-.069.252-.091.046,0,.091,0,.091.046a.126.126,0,0,1-.046.114m.549,1.143c-.023,0-.069-.023-.069-.046s.046-.046.069-.046.069.023.069.046-.046.046-.069.046m.091-2.035-.183.091c.023-.046,0-.091.046-.137a.11.11,0,0,1,.16-.023c0,.023.023.046-.023.069m.412,1.052s-.046,0-.046-.023.046-.046.046-.046a.022.022,0,0,1,.023.023c.023.023,0,.046-.023.046m.755.64c-.023,0-.046-.023-.023-.023,0-.023.069-.023.091-.023s.046.023.023.023a.137.137,0,0,1-.091.023m.206-.617s-.046,0-.046-.023.023-.023.046-.023c0,0,.046,0,.046.023s-.023.023-.046.023m.137.64a.049.049,0,0,1-.046-.046c0-.023.069-.023.091-.023a.08.08,0,0,1,.046.023c0,.023-.069.046-.091.046m.434.023c-.023,0-.069-.023-.069-.046s.069-.046.069-.046c.023,0,.046,0,.046.023s-.046.069-.046.069m.434-.869s-.023-.023,0-.023a.08.08,0,0,1,.046-.023c.023,0,.023.046.023.046-.046.023-.069,0-.069,0m.663-.549a.08.08,0,0,1-.046-.023c.069-.069.114-.046.206,0-.046,0-.114.023-.16.023m1.212-.572c-.023,0-.069-.023-.069-.046s.046-.046.069-.046a.23.23,0,0,1,.069.023c.023.023-.046.069-.069.069m1.3-4.047a.137.137,0,0,1,.091-.023c.023,0,.023.023,0,.046-.023,0-.069.046-.091.046V428.7m-.206.3a.036.036,0,1,1-.046.023.08.08,0,0,1,.046-.023m.572,2.812a2.1,2.1,0,0,0-.64.549c-.023.046-.16.069-.229.069a.386.386,0,0,1,.069-.526h0a.022.022,0,0,0,.023-.023H152.6c.183-.229.32-.434.526-.663.046-.069.206-.091.3-.114-.046.114-.114.251-.16.366l.206.206a.762.762,0,0,1-.069.137m.366-.823c-.023.023-.114.046-.137.023-.023,0-.023-.114-.023-.137.069-.137.16-.252.343-.229.023,0,.023.023.023.046a.315.315,0,0,1-.206.3m.434.114c-.023,0-.114,0-.114-.023s.069-.091.091-.114.069.023.069.046-.023.091-.046.091m3.132-3.727c.023,0,.023,0,.023.023s-.023.091-.046.091a.049.049,0,0,1-.046-.046c.023,0,.046-.046.069-.069M156.353,430a2.767,2.767,0,0,0,.023.434.486.486,0,0,1-.023-.434m1.806-1.692a.6.6,0,0,0-.32.48H157.5c-.229.343-.434.709-.663,1.052l-.48.069v0c.48-.549.96-1.1,1.44-1.669a2.122,2.122,0,0,1,.32-.32c.114-.091.183.069.206.183h0a.3.3,0,0,1-.16.206m.5-.846c-.023,0-.091,0-.114-.023s.023-.046.046-.046.137-.046.137-.023c0,0-.046.091-.069.091m1.029-1.28c-.137.16-.32.251-.457.389-.046.229-.183.3-.366.389l.343-.412a3.256,3.256,0,0,1,.594-.869.494.494,0,0,1-.114.5m.252-.732c.069-.229.137-.32.366-.229a1,1,0,0,1-.366.229" transform="translate(0 -74.205)" fill="#5ab947"/>
    <path id="Path_1402" data-name="Path 1402" d="M500.765,405.075a5.176,5.176,0,0,1-.023-.594,1.246,1.246,0,0,1-.549-.343c-.023-.023-.046-.046-.069-.046a2.206,2.206,0,0,0-.983-.229c-.091-.023-.16-.069-.251-.091l.023-.023c.069-.091.069-.16-.046-.206a5.131,5.131,0,0,0-.617-.3,8.49,8.49,0,0,0-1.829-.732.424.424,0,0,0-.16-.046,1.93,1.93,0,0,0-.389-.114c-.32-.069-.663-.114-.96-.206-.251-.069-.5-.114-.732-.16-.251-.069-.48-.091-.732-.137a1.964,1.964,0,0,1-.389-.069,1.79,1.79,0,0,0-.595-.091c-.3-.023-.572-.023-.846-.046a12.845,12.845,0,0,0-1.326-.046c-.663.023-1.349.114-2.012.16a2.52,2.52,0,0,0-.412.046,1.323,1.323,0,0,0-.32.114,2.134,2.134,0,0,1-.366.091c-.137.023-.274,0-.412.023a1.712,1.712,0,0,0-.366.091,6.458,6.458,0,0,0-.709.251,3.8,3.8,0,0,1-.732.183,6.859,6.859,0,0,0-.732.16,3.655,3.655,0,0,0-.686.3c-.457.229-.915.457-1.395.663-.229.091-.48.206-.732.3-.069.023-.114.046-.183.069a.022.022,0,0,0-.023.023c-.023,0-.046.023-.069.023-.023.023-.046.023-.069.046a.722.722,0,0,1-.137.114.6.6,0,0,1-.183.069c-.046,0-.114.046-.16.046-.023.023-.023.023-.046.023-.16.114-.274.229-.457.343-.183.091-.457.3-.617.389a8.145,8.145,0,0,0-.96.732.022.022,0,0,1-.023.023c-.023.046-.206.389-.229.229a.707.707,0,0,1-.526.663,2.308,2.308,0,0,0-.274.526.545.545,0,0,1-.137.252,18.65,18.65,0,0,0-.755,2.675c.023.046-.046.206-.046.251.023.046.114.091.137.183l.114-.046c.046,0,.091-.023.137-.023h.023c.137-.114.274-.252.412-.343a6.4,6.4,0,0,1,1.532-.64,22.813,22.813,0,0,1,2.744-.937v-.023a.271.271,0,0,1,.183-.229c.343-.183.663-.343,1.006-.526a3.319,3.319,0,0,1,1.235-.434c.069,0,.137-.069.229-.091a.685.685,0,0,1,.229-.091.633.633,0,0,1,.3-.023c.023,0,.092,0,.114-.023.32-.16.663-.183.96-.366a.172.172,0,0,1,.114-.023,1.591,1.591,0,0,0,.663-.183,1.018,1.018,0,0,1,.526-.069.28.28,0,0,0,.412-.091c.3-.023.64-.069.915-.114a3.416,3.416,0,0,0,.983-.206,2.688,2.688,0,0,0,.869.206,1.339,1.339,0,0,0,.3-.046c.069.069.091.137.206.137.206,0,.389.069.572-.046a.1.1,0,0,1,.114,0c.389.046.8.069,1.189.137a.175.175,0,0,1,.114.046c.137.16.32.16.5.206a1.322,1.322,0,0,1,.32.069,1.8,1.8,0,0,0,.594.183.727.727,0,0,1,.206.069.928.928,0,0,0,.48.114,2.172,2.172,0,0,1-.389.229l.023.023a59.834,59.834,0,0,1-5.236,2.9l-.274.137-4.138,2.195c-.252.137-.48.274-.709.412A25.684,25.684,0,0,1,475.2,416.1c-.252.046-.526.069-.777.114a.324.324,0,0,0-.137.046c-.023-.023-.823.137-1.806.274-.549.069-1.166.16-1.738.183-.206,0-.389.023-.572.023a4.185,4.185,0,0,1-.777-.046c-4.8.091-4.756-2.058-4.618-2.789h0a.5.5,0,0,1,.069-.114h0a.228.228,0,0,0,.023-.091h0a.022.022,0,0,0-.023-.023v-.023h0v-.023h0l.023-.023h0c.114-.594.343-1.189.5-1.783.046-.206.114-.412.183-.64.137-.457.3-.915.457-1.372a10.694,10.694,0,0,1,.48-1.052.658.658,0,0,0,.48-.594c-.023-.023-.023-.069-.046-.091-.434.183-1.075.229-1.372.412-.48.251-.937.274-1.12.869-.046.137-.572.366-.709.48-.96.823-.96,2.309-1.669,3.338-.16.229-.229,1.075-.343,1.3-.32.709-.069,1.486-.412,2.195-.206.411.206.823.091,1.28-.046.251.229.549.183.823.274.3.069.572.32.846.046.229.091.48.137.709a4.436,4.436,0,0,0,.457.48h0l-.023.023h0a2.008,2.008,0,0,0,.229.137l.412.274a2.426,2.426,0,0,1,.274.229,1.6,1.6,0,0,1,.183.229c.274.16.572.3.869.434.114-.023.206-.069.274-.046.411.069.709.137,1.1.183a1.361,1.361,0,0,0,.526.023,1.015,1.015,0,0,1,.663-.069,12.151,12.151,0,0,0,1.9-.183,8.144,8.144,0,0,1,1.28-.023,1.178,1.178,0,0,0,1.189-.5c.091.069.137.206.274.183a5.378,5.378,0,0,1,.594-.023,1.727,1.727,0,0,0,.915-.183.389.389,0,0,1,.16-.023,9.757,9.757,0,0,0,1.943-.389c.137-.023.251-.046.389-.069a1.275,1.275,0,0,0,.48-.206.845.845,0,0,1,.64-.183,2.906,2.906,0,0,0,1.692-.343,9.665,9.665,0,0,1,1.555-.549,3.057,3.057,0,0,0,.892-.366c.274-.137.617-.3.869-.457.366-.229.64-.549,1.075-.526a1.839,1.839,0,0,1,1.075-.412c.32-.046.5-.069.663-.434a.336.336,0,0,1,.137-.114,5.963,5.963,0,0,0,.572-.229,1.2,1.2,0,0,0,.526-.48c.137-.274.389-.229.549-.411a.491.491,0,0,1,.526-.206.456.456,0,0,0,.206-.046.43.43,0,0,0,.183-.252.434.434,0,0,1,.389-.3c.549-.091.983-.16,1.509-.251a.652.652,0,0,0,.32-.183c.137-.137.251-.389.434-.5s.366-.091.572-.183c.091-.046.16-.16.252-.229a8.429,8.429,0,0,1,.777-.572,2.178,2.178,0,0,0,.663-.526h0c.091-.114.252-.274.343-.251.64.137,1.052-.343,1.669-.366.069,0,.16-.091.206-.16.114-.137.252-.434.412-.457a2.015,2.015,0,0,0,.549-.251,8.264,8.264,0,0,0,.754-.457,11.578,11.578,0,0,1,1.006-.594,2.914,2.914,0,0,0,.572-.343,6.875,6.875,0,0,1,.64-.5c.343-.206.64-.389.869-.5h0c.114.091.206.114.3-.023.023-.046.069-.046.114-.023.023,0,0-.046.023-.069.023-.046.023-.16.069-.206-.046-.046-.069-.091-.114-.137a.339.339,0,0,1,.16.023,1.3,1.3,0,0,1,.183-.3c.137-.412.32-.846.457-1.258a2.25,2.25,0,0,0,.046-.389c0-.023-.023-.046-.046-.069-.091-.114-.114-.274-.206-.412l.274.137a10.565,10.565,0,0,1,.3-1.372m-16.393,1.989a.325.325,0,0,1-.137.046.084.084,0,0,1-.069-.023c0-.023,0-.069.023-.069.023-.023.137-.023.16-.023.046,0,.046.046.023.069m1.006-.48c.114.023.206.069.32.091-.16.137-.229.091-.32-.091m1.943-.755h0a.206.206,0,0,1,.114-.023h0c0,.023-.091.091-.114.069-.023.023,0-.023,0-.046m-.526.572c-.023-.091.046-.114.114-.137.251-.046.48-.114.754-.16a.575.575,0,0,1,.16.091,3.294,3.294,0,0,1-1.029.206m7.293.114a13.111,13.111,0,0,0-2.515-.64,8.266,8.266,0,0,0-1.166-.251.281.281,0,0,0-.32.114c-.114-.206-.251-.229-.411-.137a1.664,1.664,0,0,1-.663.091c-.023,0-.091-.114-.114-.16.251-.046.5-.091.732-.137.046,0,.069-.023.091-.023.183,0,.389-.023.572-.023h.023c.114,0,.206-.023.32-.023a.152.152,0,0,0,.091.114h.252a.246.246,0,0,1,.183.046c.229.206.412.16.686.206.366.046.777-.091,1.166.091.046.023.069.046.114.023.252-.069.412.046.64.252.046.046.16-.023.229-.046.069.137.137.3.206.434-.069,0-.091.069-.114.069m.777.48c-.229-.046-.366-.229-.572-.412-.023-.023-.023-.137-.023-.16.023,0,.091-.046.114,0,.137.183.252.343.434.366.069,0,.16.091.206.137a.261.261,0,0,1-.16.069m.457.114a.717.717,0,0,1-.229-.183c.091.023.183,0,.274.023h.046c-.023.046-.069.114-.091.16" transform="translate(-246.717 -65.258)" fill="#5ab947"/>
    <path id="Path_1403" data-name="Path 1403" d="M691.268,339.983c0-.023-.252-.617-.252-.64a6.419,6.419,0,0,0-.663-1.692c-.274-.594-.32-1.075-.64-1.76-.137-.3-.32-.549-.709-1.349-.229-.48-.755-1.509-1.029-2.081-.343-.732-.8-1.715-1.143-2.424-.434-.915-.594-1.372-.8-1.738a8.622,8.622,0,0,0-.754,1.28c-.183.457-.252,1.235-.594,1.258.046.069-.732.8-.48,1.189.114.183-.549.594-.411.823a.291.291,0,0,1,.023.137c-.137.229-.252.434-.389.663.16.526.709.915.755,1.1a.823.823,0,0,1,.046.251.313.313,0,0,0,.069-.091,1.168,1.168,0,0,0,.343.846c.16.114.16.594.229.892-.069.16-.137.3-.183.412.046.206.091.434.137.663a.206.206,0,0,1,.137.137,16.442,16.442,0,0,1,.777,3.43c.069.526.046,1.12.16,1.578.229.96.32,2.058.48,3.064.252,1.44.343,3.064.48,4.641.091.983.091,2.035.16,3.018.046.709.252,3.178.252,3.544a5.393,5.393,0,0,0-.023.549,4.907,4.907,0,0,0-.594.572c-1.28.777-3.247.732-4.733.754-.069-.091-.754-.069-.914-.091a6.042,6.042,0,0,1-.915-.274,4.385,4.385,0,0,1-2.583-1.989,4.2,4.2,0,0,1-.389-2.744,2.433,2.433,0,0,0-.8,1.029c-.206.229-.411.48-.617.709,0,.069-.5.572-.526.64a.635.635,0,0,1-.274.274,3.446,3.446,0,0,1-.412.594.022.022,0,0,1-.023.023.593.593,0,0,1-.274.389c-.023.023-.046.023-.069.046-.137.274-.572.389-.732.64a3.388,3.388,0,0,1-1.806,1.212c-.48.16-.594.412-1.052.3a.08.08,0,0,0-.046.023,1.608,1.608,0,0,1-1.326-.411c-.046-.046-.091-.069-.137-.114a2.659,2.659,0,0,1-1.326-1.852.325.325,0,0,1-.046-.137c.091-.183.16-.389.251-.572a2.992,2.992,0,0,1,.114-.5,5.2,5.2,0,0,1,.137-.572c.046-.137.206-.229.251-.389h0v-.091a.154.154,0,0,0-.137-.091,9.189,9.189,0,0,0-.869.777c-.48.5-.869,1.075-1.395,1.532-.617.526-1.143,1.143-1.738,1.669a2.963,2.963,0,0,1-.869.686l-.069.069c-.137.069-.069.252-.252.252-.023.114-.16.114-.251.183a1.86,1.86,0,0,1-.229.206c-.091.069-.183.069-.229.16-.023.023-.023.046-.046.046a5.264,5.264,0,0,1-5.373-.137,1.268,1.268,0,0,1-.206-.16,2.55,2.55,0,0,1-1.189-1.257,4.882,4.882,0,0,1-.16-2.744.232.232,0,0,1,.091-.16c.069-.274.206-.526.251-.8,0-.023.023-.046.023-.069v-.069a.174.174,0,0,1,.046-.114.08.08,0,0,1,.023-.046c0-.023,0-.023.023-.023v-.069c-.3.366-.663.64-1.212,1.235l-.32.32a2.273,2.273,0,0,0-.229.251c-.114.16-.3.3-.434.457-.137.206-.251.549-.389.8v-.091c-.069.137-.16.274-.229.412-.046.069-.069.137-.114.206-.114.3-.206.617-.3.937l-.137.412v.091c-.023.091-.046.16-.069.251v1.006c0,.069-.023.091-.023.16v.069a4.461,4.461,0,0,0,.046.572c.046.229.069.434.114.64.069.229.137.434.206.663a3.556,3.556,0,0,0,.16.526,1.469,1.469,0,0,0,.183.32,4.169,4.169,0,0,0,1.12,1.235,4.356,4.356,0,0,0,.343.32,4.072,4.072,0,0,0,.869.572.812.812,0,0,0,.206.091.813.813,0,0,0,.206.091.812.812,0,0,1,.206.091.637.637,0,0,0,.206.114h.091c.046,0,.069.023.114.046a.368.368,0,0,0,.206.069c.137,0,.252.023.366.023.137.023.251.046.389.069a2.309,2.309,0,0,0,.389.069.458.458,0,0,0,.343-.046,1.1,1.1,0,0,1,.16-.069.444.444,0,0,1,.183-.023c.091,0,.229.069.32.069a1.141,1.141,0,0,0,.48-.114c.137-.069.3-.069.3-.274a.814.814,0,0,1,.206-.091,3.017,3.017,0,0,0,.709-.274c.091-.046.137-.137.251-.091.046.023.092-.023.115-.069.069-.229.229-.251.434-.251a.628.628,0,0,0,.274-.046c.091-.046.206-.114.32-.16.206-.091.435-.206.64-.3.023,0,.023-.046.023-.069a1.146,1.146,0,0,0-.274-.046c-.069,0-.091.023-.091.069-.023.091-.091.091-.16.114a1.372,1.372,0,0,0-.572.3.084.084,0,0,1-.069.023.443.443,0,0,0-.3,0c-.023,0-.068-.023-.091-.023.069-.091.137-.206.206-.3a.1.1,0,0,1,.114-.023c.046.023.137.046.183,0s.114-.069.16-.114c-.137-.069-.16.069-.252.023-.023,0-.023-.069,0-.091a3.381,3.381,0,0,1,.3-.183c.023,0,.069,0,.069.023.023.069-.023.114.046.183.068-.046.137-.069.206-.114.023,0,.023-.069,0-.069h-.114a.726.726,0,0,1,.229-.229h0c.046-.206.3-.206.48-.274.046-.023.137-.069.183-.023.091.069.16.069.229,0a1.5,1.5,0,0,1,.389-.274,1.214,1.214,0,0,0,.617-.686c.183,0,.251,0,.343-.16l-.114-.114c.114-.114.137-.16.3-.091.023,0,.069-.023.069-.046-.023-.16.091-.183.069-.343-.023-.091.091-.091.16-.046.023,0,.069-.023.069-.046a.187.187,0,0,1,.091-.229.6.6,0,0,0,.114-.137,2.182,2.182,0,0,0,.183-.366.634.634,0,0,1,.023.3c-.023.091-.023.16-.046.252h0v.16a2.2,2.2,0,0,1,0,.549v.023a1.109,1.109,0,0,1,.068.16h0l.137.274a5.612,5.612,0,0,0,.389.617,3.786,3.786,0,0,0,.48.366,6.271,6.271,0,0,1,.594.5,4.292,4.292,0,0,0,3.7-.091A9.5,9.5,0,0,0,673,363.052a.541.541,0,0,1,.137-.206l.046-.046a1.786,1.786,0,0,1,.389-.594.864.864,0,0,1,.206-.274c.069-.183.16-.343.229-.526a.229.229,0,0,1,.091-.114.917.917,0,0,0,.069-.343.55.55,0,0,1,.252-.457,3.182,3.182,0,0,0,.229-.595l.068-.137v.046c0,.046.023.137.023.183a.453.453,0,0,0,.046.252c0,.023.023.023.023.069a.86.86,0,0,1-.023.229c.091.091.091.229.16.343-.046.091.023.16.023.251a.126.126,0,0,0,.046.114c.046.046.046.137.069.183,0,.023.068.046.091.069.023.114.114.206.114.32v.023c.114.137.183.252.389.274a.022.022,0,0,1,.023.023c0,.023-.046.023-.069.046-.023,0-.091.046-.046.091a1.139,1.139,0,0,0,.16.183,4.825,4.825,0,0,0,.434.526l.046.046.091.091a2.064,2.064,0,0,1,.229.206c.068.069.137.114.183.16l.206.137c.046.046.069.023.114.091a.961.961,0,0,0,.16.114c.068.046.183.091.251.137.137.069.252.137.411.206.206.091.457.137.663.229.046.023.091.023.137.046h.274a.326.326,0,0,1,.137.046h.137c.091,0,.206-.023.3-.023a1.3,1.3,0,0,1,.3.023,1.34,1.34,0,0,0,.3.046h.32c.229-.023.457-.023.686-.023h.526c.023,0,.069-.023.091-.023h.183c.091-.023.183,0,.274-.069a4.83,4.83,0,0,1,1.052-.663c.252-.046-.229.526.023.48h.046c.229-.069.457-.16.686-.252l.343-.137a2.145,2.145,0,0,0,.343-.137,4.069,4.069,0,0,0,.617-.389c.206-.137.389-.3.571-.434h.023a5.7,5.7,0,0,0,.732-.777,7.322,7.322,0,0,0,.64-1.006,14.706,14.706,0,0,0,1.235-2.378c.183-.549.343-1.166.526-1.669a14.668,14.668,0,0,0,.846-3.452,5.58,5.58,0,0,1,.137-.594c.023-.091.046-.206.069-.3,0-.046.023-.114.023-.16v-.137c-.069-.64.023-1.326,0-1.989,0-.32-.114-.663-.114-.983a5.7,5.7,0,0,1,.068-.617c-.091-1.075-.16-2.126-.343-3.2-.023-.069.069-.137.046-.251a15.987,15.987,0,0,0-.411-2.241c-.046-.183.023-.5,0-.777-.069-.526-.229-1.143-.343-1.669-.046-.274-.046-.549-.068-.823-.023-.114-.069-.229-.091-.366.114.114.206.229.32.343.32.366.343.663.594.937-.091-.229.229-.137.206-.251-.023-.091,0-.137.046-.137a2.1,2.1,0,0,0,.183.114h.046c.046.023.091.023.069-.046h0c.091.046.183-.069.3-.091s.183-.137.274-.069c-.069-.183.137.069.183-.069.206.137.251-.389.206-.251m-32.1,26.384s.046,0,.046.023c0,0,0,.046-.023.046l-.046-.023.023-.046m-.274.5a.263.263,0,0,1,.32-.114,1.791,1.791,0,0,1-.32.114m1.806-.96a.56.56,0,0,0-.274.091,2.693,2.693,0,0,1-.457.16c-.16.069-.366.114-.526.183,0-.023-.046-.046-.046-.046a.235.235,0,0,1,.137-.114c.206-.046.343-.206.526-.274.046-.114.16-.114.251-.114a2.308,2.308,0,0,0,.572-.114c-.023.114-.069.206-.183.229m2.721-1.875c.046-.206.183-.229.343-.32-.046.183-.206.229-.343.32" transform="translate(-394.168 -8.716)" fill="#5ab947"/>
    <path id="Path_1404" data-name="Path 1404" d="M375.388,610.2l-1.326.617a29.983,29.983,0,0,1,1.052,7.316c.046,1.143.069,2.149.046,2.949h-3.612c-.8,0-1.075-.366-1.44-1.418l-.732-2.035c-.48-1.28-1.235-2.035-2.309-2.035-2.1,0-3.544,2.744-3.567,5.007a33.164,33.164,0,0,1-7.5,2.584,9.117,9.117,0,0,0,.412,1.829,30.786,30.786,0,0,0,7.454-3.361,12.276,12.276,0,0,0,5.533,1.281l.16-1.052a2.214,2.214,0,0,0,1.989.96h4.573a49.582,49.582,0,0,0,.32-5.464,25.9,25.9,0,0,0-.183-3.269l.48-.594Zm-10.632,10.106c.091-1.6.983-3.041,2.081-3.041.709,0,1.143.48,1.532,1.6l.709,2.035.137.389a10.829,10.829,0,0,1-4.458-.983" transform="translate(-165.535 -226.164)" fill="#5ab947"/>
    <path id="Path_1405" data-name="Path 1405" d="M501.007,610.2l-1.326.617a29.985,29.985,0,0,1,1.052,7.316c.046,1.143.069,2.149.046,2.949h-3.612a13.716,13.716,0,0,1-3.452-.251,7.3,7.3,0,0,0,2.218-4.321c0-1.281-1.577-2.1-3.544-2.1a10.891,10.891,0,0,0-3.818.777l-.732,1.623.32.32.549-.206a13.649,13.649,0,0,0,2.4,3.864,17.653,17.653,0,0,1-4.093.343H459.441c-.046-4.115-.16-6.516-.411-10.883l-1.829.686c.549,5.19.732,8.14.915,11.958h30.271a7.844,7.844,0,0,0,4.024-1.006,6.771,6.771,0,0,0,3.59,1.006h5.739a49.571,49.571,0,0,0,.32-5.464,25.9,25.9,0,0,0-.183-3.269l.48-.594Zm-8.62,10.106a10.664,10.664,0,0,1-2.515-3.818,8.707,8.707,0,0,1,2.378-.389,6.927,6.927,0,0,1,2.424.412,6.355,6.355,0,0,1-2.286,3.8" transform="translate(-243.597 -226.164)" fill="#5ab947"/>
    <path id="Path_1406" data-name="Path 1406" d="M691.1,672.763l1.395,1.28,1.28-1.486-1.3-1.258Z" transform="translate(-424.019 -273.295)" fill="#5ab947"/>
    <path id="Path_1407" data-name="Path 1407" d="M672.494,615.481a18.307,18.307,0,0,1,1.166,5.6h-6.219c-.046-4.115-.16-6.516-.411-10.883l-1.829.686c.549,5.19.732,8.139.915,11.958h8.46a25.185,25.185,0,0,0,.274-4.207l.457-.617-1.463-3.2Z" transform="translate(-404.041 -226.164)" fill="#5ab947"/>
    <path id="Path_1408" data-name="Path 1408" d="M543.1,535.678l4.367-1.509.046-.869-4.39,1.532Z" transform="translate(-309.857 -166.846)" fill="#5ab947"/>
    <path id="Path_1409" data-name="Path 1409" d="M547.113,525.5l-4.39,1.555-.023.846,4.367-1.532Z" transform="translate(-309.549 -160.83)" fill="#5ab947"/>
    <path id="Path_1410" data-name="Path 1410" d="M597.264,544.438l-.137-.777-2.9-.96-.663,1.417v.229c2.926.778,5.121,2.195,5.121,5.762a8.283,8.283,0,0,1-.114,1.555,15,15,0,0,1-3.407-.32,4.062,4.062,0,0,0,1.235-2.789,2.972,2.972,0,0,0-3.018-3.018,3.252,3.252,0,0,0-1.806,5.693,15.135,15.135,0,0,1-2.195.114H562.008c-.343-4.344-.526-7.728-.64-11.843l-1.829.709c.366,4.756.663,6.425,1.052,9.694a13.043,13.043,0,0,1-2.515.937l.137-1.715a87.161,87.161,0,0,0-3.247-8.185h-.549l-1.372,1.509,1.1,2.218.755.32A56.783,56.783,0,0,1,557.413,551a21.776,21.776,0,0,1-5.053.366l-.16.526,1.692,1.28a14.912,14.912,0,0,0,6.882-1.623l.023.046a3.264,3.264,0,0,0,.777,1.532h27.8a11.084,11.084,0,0,0,4.207-.686,16.171,16.171,0,0,0,5.967.937,15.262,15.262,0,0,0,.435-3.384,6.4,6.4,0,0,0-2.721-5.556m-3.521,6.493a4.119,4.119,0,0,1-2.309-2.195,2.1,2.1,0,0,1,1.943-1.829,1.783,1.783,0,0,1,1.76,1.852,2.533,2.533,0,0,1-1.395,2.172" transform="translate(-316.877 -171.629)" fill="#5ab947"/>
    <path id="Path_1411" data-name="Path 1411" d="M770.8,549.686c.435,4.664.617,6.448.823,10.952l1.326-.114c-.114-5.67-.229-7.408-.412-11.523Z" transform="translate(-485.497 -178.957)" fill="#5ab947"/>
    <path id="Path_1412" data-name="Path 1412" d="M768.424,530.261a1.274,1.274,0,0,1-1.28-1.029,1.584,1.584,0,0,1,1.029-.434A3.171,3.171,0,0,1,769.2,529l.229-.5a13.045,13.045,0,0,0-1.28-.8,1.872,1.872,0,0,0-1.875,1.9,1.65,1.65,0,0,0,.617,1.28c-.252.137-.572.32-.892.5l.137.572a16.448,16.448,0,0,1,3.475-.846l.092-1.235a8.485,8.485,0,0,0-1.281.389" transform="translate(-481.795 -162.527)" fill="#5ab947"/>
  </g>
</svg>
