<svg xmlns="http://www.w3.org/2000/svg" width="32" height="32" viewBox="0 0 32 32">
  <g id="text-speech" transform="translate(-528 -3428)">
    <rect id="Rectangle_6196" data-name="Rectangle 6196" width="32" height="32" transform="translate(528 3428)" fill="#006cf2" opacity="0"/>
    <path id="text-speech-2" data-name="text-speech" d="M9.4,23.844a1.089,1.089,0,0,1,1.161-1.161h7.07a1.162,1.162,0,1,1,0,2.321h-7.07a1.2,1.2,0,0,1-.844-.317,1.4,1.4,0,0,1-.317-.844ZM13.3,8.65h0a1.089,1.089,0,0,0-1.161,1.161v4.221A1.089,1.089,0,0,0,13.3,15.192h2.954l4.537,4.537a.327.327,0,0,0,.211.106h.317a.368.368,0,0,0,.211-.106c0-.106.106-.211.106-.317V4.429c0-.106,0-.211-.106-.211,0-.106-.106-.106-.211-.211H21.11a.368.368,0,0,0-.211.106L16.362,8.65H13.3Zm1.372,12.134a1.162,1.162,0,1,0,0-2.321H10.453a1.162,1.162,0,1,0,0,2.321Zm11.712-6.225a4.872,4.872,0,0,0,.739-2.743,4.872,4.872,0,0,0-.739-2.743A4.735,4.735,0,0,0,25.225,7.7L24.8,7.278v8.863l.422-.422A2.475,2.475,0,0,0,26.386,14.559Zm4.748-8.547A11.306,11.306,0,0,0,26.808,2a1.724,1.724,0,0,0-.739,0,.951.951,0,0,0-.633.633v.106a1.493,1.493,0,0,0,.633,1.583,3.206,3.206,0,0,0,.739.528,11.97,11.97,0,0,1,2.638,2.532,8.305,8.305,0,0,1,1.266,4.432c0,3.376-1.372,4.959-4.432,7.6l-.106.106c-.317.317-1.266.95-.739,1.794a1.072,1.072,0,0,0,1.055.528c.211,0,.422-.106.633-.106a11.936,11.936,0,0,0,4.221-4.01,10.976,10.976,0,0,0,1.688-5.8A15,15,0,0,0,31.134,6.012ZM23.115,24.055h0a1.089,1.089,0,0,0-1.161,1.161v3.06H6.021v-23h11.5a1.2,1.2,0,0,0,.844-.317,1.2,1.2,0,0,0,.317-.844,1.2,1.2,0,0,0-.317-.844,1.2,1.2,0,0,0-.844-.317H6.232a2.314,2.314,0,0,0-1.794.739A2.993,2.993,0,0,0,3.7,5.484V27.959a2.314,2.314,0,0,0,.739,1.794,2.314,2.314,0,0,0,1.794.739H21.743a2.522,2.522,0,0,0,2.532-2.532V25.216a1.2,1.2,0,0,0-.317-.844A1.039,1.039,0,0,0,23.115,24.055Z" transform="translate(525.633 3427.378)" fill="#006cf2"/>
  </g>
</svg>
