<svg xmlns="http://www.w3.org/2000/svg" xmlns:xlink="http://www.w3.org/1999/xlink" width="32" height="32" viewBox="0 0 32 32">
  <defs>
    <clipPath id="clip-path">
      <rect width="32" height="32" fill="none"/>
    </clipPath>
  </defs>
  <g id="underline" clip-path="url(#clip-path)">
    <g id="underline-2" data-name="underline" transform="translate(-294 -3395)">
      <rect id="Rectangle_6185" data-name="Rectangle 6185" width="32" height="32" transform="translate(294 3395)" fill="#006cf2" opacity="0"/>
      <path id="underline-3" data-name="underline" d="M11.933,22.287A9.22,9.22,0,0,1,9.25,15.651v-9.9a2.438,2.438,0,0,1,.467-1.281,1.693,1.693,0,0,1,2.45,0h0a1.749,1.749,0,0,1,.467,1.281v9.9a5.456,5.456,0,0,0,1.75,4.075,5.947,5.947,0,0,0,4.083,1.746,5.478,5.478,0,0,0,4.083-1.746,5.923,5.923,0,0,0,1.75-4.075v-9.9a2.438,2.438,0,0,1,.467-1.281,1.693,1.693,0,0,1,2.45,0,1.749,1.749,0,0,1,.467,1.281v9.9A9.623,9.623,0,0,1,25,22.287a8.8,8.8,0,0,1-6.533,2.678A9.186,9.186,0,0,1,11.933,22.287Zm17.733,6.636a1.757,1.757,0,0,0-1.283-.466H8.55a2.45,2.45,0,0,0-1.283.466A1.588,1.588,0,0,0,6.8,30.2a2.438,2.438,0,0,0,.467,1.281,2.45,2.45,0,0,0,1.283.466H28.383a2.45,2.45,0,0,0,1.283-.466,1.991,1.991,0,0,0,0-2.561Z" transform="translate(291.534 3393.05)" fill="#006cf2"/>
    </g>
  </g>
</svg>
