<svg id="arrow.up.right" xmlns="http://www.w3.org/2000/svg" width="24" height="24" viewBox="0 0 24 24">
  <rect id="Rectangle_7038" data-name="Rectangle 7038" width="24" height="23.968" fill="#07253f" opacity="0"/>
  <path id="Path_2627" data-name="Path 2627" d="M24,17.934,23.984,1.609A1.483,1.483,0,0,0,22.408.035H6.061A1.484,1.484,0,0,0,4.534,1.512,1.5,1.5,0,0,0,6,2.956h5.655l7.93-.26L16.558,5.341.455,21.455A1.474,1.474,0,0,0,0,22.477a1.562,1.562,0,0,0,1.511,1.509,1.368,1.368,0,0,0,1.024-.438L18.67,7.451l2.681-3.034-.292,7.578v6A1.471,1.471,0,1,0,24,17.934Z" transform="translate(0 0.014)" fill="#07253f"/>
</svg>
