<svg id="arrow.down.right" xmlns="http://www.w3.org/2000/svg" width="24" height="23.997" viewBox="0 0 24 23.997">
  <rect id="Rectangle_7039" data-name="Rectangle 7039" width="24" height="23.949" fill="#07253f" opacity="0"/>
  <path id="Path_2628" data-name="Path 2628" d="M24,6.1a1.471,1.471,0,1,0-2.941-.065v5.987l.292,7.577L18.67,16.585,2.535.473A1.431,1.431,0,0,0,1.511.035,1.576,1.576,0,0,0,0,1.56,1.5,1.5,0,0,0,.455,2.583l16.1,16.1,3.022,2.661-7.93-.26H6a1.5,1.5,0,0,0-1.462,1.444,1.471,1.471,0,0,0,1.527,1.46H22.407a1.47,1.47,0,0,0,1.576-1.558Z" transform="translate(0 0.013)" fill="#07253f"/>
</svg>
