<svg xmlns="http://www.w3.org/2000/svg" width="24" height="24" viewBox="0 0 24 24">
  <g id="arrow.left" transform="translate(0 2.465)">
    <rect id="Rectangle_5538" data-name="Rectangle 5538" width="24" height="24"
      transform="translate(0 -2.465)" fill="#ffffff" opacity="0" />
    <path id="Path_48" data-name="Path 48"
      d="M0,9.8a1.185,1.185,0,0,0,.4.866l8.582,8.569a1.178,1.178,0,0,0,.84.362,1.1,1.1,0,0,0,1.137-1.111,1.131,1.131,0,0,0-.323-.814L7.742,14.721,2.624,10.055l-.271.633,4.162.258H22.863A1.1,1.1,0,0,0,24,9.8a1.1,1.1,0,0,0-1.137-1.15H6.514L2.352,8.9l.271.646L7.742,4.872l2.895-2.947a1.153,1.153,0,0,0,.323-.814A1.1,1.1,0,0,0,9.822,0a1.156,1.156,0,0,0-.866.388L.4,8.931A1.185,1.185,0,0,0,0,9.8Z"
      transform="translate(0 -0.261)" fill="#ffffff" />
  </g>
</svg>