<svg id="arrow.up.left" xmlns="http://www.w3.org/2000/svg" width="24" height="24"
  viewBox="0 0 24 24">
  <rect id="Rectangle_7451" data-name="Rectangle 7451" width="24" height="24"
    transform="translate(0 0)" fill="#66769B" opacity="0" />
  <path id="Path_2634" data-name="Path 2634"
    d="M0,17.97a1.51,1.51,0,0,0,1.479,1.545,1.514,1.514,0,0,0,1.462-1.48V12.019L2.649,4.425,5.33,7.466,21.449,23.6a1.417,1.417,0,0,0,1.024.439A1.578,1.578,0,0,0,24,22.523a1.479,1.479,0,0,0-.455-1.024L7.442,5.352,4.42,2.7l7.93.26H18a1.5,1.5,0,0,0,1.462-1.447A1.485,1.485,0,0,0,17.939.035H1.592A1.484,1.484,0,0,0,.016,1.612Z"
    transform="translate(0 -0.035)" fill="#66769B" />
</svg>