<svg xmlns="http://www.w3.org/2000/svg" xmlns:xlink="http://www.w3.org/1999/xlink" width="24" height="24" viewBox="0 0 24 24">
  <defs>
    <clipPath id="clip-path">
      <rect id="Rectangle_5552" data-name="Rectangle 5552" width="24" height="20.285" fill="#07253f"/>
    </clipPath>
  </defs>
  <g id="Group_6975" data-name="Group 6975" transform="translate(0 4.667)">
    <rect id="Rectangle_5553" data-name="Rectangle 5553" width="24" height="24" transform="translate(0 -4.667)" fill="#07253f" opacity="0"/>
    <g id="Group_5526" data-name="Group 5526" transform="translate(0 -2.524)" clip-path="url(#clip-path)">
      <path id="Path_57" data-name="Path 57" d="M11.232,7.136a1.522,1.522,0,1,1,3.034-.008,1.606,1.606,0,0,1-1.519,1.679,1.6,1.6,0,0,1-1.515-1.671M8.487,8.807a1.608,1.608,0,0,0,1.519-1.679A1.573,1.573,0,0,0,8.487,5.5,1.586,1.586,0,0,0,6.968,7.136,1.6,1.6,0,0,0,8.487,8.807m8.521,0a1.606,1.606,0,0,0,1.519-1.679,1.523,1.523,0,1,0-3.038.008,1.6,1.6,0,0,0,1.519,1.671m0,.68a3.756,3.756,0,0,0-1.679.38,2.539,2.539,0,0,1,1.1,1.952.961.961,0,0,1-.129.505h3.094c.6,0,.813-.171.813-.505,0-.979-1.226-2.332-3.2-2.332m-4.257,0a3.723,3.723,0,0,0-1.682.383,2.542,2.542,0,0,1,1.094,1.948.922.922,0,0,1-.13.505h3.1c.6,0,.808-.171.808-.505,0-.979-1.227-2.332-3.193-2.332m-4.264,0c-1.967,0-3.193,1.352-3.193,2.332,0,.334.212.505.808.505h4.77c.6,0,.813-.171.813-.505,0-.979-1.227-2.332-3.2-2.332" transform="translate(-0.745 -0.775)" fill="#07253f"/>
      <path id="Path_58" data-name="Path 58" d="M21.675,0H2.316A2.133,2.133,0,0,0,0,2.316v12.07a2.14,2.14,0,0,0,2.316,2.326h6.5v1.943h-.06a.816.816,0,1,0,0,1.631h6.483a.816.816,0,0,0,0-1.631h-.06V16.712h6.494A2.143,2.143,0,0,0,24,14.386V2.316A2.136,2.136,0,0,0,21.675,0m.7,14.366a.677.677,0,0,1-.725.725H2.346a.677.677,0,0,1-.725-.725V2.346a.672.672,0,0,1,.725-.725H21.655a.672.672,0,0,1,.725.725Z" transform="translate(0 0)" fill="#07253f"/>
    </g>
  </g>
</svg>
