<svg id="bolt.circle" xmlns="http://www.w3.org/2000/svg" width="24" height="23.998" viewBox="0 0 24 23.998">
  <rect id="Rectangle_6986" data-name="Rectangle 6986" width="24" height="23.998" fill="#07253f" opacity="0"/>
  <path id="Path_2618" data-name="Path 2618" d="M11.993,23.986A12.082,12.082,0,0,0,23.986,11.993,12.084,12.084,0,0,0,11.981,0,12.072,12.072,0,0,0,0,11.993,12.09,12.09,0,0,0,11.993,23.986Zm0-2a9.994,9.994,0,1,1,9.994-9.994A9.946,9.946,0,0,1,11.993,21.987Z" fill="#07253f"/>
  <path id="Path_2619" data-name="Path 2619" d="M6.809,12.791a.511.511,0,0,0,.541.506h3.986L9.207,19.011c-.282.753.517,1.164,1.011.553l6.443-8.089a.7.7,0,0,0,.2-.459.511.511,0,0,0-.541-.506H12.335L14.463,4.8c.282-.753-.517-1.164-1.011-.564L7.008,12.321A.75.75,0,0,0,6.809,12.791Z" transform="translate(0.023 0.013)" fill="#07253f"/>
</svg>
