<svg xmlns="http://www.w3.org/2000/svg" width="24" height="23.999" viewBox="0 0 24 23.999">
  <g id="camera" transform="translate(0 3.216)">
    <rect id="Rectangle_7864" data-name="Rectangle 7864" width="24" height="23.999" transform="translate(0 -3.216)" fill="#07253f" opacity="0"/>
    <path id="Path_2733" data-name="Path 2733" d="M3.068,18.635H20.932c2.033,0,3.068-1.016,3.068-3.029V5.375c0-2.013-1.036-3.02-3.068-3.02H18.137a1.543,1.543,0,0,1-1.446-.645L15.909.831A2.349,2.349,0,0,0,13.915,0h-3.9A2.349,2.349,0,0,0,8.023.831l-.782.879a1.574,1.574,0,0,1-1.446.645H3.068Q0,2.355,0,5.375V15.606C0,17.619,1.026,18.635,3.068,18.635Zm.02-1.573a1.372,1.372,0,0,1-1.515-1.534V5.463A1.372,1.372,0,0,1,3.088,3.928h3.1a2.121,2.121,0,0,0,1.847-.713l.762-.86a1.826,1.826,0,0,1,1.71-.782h2.922a1.826,1.826,0,0,1,1.71.782l.762.86a2.121,2.121,0,0,0,1.847.713H20.9a1.375,1.375,0,0,1,1.524,1.534V15.528A1.374,1.374,0,0,1,20.9,17.062ZM12,15.655a5.34,5.34,0,1,0-5.335-5.345A5.311,5.311,0,0,0,12,15.655Zm0-1.485a3.86,3.86,0,1,1,3.85-3.86A3.856,3.856,0,0,1,12,14.169Zm5.726-7.456A1.222,1.222,0,1,0,18.958,5.5,1.248,1.248,0,0,0,17.726,6.713Z" transform="translate(0 -0.534)" fill="#07253f"/>
  </g>
</svg>
