<svg xmlns="http://www.w3.org/2000/svg" width="24" height="24" viewBox="0 0 24 24">
  <g id="Group_7215" data-name="Group 7215" transform="translate(-471 -662)">
    <rect id="Rectangle_7482" data-name="Rectangle 7482" width="24" height="24"
      transform="translate(471 662)" fill="#ffffff" opacity="0" />
    <path id="display-solid"
      d="M2.667,0A2.669,2.669,0,0,0,0,2.667v12a2.669,2.669,0,0,0,2.667,2.667H10l-.446,1.333H6.667a1.333,1.333,0,1,0,0,2.667H17.333a1.333,1.333,0,1,0,0-2.667H14.446L14,17.333h7.333A2.669,2.669,0,0,0,24,14.667v-12A2.669,2.669,0,0,0,21.333,0ZM21.333,2.667v12H2.667v-12Z"
      transform="translate(471 663.333)" fill="#ffffff" />
  </g>
</svg>