<svg xmlns="http://www.w3.org/2000/svg" width="24" height="24" viewBox="0 0 24 24">
  <path id="Union_13" data-name="Union 13"
    d="M8285.6-6269a3.6,3.6,0,0,1-3.6-3.6v-4.8a1.2,1.2,0,0,1,1.2-1.2,1.2,1.2,0,0,1,1.2,1.2v4.8a1.2,1.2,0,0,0,1.2,1.2h16.8a1.2,1.2,0,0,0,1.2-1.2v-4.8a1.2,1.2,0,0,1,1.2-1.2,1.2,1.2,0,0,1,1.2,1.2v4.8a3.6,3.6,0,0,1-3.6,3.6Zm8.344-7.2h0a.446.446,0,0,1-.053,0h0l-.052-.006h-.006a.408.408,0,0,1-.05-.009l-.01,0a.369.369,0,0,1-.045-.01l-.015,0-.039-.011-.021-.006c-.009,0-.021-.007-.034-.011l-.024-.009-.012,0a1.236,1.236,0,0,1-.311-.174.085.085,0,0,0-.01-.008.134.134,0,0,1-.021-.019.328.328,0,0,1-.028-.023l-.013-.011c-.014-.013-.027-.025-.04-.039h0v0l-6-6a1.2,1.2,0,0,1,0-1.7,1.2,1.2,0,0,1,1.7,0l3.951,3.951v-11.5a1.2,1.2,0,0,1,1.2-1.2,1.2,1.2,0,0,1,1.2,1.2v11.5l3.955-3.952a1.2,1.2,0,0,1,1.7,0,1.2,1.2,0,0,1,0,1.7l-6,6a1.179,1.179,0,0,1-.632.329l-.039.007-.016,0-.043.006h-.01a.3.3,0,0,1-.05,0h-.116Z"
    transform="translate(-8282 6293)" fill="#ffffff" />
</svg>