<svg xmlns="http://www.w3.org/2000/svg" width="24" height="24" viewBox="0 0 24 24">
  <g id="eye-solid" transform="translate(-240 -1318)">
    <rect id="Rectangle_7564" data-name="Rectangle 7564" width="24" height="24"
      transform="translate(240 1318)" fill="#66769B" opacity="0" />
    <path id="eye-solid-2" data-name="eye-solid"
      d="M12.023,32A11.724,11.724,0,0,0,4,35.358,16.508,16.508,0,0,0,.128,40.82a1.325,1.325,0,0,0,0,1.025A16.507,16.507,0,0,0,4,47.307a11.724,11.724,0,0,0,8.024,3.358,11.724,11.724,0,0,0,8.024-3.358,16.633,16.633,0,0,0,3.875-5.462,1.325,1.325,0,0,0,0-1.025,16.591,16.591,0,0,0-3.875-5.462A11.724,11.724,0,0,0,12.023,32Zm-6,9.332a6,6,0,1,1,6,6A6,6,0,0,1,6.023,41.332Zm6-2.666a2.669,2.669,0,0,1-2.666,2.666,2.7,2.7,0,0,1-.846-.137.355.355,0,0,0-.487.308,3.865,3.865,0,0,0,.133.862,4,4,0,1,0,4.037-5.033.354.354,0,0,0-.308.487A2.7,2.7,0,0,1,12.023,38.666Z"
      transform="translate(239.975 1288.667)" fill="#66769B" />
  </g>
</svg>