<svg id="figure.2.circle" xmlns="http://www.w3.org/2000/svg" width="24" height="23.998" viewBox="0 0 24 23.998">
  <rect id="Rectangle_6977" data-name="Rectangle 6977" width="24" height="23.998" fill="#07253f" opacity="0"/>
  <path id="Path_2606" data-name="Path 2606" d="M11.993,23.986A12.082,12.082,0,0,0,23.986,11.993,12.084,12.084,0,0,0,11.981,0,12.072,12.072,0,0,0,0,11.993,12.09,12.09,0,0,0,11.993,23.986Zm0-2a9.994,9.994,0,1,1,9.994-9.994A9.946,9.946,0,0,1,11.993,21.987Z" fill="#07253f"/>
  <path id="Path_2607" data-name="Path 2607" d="M11.968,9.869a8.077,8.077,0,0,1,1.27.071.517.517,0,0,1,.47.564,22.075,22.075,0,0,1-.106,2.669c-.129.694-.917,4.033-.964,4.162a.537.537,0,0,0,.517.729.586.586,0,0,0,.588-.506c.176-.682.729-3,.917-3.539.141-.423.223-.517.4-.517s.271.106.4.517c.188.517.764,2.845.917,3.539.094.353.282.506.588.506a.538.538,0,0,0,.506-.717c-.035-.141-.835-3.48-.952-4.174a24.705,24.705,0,0,1-.094-2.693.5.5,0,0,1,.365-.553c.27-.082,2.375-.282,2.681-.4a.575.575,0,0,0,.423-.553.56.56,0,0,0-.517-.576,2.353,2.353,0,0,0-.282.047c-.882.165-2.716.294-4.033.364-1.082.035-2.3.059-3.057.059-.776,0-2.022-.024-3.139-.059a35.779,35.779,0,0,1-4.045-.364A1.458,1.458,0,0,0,4.56,8.4a.543.543,0,0,0-.506.576.52.52,0,0,0,.423.553c.306.082,2.4.341,2.657.4a.515.515,0,0,1,.388.553,22.5,22.5,0,0,1-.118,2.693c-.129.694-.917,4.033-.964,4.162a.55.55,0,0,0,.517.729c.306,0,.482-.153.6-.506.176-.682.729-3,.929-3.539.129-.412.212-.517.376-.517.2,0,.294.106.423.506.165.529.764,2.857.917,3.551a.542.542,0,0,0,.564.506.532.532,0,0,0,.517-.717c-.035-.141-.835-3.48-.952-4.174a21.811,21.811,0,0,1-.094-2.669A.509.509,0,0,1,10.7,9.94,6.018,6.018,0,0,1,11.968,9.869Zm-3.1-1.6A1.235,1.235,0,1,0,7.629,7.035,1.23,1.23,0,0,0,8.864,8.27Zm6.2,0a1.235,1.235,0,1,0,0-2.469,1.235,1.235,0,0,0,0,2.469Z" transform="translate(0.014 0.019)" fill="#07253f"/>
</svg>
