<svg id="gauge.with.dots.needle.67percent" xmlns="http://www.w3.org/2000/svg" width="24" height="24" viewBox="0 0 24 24">
  <rect id="Rectangle_6982" data-name="Rectangle 6982" width="24" height="24" fill="#07253f" opacity="0"/>
  <path id="Path_2609" data-name="Path 2609" d="M12,23.988a12.084,12.084,0,0,0,12-11.994A12.086,12.086,0,0,0,11.984,0,12.074,12.074,0,0,0,0,11.994,12.092,12.092,0,0,0,12,23.988Zm0-2a10,10,0,1,1,10-10A9.948,9.948,0,0,1,12,21.989Z" fill="#07253f"/>
  <path id="Path_2610" data-name="Path 2610" d="M10.076,13.791a1.814,1.814,0,0,0,2.646,0,7.746,7.746,0,0,0,.506-.647l3.952-5.7a.548.548,0,0,0-.023-.729.577.577,0,0,0-.741-.035l-5.7,3.963a5.657,5.657,0,0,0-.635.494A1.807,1.807,0,0,0,10.076,13.791ZM7.194,17.718a1.011,1.011,0,1,0-1.011-1.011A1.019,1.019,0,0,0,7.194,17.718ZM5.207,12.991A1.011,1.011,0,1,0,4.2,11.98,1.019,1.019,0,0,0,5.207,12.991ZM7.194,8.264A1.011,1.011,0,1,0,6.183,7.253,1.019,1.019,0,0,0,7.194,8.264Zm4.775-2.023A1.011,1.011,0,1,0,10.958,5.23,1.019,1.019,0,0,0,11.969,6.241Zm6.739,6.75A1.011,1.011,0,1,0,17.7,11.98,1.019,1.019,0,0,0,18.708,12.991Zm-1.988,4.727a1.011,1.011,0,1,0-1.011-1.011A1.019,1.019,0,0,0,16.721,17.718Z" transform="translate(0.015 0.014)" fill="#07253f"/>
</svg>
