<svg xmlns="http://www.w3.org/2000/svg" width="24" height="24" viewBox="0 0 24 24">
  <g id="gearshape.fill" transform="translate(0.5)">
    <rect id="Rectangle_7281" data-name="Rectangle 7281" width="24" height="24" transform="translate(-0.5 0)" fill="#07253f" opacity="0"/>
    <path id="Path_2631" data-name="Path 2631" d="M10.944,24h2.113a1.131,1.131,0,0,0,1.16-.942l.6-2.526a10.711,10.711,0,0,0,1.263-.505l2.216,1.355a1.136,1.136,0,0,0,1.47-.149l1.481-1.47a1.154,1.154,0,0,0,.138-1.5l-1.355-2.193a8.58,8.58,0,0,0,.494-1.229l2.549-.609a1.121,1.121,0,0,0,.93-1.16V10.989a1.118,1.118,0,0,0-.93-1.148l-2.526-.609a11.382,11.382,0,0,0-.494-1.252L21.4,5.753a1.109,1.109,0,0,0-.138-1.47L19.763,2.8a1.149,1.149,0,0,0-1.435-.172L16.076,4.019A7.6,7.6,0,0,0,14.813,3.5l-.6-2.561A1.131,1.131,0,0,0,13.056,0H10.944A1.151,1.151,0,0,0,9.772.942l-.6,2.538A8.471,8.471,0,0,0,7.9,4.008L5.673,2.63A1.15,1.15,0,0,0,4.226,2.8L2.733,4.283A1.1,1.1,0,0,0,2.6,5.753L3.939,7.981c-.149.356-.333.781-.482,1.252L.93,9.841A1.118,1.118,0,0,0,0,10.989v2.078a1.121,1.121,0,0,0,.93,1.16l2.549.609a10.081,10.081,0,0,0,.482,1.229L2.618,18.258a1.141,1.141,0,0,0,.138,1.5l1.47,1.47a1.152,1.152,0,0,0,1.481.149l2.2-1.355a11.57,11.57,0,0,0,1.263.505l.6,2.526A1.151,1.151,0,0,0,10.944,24ZM12,16.054a4.054,4.054,0,1,1,4.054-4.065A4.078,4.078,0,0,1,12,16.054Z" transform="translate(-0.5 0)" fill="#07253f"/>
  </g>
</svg>
