<svg id="globe" xmlns="http://www.w3.org/2000/svg" width="24" height="23.998"
  viewBox="0 0 24 23.998">
  <rect id="Rectangle_6991" data-name="Rectangle 6991" width="24" height="23.998" fill="#66769B"
    opacity="0" />
  <path id="Path_2621" data-name="Path 2621"
    d="M11.993,23.328c3.269,0,5.938-4.833,5.938-11.311C17.931,5.5,15.274.67,11.993.67S6.055,5.5,6.055,12.017C6.055,18.5,8.724,23.328,11.993,23.328Zm0-21.235c2.3,0,4.362,4.586,4.362,9.924,0,5.244-2.058,9.877-4.362,9.877s-4.362-4.633-4.362-9.877C7.631,6.679,9.689,2.093,11.993,2.093ZM11.229.835V23.1h1.54V.835Zm.764,15.579c-3.621,0-6.831.952-8.477,2.469l1.188.976c1.552-1.235,4.08-1.9,7.29-1.9s5.738.67,7.29,1.9l1.187-.976C18.824,17.366,15.615,16.414,11.993,16.414Zm10.853-5.2H1.141v1.54H22.846ZM11.993,7.631c3.621,0,6.831-.952,8.477-2.469l-1.187-.976c-1.552,1.223-4.08,1.9-7.29,1.9s-5.738-.682-7.29-1.9l-1.188.976C5.162,6.679,8.372,7.631,11.993,7.631Zm0,16.355A12.082,12.082,0,0,0,23.986,11.993,12.084,12.084,0,0,0,11.981,0,12.072,12.072,0,0,0,0,11.993,12.09,12.09,0,0,0,11.993,23.986Zm0-1.6A10.474,10.474,0,0,1,1.6,11.993,10.463,10.463,0,0,1,11.981,1.6,10.484,10.484,0,0,1,22.387,11.993,10.474,10.474,0,0,1,11.993,22.387Z"
    fill="#66769B" />
</svg>