<svg id="lock" xmlns="http://www.w3.org/2000/svg" width="24" height="24" viewBox="0 0 24 24">
  <rect id="Rectangle_6702" data-name="Rectangle 6702" width="24" height="24" transform="translate(0 0)" fill="#07253f" opacity="0"/>
  <path id="Path_2190" data-name="Path 2190" d="M2.754,24h11.2c1.8,0,2.754-.979,2.754-2.913V12.655c0-1.922-.955-2.9-2.754-2.9H2.754c-1.8,0-2.754.979-2.754,2.9v8.432C0,23.021.955,24,2.754,24Zm.061-1.848c-.526,0-.832-.33-.832-.93v-8.7c0-.6.306-.918.832-.918H13.891c.538,0,.832.318.832.918v8.7c0,.6-.294.93-.832.93ZM2.142,10.7H4.088V6.572c0-3.1,1.97-4.724,4.259-4.724S12.63,3.476,12.63,6.572V10.7h1.934V6.829C14.564,2.227,11.553,0,8.347,0s-6.2,2.227-6.2,6.829Z" transform="translate(3.646 0)" fill="#07253f"/>
</svg>
