<svg xmlns="http://www.w3.org/2000/svg" width="24" height="23.999" viewBox="0 0 24 23.999">
  <g id="mail.and.text.magnifyingglass" transform="translate(0 1.564)">
    <rect id="Rectangle_6976" data-name="Rectangle 6976" width="24" height="23.999" transform="translate(0 -1.564)" fill="#07253f" opacity="0"/>
    <path id="Path_2602" data-name="Path 2602" d="M4.388,15.941v1.021a1.291,1.291,0,0,0,1.436,1.445h7.55l1.477,1.482H5.8c-1.915,0-2.891-.948-2.891-2.845v-2.2A6.923,6.923,0,0,0,4.388,15.941ZM24.623,5.8v11.25q0,2.845-2.891,2.845H20.47a.188.188,0,0,0,0-.028,2.35,2.35,0,0,0-.5-1.455H21.7a1.3,1.3,0,0,0,1.436-1.445V5.878A1.3,1.3,0,0,0,21.7,4.424H13.24A7.055,7.055,0,0,0,11.2,2.941H21.732C23.657,2.941,24.623,3.9,24.623,5.8Z" transform="translate(-0.623 -0.966)" fill="#07253f"/>
    <path id="Path_2603" data-name="Path 2603" d="M24.976,10.635a2.2,2.2,0,1,1-2.2-2.209A2.208,2.208,0,0,1,24.976,10.635Z" transform="translate(-4.41 -2.142)" fill="#07253f"/>
    <path id="Path_2604" data-name="Path 2604" d="M7.346,16.673A7.346,7.346,0,1,0,0,9.327,7.355,7.355,0,0,0,7.346,16.673Zm0-1.574a5.772,5.772,0,1,1,5.772-5.772A5.776,5.776,0,0,1,7.346,15.1Zm5.247-1.915-1.565,1.51,5.726,5.735a1.056,1.056,0,0,0,.773.313A1.045,1.045,0,0,0,18.6,19.656a1.1,1.1,0,0,0-.3-.755Z" transform="translate(0 -0.76)" fill="#07253f"/>
    <path id="Path_2605" data-name="Path 2605" d="M5.393,10.23h5.938a.644.644,0,1,0,0-1.289H5.393a.644.644,0,0,0,0,1.289Zm0,2.458H9.738a.641.641,0,0,0,.654-.635.65.65,0,0,0-.654-.654H5.393a.629.629,0,0,0-.635.654A.619.619,0,0,0,5.393,12.688Z" transform="translate(-1.02 -2.253)" fill="#07253f"/>
  </g>
</svg>
