<svg xmlns="http://www.w3.org/2000/svg" width="24" height="24" viewBox="0 0 24 24">
  <g id="microphone-solid" transform="translate(-874 -499)">
    <rect id="Rectangle_7590" data-name="Rectangle 7590" width="24" height="24" transform="translate(874 499)" fill="#07253f" opacity="0"/>
    <path id="microphone-solid-2" data-name="microphone-solid" d="M24.25,0a4.5,4.5,0,0,0-4.5,4.5V12a4.5,4.5,0,0,0,9,0V4.5A4.5,4.5,0,0,0,24.25,0Zm-6,10.125a1.125,1.125,0,0,0-2.25,0V12a8.253,8.253,0,0,0,7.125,8.175V21.75h-2.25a1.125,1.125,0,0,0,0,2.25h6.75a1.125,1.125,0,0,0,0-2.25h-2.25V20.175A8.253,8.253,0,0,0,32.5,12V10.125a1.125,1.125,0,0,0-2.25,0V12a6,6,0,0,1-12,0Z" transform="translate(861.75 499)" fill="#07253f"/>
  </g>
</svg>
