<svg xmlns="http://www.w3.org/2000/svg" width="24" height="24" viewBox="0 0 24 24">
  <g id="person" transform="translate(0 0)">
    <rect id="Rectangle_6695" data-name="Rectangle 6695" width="24" height="24"
      transform="translate(0 0)" fill="#66769B" opacity="0" />
    <path id="Path_2186" data-name="Path 2186"
      d="M2.857,21.987H17.518c1.936,0,2.857-.583,2.857-1.866,0-3.056-3.86-7.476-10.182-7.476S0,17.065,0,20.121C0,21.4.921,21.987,2.857,21.987Zm-.548-1.761c-.3,0-.432-.082-.432-.327,0-1.913,2.962-5.493,8.316-5.493s8.3,3.581,8.3,5.493c0,.245-.117.327-.42.327ZM10.194,11.2a5.29,5.29,0,0,0,5.038-5.482A5.161,5.161,0,0,0,10.194.387,5.211,5.211,0,0,0,5.155,5.74,5.284,5.284,0,0,0,10.194,11.2Zm0-1.761a3.475,3.475,0,0,1-3.161-3.7,3.381,3.381,0,0,1,3.161-3.592,3.352,3.352,0,0,1,3.161,3.569A3.49,3.49,0,0,1,10.194,9.437Z"
      transform="translate(1.881 0.813)" fill="#66769B" />
  </g>
</svg>