<svg id="plus.circle.fill" xmlns="http://www.w3.org/2000/svg" width="24" height="24" viewBox="0 0 24 24">
  <rect id="Rectangle_7436" data-name="Rectangle 7436" width="24" height="24" fill="#07253f" opacity="0"/>
  <path id="Path_2633" data-name="Path 2633" d="M24,12A12.089,12.089,0,0,1,12,24,12.1,12.1,0,0,1,0,12,12.079,12.079,0,0,1,11.988,0,12.091,12.091,0,0,1,24,12ZM10.977,7.294v3.682H7.294a.988.988,0,0,0-1.035,1.035.967.967,0,0,0,1.035,1h3.682v3.694a1.024,1.024,0,1,0,2.047,0V13.012h3.694a.973.973,0,0,0,1.035-1,1,1,0,0,0-1.035-1.035H13.024V7.294a1,1,0,0,0-1.035-1.047A.986.986,0,0,0,10.977,7.294Z" fill="#07253f"/>
</svg>
