<svg xmlns="http://www.w3.org/2000/svg" width="24" height="24" viewBox="0 0 24 24">
  <g id="receipt-solid" transform="translate(-156 -5069)">
    <rect id="Rectangle_7548" data-name="Rectangle 7548" width="24" height="24"
      transform="translate(156 5069)" fill="#006CF2" opacity="0" />
    <path id="receipt-solid-2" data-name="receipt-solid"
      d="M.656.119a1.123,1.123,0,0,1,1.2.169L3.75,1.91,5.644.288a1.123,1.123,0,0,1,1.462,0L9,1.91,10.894.288a1.123,1.123,0,0,1,1.463,0L14.25,1.91,16.144.288A1.124,1.124,0,0,1,18,1.141V22.892a1.124,1.124,0,0,1-1.856.853L14.25,22.124l-1.894,1.622a1.123,1.123,0,0,1-1.463,0L9,22.124,7.106,23.746a1.123,1.123,0,0,1-1.462,0L3.75,22.124,1.856,23.746A1.124,1.124,0,0,1,0,22.892V1.141A1.125,1.125,0,0,1,.656.119ZM4.5,6.766a.75.75,0,0,0,0,1.5h9a.75.75,0,0,0,0-1.5Zm-.75,9.751a.752.752,0,0,0,.75.75h9a.75.75,0,0,0,0-1.5h-9A.752.752,0,0,0,3.75,16.517Zm.75-5.25a.75.75,0,0,0,0,1.5h9a.75.75,0,0,0,0-1.5Z"
      transform="translate(159 5068.983)" fill="#006CF2" />
  </g>
</svg>