<svg xmlns="http://www.w3.org/2000/svg" width="24" height="23.999" viewBox="0 0 24 23.999">
  <g id="rectangle.portrait.and.arrow.right" transform="translate(-1.91)">
    <rect id="Rectangle_7846" data-name="Rectangle 7846" width="24" height="23.999"
      transform="translate(1.91)" fill="#66769B" opacity="0" />
    <path id="Path_2729" data-name="Path 2729"
      d="M19.3,3.245V8.258H17.631V3.276a1.45,1.45,0,0,0-1.623-1.612H5.207A1.457,1.457,0,0,0,3.574,3.276V18.894a1.45,1.45,0,0,0,1.633,1.6h10.8a1.442,1.442,0,0,0,1.623-1.6V13.9H19.3v5.023q0,3.24-3.2,3.235H5.114c-2.129,0-3.2-1.075-3.2-3.235V3.245C1.91,1.1,2.985,0,5.114,0H16.091C18.231,0,19.3,1.1,19.3,3.245Z"
      transform="translate(0 0.919)" fill="#66769B" />
    <path id="Path_2730" data-name="Path 2730"
      d="M12.654,12.8H23.269l1.54-.062-.724.7L22.411,15a.754.754,0,0,0-.248.558.732.732,0,0,0,1.271.517L26.8,12.581a.806.806,0,0,0,.279-.6.791.791,0,0,0-.279-.6L23.434,7.889a.737.737,0,0,0-.548-.248.712.712,0,0,0-.724.744.76.76,0,0,0,.248.568l1.674,1.571.734.7-1.55-.072H12.654a.832.832,0,0,0-.806.827A.823.823,0,0,0,12.654,12.8Z"
      transform="translate(-1.173 0.018)" fill="#66769B" />
  </g>
</svg>