<svg xmlns="http://www.w3.org/2000/svg" width="24" height="24" viewBox="0 0 24 24">
  <g id="rectangle.and.hand.point.up.left.filled" transform="translate(0 1.843)">
    <rect id="Rectangle_5549" data-name="Rectangle 5549" width="24" height="24" transform="translate(0 -1.843)" fill="#07253f" opacity="0"/>
    <path id="Path_54" data-name="Path 54" d="M3,16.2H7.219a4.522,4.522,0,0,1-.8-1.392H3.032a1.482,1.482,0,0,1-1.639-1.649V3.351A1.489,1.489,0,0,1,3.032,1.692H16.057a1.486,1.486,0,0,1,1.629,1.659V7.044a2.61,2.61,0,0,1,1.392.4V3.262C19.079,1.287,18.092.3,16.087.3H3c-2,0-3,.978-3,2.963v9.984C0,15.231,1,16.2,3,16.2Zm16.561,5.293c4.029-1.471,5.362-4.8,3.8-9.125l-.652-1.787c-.583-1.62-1.738-2.34-2.627-2.015a.3.3,0,0,0-.2.4l.286.8c.128.365.01.622-.207.711-.247.089-.5-.03-.642-.4l-.188-.523A1.543,1.543,0,0,0,17.114,8.5c-.375.138-.494.346-.375.672l.395,1.067c.148.375.01.632-.207.711-.237.089-.5-.03-.632-.4l-.355-1A1.477,1.477,0,0,0,13.924,8.5c-.355.119-.484.365-.375.662l.76,2.113c.138.375.02.622-.2.711-.247.089-.5-.03-.642-.4L10.912,4.536a1.117,1.117,0,1,0-2.094.76l3.763,10.31a.365.365,0,0,1-.188.5c-.158.04-.316.01-.523-.207L9.342,13.177a1.019,1.019,0,0,0-1.185-.336,1.033,1.033,0,0,0-.691,1.343,1.587,1.587,0,0,0,.286.494l3.14,3.93C13.539,21.926,16.591,22.568,19.563,21.492Z" transform="translate(0 -1.1)" fill="#07253f"/>
  </g>
</svg>
