<svg xmlns="http://www.w3.org/2000/svg" width="24" height="24" viewBox="0 0 24 24">
  <path id="screwdriver-wrench-solid" d="M3.657.223A1.124,1.124,0,0,0,2.176.317L.3,2.192A1.129,1.129,0,0,0,.2,3.673l3.75,4.875a1.126,1.126,0,0,0,.891.441H7.379L12.488,14.1a3.621,3.621,0,0,0,.67,4.2l5.25,5.25a1.5,1.5,0,0,0,2.123,0l3-3a1.5,1.5,0,0,0,0-2.123l-5.25-5.25a3.628,3.628,0,0,0-4.2-.67L8.972,7.395V4.863a1.119,1.119,0,0,0-.441-.891ZM.906,18.555a3.182,3.182,0,1,0,4.5,4.5l5.522-5.522a5.143,5.143,0,0,1-.169-3.051L7.866,11.59ZM23.972,6.738a6.817,6.817,0,0,0-.15-1.43.66.66,0,0,0-1.134-.281l-3,3a.753.753,0,0,1-.53.22h-2.69a.752.752,0,0,1-.75-.75V4.8a.753.753,0,0,1,.22-.53l3-3A.66.66,0,0,0,18.656.139a6.894,6.894,0,0,0-1.434-.15,6.751,6.751,0,0,0-6.75,6.75v.037l4,4a5.115,5.115,0,0,1,4.875,1.345l.736.736A6.758,6.758,0,0,0,23.972,6.738ZM2.6,20.238a1.125,1.125,0,1,1,1.125,1.125A1.125,1.125,0,0,1,2.6,20.238Z" transform="translate(0.028 0.012)" fill="#07253f"/>
</svg>
