<svg xmlns="http://www.w3.org/2000/svg" width="24" height="23.997" viewBox="0 0 24 23.997">
  <g id="square.grid.2x2" transform="translate(0.073 0.402)">
    <rect id="Rectangle_7845" data-name="Rectangle 7845" width="24" height="23.997"
      transform="translate(-0.073 -0.402)" fill="#66769B" opacity="0" />
    <path id="Union_12" data-name="Union 12"
      d="M14.02,21.6a2,2,0,0,1-2.252-2.289V14.056a2,2,0,0,1,2.252-2.288h5.339A2,2,0,0,1,21.6,14.056v5.256A2,2,0,0,1,19.359,21.6Zm-.6-7.533v5.244a.552.552,0,0,0,.622.634h5.292c.41,0,.61-.212.61-.634V14.067c0-.434-.2-.645-.61-.645H14.044C13.622,13.422,13.422,13.633,13.422,14.067ZM2.241,21.6A2,2,0,0,1,0,19.312V14.056a2,2,0,0,1,2.241-2.288H7.592a2,2,0,0,1,2.241,2.288v5.256A2,2,0,0,1,7.592,21.6Zm-.586-7.533v5.244c0,.423.2.634.61.634H7.556a.557.557,0,0,0,.621-.634V14.067c0-.434-.212-.645-.621-.645H2.264C1.854,13.422,1.654,13.633,1.654,14.067ZM14.02,9.832a2.006,2.006,0,0,1-2.252-2.3V2.288A2,2,0,0,1,14.02,0h5.339A1.994,1.994,0,0,1,21.6,2.288V7.533a2,2,0,0,1-2.241,2.3Zm-.6-7.545V7.533c0,.433.2.645.622.645h5.292c.41,0,.61-.212.61-.645V2.288c0-.422-.2-.633-.61-.633H14.044A.552.552,0,0,0,13.422,2.288ZM2.241,9.832A2,2,0,0,1,0,7.533V2.288A1.994,1.994,0,0,1,2.241,0H7.592A1.994,1.994,0,0,1,9.832,2.288V7.533a2,2,0,0,1-2.241,2.3ZM1.654,2.288V7.533c0,.433.2.645.61.645H7.556a.561.561,0,0,0,.621-.645V2.288a.557.557,0,0,0-.621-.633H2.264C1.854,1.654,1.654,1.866,1.654,2.288Z"
      transform="translate(1.127 0.798)" fill="#66769B" />
  </g>
</svg>