<svg id="square.text.square" xmlns="http://www.w3.org/2000/svg" width="24" height="24" viewBox="0 0 24 24">
  <rect id="Rectangle_6985" data-name="Rectangle 6985" width="24" height="24" fill="#07253f" opacity="0"/>
  <g id="Group_6998" data-name="Group 6998" transform="translate(2 1.998)">
    <path id="Path_2616" data-name="Path 2616" d="M3.411,20.026H16.589C18.87,20.026,20,18.9,20,16.657V3.392C20,1.153,18.87.023,16.589.023H3.411Q.005.023,0,3.392V16.657Q0,20.031,3.411,20.026Zm.022-1.749a1.516,1.516,0,0,1-1.684-1.706V3.478A1.516,1.516,0,0,1,3.433,1.773H16.567a1.52,1.52,0,0,1,1.684,1.706V16.571a1.52,1.52,0,0,1-1.684,1.706Z" transform="translate(0 -0.023)" fill="#07253f"/>
    <path id="Path_2617" data-name="Path 2617" d="M4.915,12.465h10.7a.668.668,0,0,0,0-1.336H4.915a.668.668,0,1,0,0,1.336Zm0,3.716h7.833a.668.668,0,1,0,0-1.336H4.915a.668.668,0,1,0,0,1.336ZM4.263,4.99V7.641A.988.988,0,0,0,5.339,8.716H7.989A.988.988,0,0,0,9.065,7.641V4.99A.988.988,0,0,0,7.989,3.914H5.339A.988.988,0,0,0,4.263,4.99Z" transform="translate(-0.309 -0.307)" fill="#07253f"/>
  </g>
</svg>
