<svg id="w3c" xmlns="http://www.w3.org/2000/svg" xmlns:xlink="http://www.w3.org/1999/xlink" width="24" height="24" viewBox="0 0 24 24">
  <defs>
    <clipPath id="clip-path">
      <rect id="Rectangle_6990" data-name="Rectangle 6990" width="24" height="24" fill="#07253f"/>
    </clipPath>
  </defs>
  <g id="Group_7004" data-name="Group 7004" clip-path="url(#clip-path)">
    <g id="Group_7003" data-name="Group 7003" transform="translate(0 0)">
      <g id="Group_7002" data-name="Group 7002" clip-path="url(#clip-path)">
        <g id="Group_7001" data-name="Group 7001" transform="translate(0 0)" opacity="0">
          <g id="Group_7000" data-name="Group 7000" transform="translate(0 0)">
            <g id="Group_6999" data-name="Group 6999" clip-path="url(#clip-path)">
              <rect id="Rectangle_6987" data-name="Rectangle 6987" width="24" height="24" transform="translate(0 0)" fill="#07253f"/>
            </g>
          </g>
        </g>
        <path id="Path_2620" data-name="Path 2620" d="M2.943,19.969H16.851l-.019,1.5H2.916Q0,21.464,0,18.585V7.249C0,5.327.985,4.371,2.916,4.371H18.986q2.912,0,2.916,2.878v6.639l-1.5-1.539V7.323a1.306,1.306,0,0,0-1.448-1.458H2.943A1.3,1.3,0,0,0,1.494,7.323V18.511a1.307,1.307,0,0,0,1.449,1.458m20.936-2.228L18.81,12.523a.343.343,0,0,0-.6.242l-.083,7.418a.371.371,0,0,0,.65.241L20.184,19l1.588,3.918a.347.347,0,0,0,.437.195l.919-.372a.321.321,0,0,0,.148-.445l-1.661-3.854,2-.083a.356.356,0,0,0,.269-.622M7.185,13.616l-.744-3.043H5.454l-.747,3.043H4.685l-.623-3.043H2.849l1.2,4.608H5.209l.727-2.762h.022l.729,2.762H7.84l1.2-4.608H7.833l-.626,3.043Zm4.469.462a.565.565,0,0,1-.243.193.908.908,0,0,1-.376.071,1.046,1.046,0,0,1-.381-.063.673.673,0,0,1-.257-.171.477.477,0,0,1-.119-.238l-.006-.039H9.156l0,.042a1.369,1.369,0,0,0,.275.728,1.588,1.588,0,0,0,.648.489,2.413,2.413,0,0,0,.955.175,2.665,2.665,0,0,0,1.007-.174A1.509,1.509,0,0,0,12.7,14.6a1.2,1.2,0,0,0,.233-.739v-.006a.941.941,0,0,0-.308-.734,1.4,1.4,0,0,0-.826-.329V12.77a1.441,1.441,0,0,0,.476-.191,1.072,1.072,0,0,0,.347-.353.97.97,0,0,0,.129-.506v-.006a1.035,1.035,0,0,0-.211-.645,1.364,1.364,0,0,0-.6-.426,2.5,2.5,0,0,0-.914-.152,2.216,2.216,0,0,0-.9.17,1.467,1.467,0,0,0-.608.474,1.383,1.383,0,0,0-.256.717l0,.045h1.063l0-.029a.507.507,0,0,1,.106-.264.56.56,0,0,1,.239-.175.911.911,0,0,1,.352-.063.857.857,0,0,1,.341.061.474.474,0,0,1,.217.175.491.491,0,0,1,.074.274v.007a.465.465,0,0,1-.088.28.556.556,0,0,1-.25.189,1,1,0,0,1-.387.067h-.492v.795h.5a1.006,1.006,0,0,1,.589.147.49.49,0,0,1,.208.428V13.8a.468.468,0,0,1-.087.283m4.736-.618a1.086,1.086,0,0,1-.17.445.865.865,0,0,1-.325.288.987.987,0,0,1-.454.1.931.931,0,0,1-.555-.17,1.066,1.066,0,0,1-.364-.488,2.046,2.046,0,0,1-.128-.764v0a2,2,0,0,1,.128-.755,1.079,1.079,0,0,1,.362-.484.922.922,0,0,1,.554-.169.986.986,0,0,1,.47.105.852.852,0,0,1,.318.289,1.07,1.07,0,0,1,.158.426l.007.044h1.131l0-.029a1.786,1.786,0,0,0-.286-.926,1.867,1.867,0,0,0-.727-.645,2.307,2.307,0,0,0-1.066-.237,2.4,2.4,0,0,0-1.189.283,1.917,1.917,0,0,0-.778.816,2.776,2.776,0,0,0-.274,1.284v0a2.8,2.8,0,0,0,.273,1.286,1.919,1.919,0,0,0,.776.818,2.378,2.378,0,0,0,1.192.284,2.3,2.3,0,0,0,1.062-.236,1.9,1.9,0,0,0,.731-.643,1.777,1.777,0,0,0,.292-.921v-.036H16.4Z" transform="translate(0 -0.908)" fill="#07253f"/>
      </g>
    </g>
  </g>
</svg>
