<svg xmlns="http://www.w3.org/2000/svg" xmlns:xlink="http://www.w3.org/1999/xlink" width="24" height="24" viewBox="0 0 24 24">
  <defs>
    <clipPath id="clip-path">
      <rect id="Rectangle_5550" data-name="Rectangle 5550" width="22.34" height="24" fill="#07253f"/>
    </clipPath>
  </defs>
  <g id="Group_6974" data-name="Group 6974" transform="translate(2 0)">
    <rect id="Rectangle_5554" data-name="Rectangle 5554" width="24" height="24" transform="translate(-2 0)" fill="#07253f" opacity="0"/>
    <g id="Group_5524" data-name="Group 5524" transform="translate(-1.143 0)" clip-path="url(#clip-path)">
      <path id="Path_55" data-name="Path 55" d="M12.436,4.649H4.71a.613.613,0,0,0-.634.617A.622.622,0,0,0,4.71,5.9h7.726a.62.62,0,0,0,.626-.634.611.611,0,0,0-.626-.617m0,3.554H4.71a.613.613,0,0,0-.634.617.622.622,0,0,0,.634.634h7.726a.62.62,0,0,0,.626-.634.611.611,0,0,0-.626-.617M8.36,11.758H4.71a.626.626,0,1,0,0,1.251H8.36a.626.626,0,1,0,0-1.251m0,0H4.71a.626.626,0,1,0,0,1.251H8.36a.626.626,0,1,0,0-1.251M12.436,8.2H4.71a.613.613,0,0,0-.634.617.622.622,0,0,0,.634.634h7.726a.62.62,0,0,0,.626-.634.611.611,0,0,0-.626-.617m0-3.554H4.71a.613.613,0,0,0-.634.617A.622.622,0,0,0,4.71,5.9h7.726a.62.62,0,0,0,.626-.634.611.611,0,0,0-.626-.617M13.975,0H3.163C1.052,0,0,1.078,0,3.2V18.65q0,3.194,3.163,3.189H9.881A7.127,7.127,0,0,1,9.1,20.2H3.242a1.42,1.42,0,0,1-1.6-1.582V3.233a1.43,1.43,0,0,1,1.6-1.59H13.9a1.43,1.43,0,0,1,1.6,1.59V10.4c.226-.017.452-.026.687-.026a6.846,6.846,0,0,1,.947.061V3.2c0-2.121-1.043-3.2-3.155-3.2M8.36,11.758H4.71a.626.626,0,1,0,0,1.251H8.36a.626.626,0,1,0,0-1.251M12.436,8.2H4.71a.613.613,0,0,0-.634.617.622.622,0,0,0,.634.634h7.726a.62.62,0,0,0,.626-.634.611.611,0,0,0-.626-.617m0-3.554H4.71a.613.613,0,0,0-.634.617A.622.622,0,0,0,4.71,5.9h7.726a.62.62,0,0,0,.626-.634.611.611,0,0,0-.626-.617M10.022,17.841A6.159,6.159,0,1,1,16.181,24a6.159,6.159,0,0,1-6.159-6.159m3.886-2.071a.577.577,0,1,0-.482,1.049l.029.012.286.123a6.072,6.072,0,0,0,1.29.392v1.205a.922.922,0,0,1-.051.3l-.69,2.071a.579.579,0,0,0,1.089.391l.008-.025.587-1.761a.222.222,0,0,1,.423,0l.587,1.761a.578.578,0,0,0,1.1-.366l-.69-2.072a.9.9,0,0,1-.05-.3v-1.2a6.234,6.234,0,0,0,1.289-.392l.286-.123a.577.577,0,1,0-.436-1.069l-.018.008-.289.12a5.039,5.039,0,0,1-3.979,0l-.286-.123Zm2.273-.238a.962.962,0,1,0-.962-.962.962.962,0,0,0,.962.962" transform="translate(0 0)" fill="#07253f"/>
    </g>
  </g>
</svg>
