<svg xmlns="http://www.w3.org/2000/svg" width="12" height="12" viewBox="0 0 12 12"><rect width="12" height="12" transform="translate(0 0)" fill="#66769b" opacity="0"/><path d="M0,9a.755.755,0,0,0,.739.772.757.757,0,0,0,.731-.74V6.027l-.146-3.8,1.341,1.52,8.06,8.065a.709.709,0,0,0,.512.22A.789.789,0,0,0,12,11.279a.74.74,0,0,0-.227-.512L3.721,2.694,2.21,1.368l3.965.13H9A.748.748,0,0,0,9.733.775.743.743,0,0,0,8.97.035H.8A.742.742,0,0,0,.008.824Z" transform="translate(0 -0.035)" fill="#66769b"/></svg>