<svg xmlns="http://www.w3.org/2000/svg" width="24" height="23.998" viewBox="0 0 24 23.998"><g transform="translate(1.278)"><rect width="24" height="23.998" transform="translate(-1.278)" fill="#07253f" opacity="0"/><path d="M1.721,19.426h18.07c1.072,0,1.721-.547,1.721-1.379,0-1.14-1.163-2.166-2.143-3.181-.752-.787-.958-2.405-1.049-3.717-.08-4.378-1.243-7.387-4.275-8.482A3.438,3.438,0,0,0,10.751,0,3.425,3.425,0,0,0,7.467,2.668c-3.033,1.094-4.2,4.1-4.275,8.482-.091,1.311-.3,2.93-1.049,3.717C1.151,15.881,0,16.907,0,18.047,0,18.879.638,19.426,1.721,19.426ZM10.751,24a3.428,3.428,0,0,0,3.5-3.01H7.262A3.424,3.424,0,0,0,10.751,24Z" transform="translate(-0.035)" fill="#07253f"/></g></svg>