<svg xmlns="http://www.w3.org/2000/svg" width="32" height="31.999" viewBox="0 0 32 31.999"><g transform="translate(0 3.216)"><rect width="32" height="31.999" transform="translate(0 -3.216)" fill="#fff" opacity="0"/><path d="M4.091,24.847H27.909c2.71,0,4.091-1.355,4.091-4.039V7.166c0-2.684-1.381-4.026-4.091-4.026H24.182a2.058,2.058,0,0,1-1.928-.86L21.212,1.107A3.131,3.131,0,0,0,18.554,0h-5.2A3.131,3.131,0,0,0,10.7,1.107L9.655,2.28a2.1,2.1,0,0,1-1.928.86H4.091Q.007,3.14,0,7.166V20.808C0,23.492,1.368,24.847,4.091,24.847Zm.026-2.1A1.829,1.829,0,0,1,2.1,20.7V7.283a1.829,1.829,0,0,1,2.02-2.046h4.13a2.828,2.828,0,0,0,2.463-.951L11.726,3.14A2.435,2.435,0,0,1,14.007,2.1h3.9a2.435,2.435,0,0,1,2.28,1.042L21.2,4.287a2.828,2.828,0,0,0,2.462.951H27.87A1.833,1.833,0,0,1,29.9,7.283V20.7a1.833,1.833,0,0,1-2.033,2.046ZM16,20.873a7.121,7.121,0,1,0-7.114-7.127A7.082,7.082,0,0,0,16,20.873Zm0-1.98a5.147,5.147,0,1,1,5.134-5.147A5.141,5.141,0,0,1,16,18.893Zm7.635-9.941a1.629,1.629,0,1,0,1.642-1.616A1.664,1.664,0,0,0,23.635,8.951Z" transform="translate(0 0.36)" fill="#fff"/></g></svg>