<svg xmlns="http://www.w3.org/2000/svg" width="24" height="24" viewBox="0 0 24 24"><g transform="translate(-287 -548)"><g transform="translate(287 548)" fill="#fff" stroke="#707070" stroke-width="1" opacity="0"><rect width="24" height="24" stroke="none"/><rect x="0.5" y="0.5" width="23" height="23" fill="none"/></g><path d="M3,33.5a1.5,1.5,0,0,0-3,0V49.25A3.749,3.749,0,0,0,3.75,53H22.5a1.5,1.5,0,0,0,0-3H3.75A.752.752,0,0,1,3,49.25Zm19.059,4.059a1.5,1.5,0,0,0-2.123-2.123L15,40.377l-2.691-2.691a1.5,1.5,0,0,0-2.123,0l-5.25,5.25a1.5,1.5,0,1,0,2.123,2.123l4.191-4.186,2.691,2.691a1.5,1.5,0,0,0,2.123,0l6-6Z" transform="translate(287 517.5)" fill="#fff"/></g></svg>