<svg xmlns="http://www.w3.org/2000/svg" width="20" height="20.003" viewBox="0 0 20 20.003"><g transform="translate(0 0.281)"><rect width="20" height="20.003" transform="translate(0 -0.281)" fill="#fff" opacity="0"/><path d="M9.5,19a9.446,9.446,0,0,0,6.119-2.265l-6.706-6.58a.665.665,0,0,1-.223-.578V.028A9.574,9.574,0,0,0,0,9.5,9.573,9.573,0,0,0,9.5,19ZM19,9.5a9.45,9.45,0,0,0-.931-4.054l-7.609,4.38,6.082,6.011A9.481,9.481,0,0,0,19,9.5Zm-9.062-.82,7.516-4.324A9.6,9.6,0,0,0,9.938,0Z" transform="translate(0.5 0.219)" fill="#fff"/></g></svg>