<svg xmlns="http://www.w3.org/2000/svg" width="32" height="32" viewBox="0 0 32 32"><g fill="none" stroke="#fff" stroke-width="1"><circle cx="16" cy="16" r="16" stroke="none"/><circle cx="16" cy="16" r="15.5" fill="none"/></g><g transform="translate(-565 -1285)"><rect width="16" height="16" transform="translate(572.999 1293)" fill="#fff" opacity="0"/><path d="M30.6,65.761a2.011,2.011,0,0,0-1.415-1.424A47.5,47.5,0,0,0,22.933,64a47.5,47.5,0,0,0-6.251.337,2.011,2.011,0,0,0-1.415,1.424,22.647,22.647,0,0,0,0,7.754,1.981,1.981,0,0,0,1.415,1.4,47.5,47.5,0,0,0,6.251.337,47.5,47.5,0,0,0,6.251-.337,1.981,1.981,0,0,0,1.415-1.4,22.647,22.647,0,0,0,0-7.754Zm-9.3,6.257V67.258l4.182,2.38Z" transform="translate(558.066 1231.374)" fill="#fff"/></g></svg>