<svg xmlns="http://www.w3.org/2000/svg" width="32" height="32" viewBox="0 0 32 32"><g fill="none" stroke="#fff" stroke-width="1"><circle cx="16" cy="16" r="16" stroke="none"/><circle cx="16" cy="16" r="15.5" fill="none"/></g><g transform="translate(-412 -1116)"><rect width="16" height="16" transform="translate(420 1124)" fill="#fff" opacity="0"/><path d="M14.355,51.322c.01.142.01.284.01.427a9.268,9.268,0,0,1-9.33,9.334A9.264,9.264,0,0,1,0,59.609a6.781,6.781,0,0,0,.792.041,6.566,6.566,0,0,0,4.071-1.4A3.285,3.285,0,0,1,1.8,55.973a4.133,4.133,0,0,0,.619.051,3.467,3.467,0,0,0,.863-.112A3.281,3.281,0,0,1,.65,52.693v-.041a3.3,3.3,0,0,0,1.482.416,3.286,3.286,0,0,1-1.015-4.388,9.32,9.32,0,0,0,6.761,3.433,3.7,3.7,0,0,1-.081-.752,3.282,3.282,0,0,1,5.675-2.245,6.455,6.455,0,0,0,2.081-.792,3.271,3.271,0,0,1-1.442,1.808A6.572,6.572,0,0,0,16,49.626,7.05,7.05,0,0,1,14.355,51.322Z" transform="translate(420 1077.418)" fill="#fff"/></g></svg>