<svg xmlns="http://www.w3.org/2000/svg" width="112" height="40" viewBox="0 0 112 40"><rect width="112" height="40" rx="20" fill="#07253f"/><text transform="translate(68 24)" fill="#fff" font-size="12" font-family="Rubik-SemiBold, Rubik" font-weight="600"><tspan x="-27.69" y="0">شاهد الكل</tspan></text><g transform="translate(16 13.465)"><rect width="16" height="13.071" fill="#fff" opacity="0"/><path d="M0,6.531a.79.79,0,0,0,.267.577l5.721,5.712a.785.785,0,0,0,.56.241.734.734,0,0,0,.758-.741.754.754,0,0,0-.215-.543L5.161,9.814,1.749,6.7l-.181.422L4.342,7.3h10.9A.731.731,0,0,0,16,6.531a.731.731,0,0,0-.758-.767H4.342l-2.774.172.181.431L5.161,3.248l1.93-1.964A.769.769,0,0,0,7.306.741.734.734,0,0,0,6.548,0a.771.771,0,0,0-.577.258l-5.7,5.7A.79.79,0,0,0,0,6.531Z" fill="#fff"/></g></svg>