<svg xmlns="http://www.w3.org/2000/svg" width="24" height="24" viewBox="0 0 24 24"><rect width="24" height="24" fill="#fff" opacity="0"/><path d="M4,14.971l.281,1.123A2.485,2.485,0,0,0,6.961,18.3H17.039a2.48,2.48,0,0,0,2.685-2.208L20,14.971ZM3.7,13.689H20.323l1.759-7.2-.767-.44L17,9.188a.442.442,0,0,1-.711-.112L12.229,2.938l-.449-.019L7.682,9.1c-.159.243-.346.318-.664.094L2.788,6.11l-.9.234ZM2.236,8.356A2.236,2.236,0,1,0,0,6.11,2.23,2.23,0,0,0,2.236,8.356ZM12,4.463A2.232,2.232,0,1,0,9.768,2.227,2.234,2.234,0,0,0,12,4.463Zm9.759,3.892A2.236,2.236,0,1,0,19.537,6.11,2.244,2.244,0,0,0,21.764,8.356Z" transform="translate(0 2.849)" fill="#fff"/></svg>