<svg xmlns="http://www.w3.org/2000/svg" width="20" height="20" viewBox="0 0 20 20"><rect width="20" height="20" fill="#fff" opacity="0"/><path d="M3.337,12.476l.234.936a2.071,2.071,0,0,0,2.23,1.84h8.4a2.067,2.067,0,0,0,2.238-1.84l.234-.936ZM3.08,11.407H16.936l1.466-6-.639-.366-3.595,2.62a.368.368,0,0,1-.593-.094L10.191,2.448l-.374-.016L6.4,7.587c-.133.2-.288.265-.554.078L2.324,5.092l-.749.195ZM1.864,6.963A1.864,1.864,0,1,0,0,5.092,1.859,1.859,0,0,0,1.864,6.963ZM10,3.719A1.86,1.86,0,1,0,8.14,1.856,1.862,1.862,0,0,0,10,3.719Zm8.133,3.244a1.864,1.864,0,1,0-1.856-1.871A1.87,1.87,0,0,0,18.136,6.963Z" transform="translate(0 2.374)" fill="#fff"/></svg>