<svg xmlns="http://www.w3.org/2000/svg" width="24" height="24" viewBox="0 0 24 24"><g transform="translate(-683 -502)"><rect width="24" height="24" transform="translate(683 502)" fill="#fff" opacity="0"/><path d="M21,50V47H3v3Zm0,3H3a3,3,0,0,1-3-3V47a3,3,0,0,1,3-3H21a3,3,0,0,1,3,3v3A3,3,0,0,1,21,53ZM13.5,38a3,3,0,0,1-3,3H3a3,3,0,0,1-3-3V35a3,3,0,0,1,3-3H17.25A3.749,3.749,0,0,1,21,35.75v.75h1.786a1.126,1.126,0,0,1,.8,1.922L20.3,41.7a1.12,1.12,0,0,1-1.589,0l-3.286-3.281a1.126,1.126,0,0,1,.8-1.922H18v-.75a.752.752,0,0,0-.75-.75H13.5v3Z" transform="translate(683 471.5)" fill="#fff"/></g></svg>