<svg xmlns="http://www.w3.org/2000/svg" width="24" height="24" viewBox="0 0 24 24"><g transform="translate(-25 -491)"><rect width="24" height="24" transform="translate(25 491)" fill="#fff" opacity="0"/><path d="M24,38a3,3,0,0,1-3,3H13.125v3h2.161a1.126,1.126,0,0,1,.8,1.922L12.8,49.2a1.12,1.12,0,0,1-1.589,0L7.922,45.922A1.126,1.126,0,0,1,8.719,44h2.156V41H3a3,3,0,0,1-3-3V35a3,3,0,0,1,3-3H21a3,3,0,0,1,3,3ZM21,50V47H17.123l.019-.019A2.6,2.6,0,0,0,17.658,44H21a3,3,0,0,1,3,3v3a3,3,0,0,1-3,3H3a3,3,0,0,1-3-3V47a3,3,0,0,1,3-3H6.342a2.6,2.6,0,0,0,.516,2.981L6.877,47H3v3H9.877l.267.267a2.623,2.623,0,0,0,3.712,0L14.123,50Z" transform="translate(25 460.5)" fill="#fff"/></g></svg>