<svg xmlns="http://www.w3.org/2000/svg" width="24.375" height="30" viewBox="0 0 24.375 30"><path d="M-50.453,183.976a3.1,3.1,0,0,0-3.1,3.1v23.8a3.1,3.1,0,0,0,3.1,3.1h18.181a3.1,3.1,0,0,0,3.1-3.1V191.305a2.568,2.568,0,0,0-.2-1.131,3.134,3.134,0,0,0-.613-.887l0,0-4.511-4.429-.008-.007a3.568,3.568,0,0,0-.956-.612,3.49,3.49,0,0,0-1.365-.258H-50.453Z" transform="translate(53.548 -183.976)" fill="#31a860"/><path d="M-48.4,187.119h13.171a2.8,2.8,0,0,1,.911.17,2.5,2.5,0,0,1,.635.4l0,0,4.344,4.266a2.4,2.4,0,0,1,.389.561,2.133,2.133,0,0,1,.109.65c0,.007,0,.014,0,.021v18.918a1.993,1.993,0,0,1-2.006,2.01H-48.4a1.993,1.993,0,0,1-2.006-2.01V189.128a1.993,1.993,0,0,1,2.006-2.009Z" transform="translate(51.826 -185.6)" fill="#fff"/><path d="M2.985,0l-1-1.725.95-1.645h-.87l-.285.615c-.085.2-.15.345-.23.56H1.54c-.08-.19-.155-.355-.255-.56L.99-3.37H.115L1.055-1.7.08,0H.95l.275-.61c.11-.235.2-.41.265-.605H1.5c.1.2.175.37.3.605L2.105,0ZM3.4,0H5.5V-.64H4.16V-3.37H3.4ZM5.82-.16a2.2,2.2,0,0,0,.955.21C7.7.05,8.13-.43,8.13-.995c0-.475-.275-.785-.87-1.005-.44-.165-.625-.26-.625-.475,0-.17.16-.325.49-.325a1.576,1.576,0,0,1,.7.16L8-3.25a1.971,1.971,0,0,0-.86-.17c-.79,0-1.275.435-1.275,1.01,0,.49.37.8.93,1,.405.14.565.26.565.47s-.185.365-.535.365a1.926,1.926,0,0,1-.845-.21Z" transform="translate(8.08 25.282)" fill="#2c2c2c"/><path d="M5.7,23.478l3.68-5.692-3.37-5.659H8.716l1.839,3.624a7.046,7.046,0,0,1,.349.768h.025c.12-.275.248-.541.381-.8l1.967-3.586h2.491L12.31,17.76l3.545,5.722H13.2L11.079,19.51a3.451,3.451,0,0,1-.251-.535h-.035a2.474,2.474,0,0,1-.246.514L8.36,23.478Z" transform="translate(1.41 -6.014)" fill="#31a860"/></svg>