<svg xmlns="http://www.w3.org/2000/svg" width="24.375" height="30" viewBox="0 0 24.375 30"><path d="M-50.453,183.976a3.1,3.1,0,0,0-3.1,3.1v23.8a3.1,3.1,0,0,0,3.1,3.1h18.181a3.1,3.1,0,0,0,3.1-3.1V191.305a2.568,2.568,0,0,0-.2-1.131,3.134,3.134,0,0,0-.613-.887l0,0-4.511-4.429-.007-.007a3.566,3.566,0,0,0-.956-.612,3.49,3.49,0,0,0-1.365-.258H-50.453Z" transform="translate(53.548 -183.976)" fill="#ff2116"/><path d="M-48.4,187.119h13.171a2.8,2.8,0,0,1,.911.17,2.5,2.5,0,0,1,.635.4l0,0,4.344,4.266a2.4,2.4,0,0,1,.389.561,2.133,2.133,0,0,1,.109.65c0,.007,0,.014,0,.021v18.918a1.993,1.993,0,0,1-2.006,2.009H-48.4a1.993,1.993,0,0,1-2.006-2.009V189.128a1.993,1.993,0,0,1,2.006-2.009Z" transform="translate(51.808 -185.618)" fill="#fff"/><path d="M-35.276,213.9c-.7-.7.057-1.663,2.11-2.685l1.291-.643.5-1.1c.277-.607.69-1.6.918-2.2l.415-1.1-.286-.812a5.811,5.811,0,0,1-.254-3.037c.3-.73,1.291-.655,1.683.128a4.957,4.957,0,0,1-.088,3.116l-.3,1.145.262.445a15.443,15.443,0,0,0,.935,1.292l.7.867.865-.113c2.749-.359,3.691.251,3.691,1.127,0,1.106-2.159,1.2-3.972-.079a5.508,5.508,0,0,1-.688-.572s-1.136.232-1.695.383c-.577.156-.865.253-1.711.539,0,0-.3.432-.49.745a8.024,8.024,0,0,1-2.158,2.487A1.469,1.469,0,0,1-35.276,213.9Zm1.1-.393a8.285,8.285,0,0,0,1.739-2.061l.223-.354-1.015.511c-1.568.79-2.285,1.534-1.912,1.984.209.253.46.232.965-.081ZM-24,210.641a.592.592,0,0,0-.106-1.033,2.849,2.849,0,0,0-1.489-.193c-.54.037-1.408.146-1.555.179,0,0,.477.33.689.452a9.142,9.142,0,0,0,1.467.614C-24.5,210.812-24.213,210.8-24,210.641Zm-4.094-1.705a10.069,10.069,0,0,1-.879-1.136,6.337,6.337,0,0,1-.493-.735s-.24.773-.436,1.238l-.614,1.52-.178.345s.946-.311,1.427-.437c.51-.133,1.544-.337,1.544-.337Zm-1.319-5.3a2.231,2.231,0,0,0-.075-1.248c-.444-.486-.979-.081-.889,1.075a7.9,7.9,0,0,0,.256,1.463l.234.745.165-.561A14.746,14.746,0,0,0-29.41,203.634Z" transform="translate(41.367 -196.035)" fill="#ff2116"/><path d="M.33.08H1.1V-1.159a1.339,1.339,0,0,0,.266.02A1.624,1.624,0,0,0,2.49-1.5a1.075,1.075,0,0,0,.317-.819.993.993,0,0,0-.368-.8A1.655,1.655,0,0,0,1.384-3.4,6.385,6.385,0,0,0,.33-3.323ZM1.1-2.776A1.392,1.392,0,0,1,1.42-2.8c.394,0,.614.189.614.507,0,.348-.256.558-.67.558a1.163,1.163,0,0,1-.261-.02ZM3.3.065a6.692,6.692,0,0,0,.885.051,2.492,2.492,0,0,0,1.6-.445,1.764,1.764,0,0,0,.568-1.4,1.526,1.526,0,0,0-.583-1.3A2.248,2.248,0,0,0,4.353-3.4,6.883,6.883,0,0,0,3.3-3.318Zm.778-2.83A1.66,1.66,0,0,1,4.435-2.8a1,1,0,0,1,1.1,1.1A1.074,1.074,0,0,1,4.353-.493a1.463,1.463,0,0,1-.271-.015ZM6.871.08h.778V-1.307H8.887v-.635H7.649V-2.73H8.974v-.64h-2.1Z" transform="translate(7.535 25.231)" fill="#2c2c2c"/></svg>