<svg xmlns="http://www.w3.org/2000/svg" width="20" height="19.998" viewBox="0 0 20 19.998"><rect width="20" height="19.998" fill="#66769b" opacity="0"/><path d="M9.994,19.44c2.724,0,4.948-4.027,4.948-9.426,0-5.428-2.214-9.455-4.948-9.455S5.046,4.586,5.046,10.014C5.046,15.413,7.27,19.44,9.994,19.44Zm0-17.7c1.92,0,3.635,3.821,3.635,8.27,0,4.37-1.715,8.231-3.635,8.231s-3.635-3.861-3.635-8.231C6.359,5.565,8.074,1.744,9.994,1.744ZM9.357.7V19.254h1.284V.7Zm.637,12.983c-3.018,0-5.693.794-7.065,2.058l.99.813c1.293-1.029,3.4-1.587,6.075-1.587s4.782.559,6.075,1.587l.99-.813C15.687,14.472,13.012,13.678,9.994,13.678Zm9.044-4.331H.95v1.284H19.038ZM9.994,6.359c3.018,0,5.693-.794,7.065-2.058l-.99-.813A9.938,9.938,0,0,1,9.994,5.076,9.938,9.938,0,0,1,3.919,3.488L2.93,4.3C4.3,5.565,6.976,6.359,9.994,6.359Zm0,13.629a10.068,10.068,0,0,0,9.994-9.994A10.07,10.07,0,0,0,9.984,0,10.06,10.06,0,0,0,0,9.994,10.075,10.075,0,0,0,9.994,19.988Zm0-1.333A8.728,8.728,0,0,1,1.333,9.994,8.72,8.72,0,0,1,9.984,1.333a8.736,8.736,0,0,1,8.671,8.662A8.728,8.728,0,0,1,9.994,18.656Z" fill="#66769b"/></svg>