<svg xmlns="http://www.w3.org/2000/svg" xmlns:xlink="http://www.w3.org/1999/xlink" width="160" height="42" viewBox="0 0 160 42"><defs><clipPath id="a"><rect width="160" height="42" fill="none"/></clipPath></defs><g clip-path="url(#a)"><path d="M64.8,5.933a5.954,5.954,0,1,0-5.954,5.933A5.944,5.944,0,0,0,64.8,5.933" transform="translate(-36.787)" fill="#f9ae40"/><path d="M48.64,19.715A18.5,18.5,0,0,1,37.917,36.467,18.562,18.562,0,0,0,18,33.71a18.414,18.414,0,0,1-6.449-13.995h7.739a10.805,10.805,0,0,0,21.61,0Z" transform="translate(-8.034 -13.732)" fill="#57cefb"/><path d="M35.543,87.854l-7.417-2.2A10.8,10.8,0,0,0,7.417,79.5L0,77.3A18.448,18.448,0,0,1,9.967,65.831a18.563,18.563,0,0,0,19.916,2.758,18.453,18.453,0,0,1,5.66,19.265" transform="translate(0 -45.854)" fill="#006cf2"/><g transform="translate(50.663 6.807)"><path d="M369.257,98.111a2.017,2.017,0,0,0-2.019,2.534,3.317,3.317,0,0,0,3.1,2.564,2.025,2.025,0,0,0,2.053-2.564,3.369,3.369,0,0,0-3.131-2.534" transform="translate(-306.023 -75.145)" fill="#07253f"/><path d="M368.882,55H367.03c-.006,0-.012,0-.018,0h6.353l-1.31-6.088-.579-2.68-.012-.055h-4.532l.018.082Z" transform="translate(-305.849 -38.974)" fill="#07253f"/><path d="M390.775,98.111a2.015,2.015,0,0,0-2.019,2.534,3.317,3.317,0,0,0,3.1,2.564,2.025,2.025,0,0,0,2.053-2.564,3.372,3.372,0,0,0-3.131-2.534" transform="translate(-320.988 -75.145)" fill="#07253f"/><path d="M405.264,27.529a2.019,2.019,0,0,0,2.022-2.567,3.372,3.372,0,0,0-3.128-2.531,2.014,2.014,0,0,0-2.022,2.531,3.326,3.326,0,0,0,3.128,2.567" transform="translate(-330.293 -22.431)" fill="#07253f"/><path d="M275.56,45.816l-.067-.391a10.252,10.252,0,0,0-9.745-8.121h-8.119l1.769,8.269.024.115.7,3.141-1.209,0h-.006c-.046,0-.091,0-.14,0h-8.548l-.021-.015-3.417,0-1.906-8.77h-4.5l1.565,8.767-.752,0h-.024a.125.125,0,0,1-.034,0h-.557l-.027,0H238.81l-.009-.009H224.055l-43.763.015h-6.176l-2-8.782h-4.37l2.619,12.293c.652,2.956-1.209,3.93-4.011,4.482l2.543,4.255c4.4-.844,6.652-3.475,6.1-7.7l-.1-.713a9.058,9.058,0,0,0,1.392.5l58.661.112c-.39-1.065-.755-2.036-1.02-2.719,0,.009.061.052.067.058.6.51,1.206,1.023,1.8,1.536.3.258.588.534.9.768a2.075,2.075,0,0,0,1.2.37s.155,0,.405,0l-.009.018h9.429l-.965-2.695,2.349,2.045a2.642,2.642,0,0,0,1.736.649h8.871c1.629,0,5.144,0,3.3-3.317,1.6,1.232,4.13,3.317,6.149,3.317,4.239,0,7.205-3.347,6.392-7.5m-7.336,3.019a4.347,4.347,0,0,1-4.273-3.12l-.847-3.93h3.457a4.482,4.482,0,0,1,4.4,3.444l.1.358a2.752,2.752,0,0,1-2.835,3.247" transform="translate(-166.357 -32.791)" fill="#07253f"/></g></g></svg>