<svg xmlns="http://www.w3.org/2000/svg" xmlns:xlink="http://www.w3.org/1999/xlink" width="68" height="68" viewBox="0 0 68 68"><defs><filter id="a" x="0" y="0" width="68" height="68" filterUnits="userSpaceOnUse"><feOffset dy="4" input="SourceAlpha"/><feGaussianBlur stdDeviation="6" result="b"/><feFlood flood-color="#08243f" flood-opacity="0.161"/><feComposite operator="in" in2="b"/><feComposite in="SourceGraphic"/></filter></defs><g transform="translate(-1033 -90)"><g transform="matrix(1, 0, 0, 1, 1033, 90)" filter="url(#a)"><rect width="32" height="32" rx="16" transform="translate(18 14)" fill="#07253f"/></g><path d="M6.845,5.616l4.508-4.507a.869.869,0,0,1,1.229,1.229L8.074,6.845l4.507,4.508a.869.869,0,1,1-1.229,1.229L6.845,8.074,2.337,12.582a.869.869,0,1,1-1.229-1.229L5.616,6.845,1.108,2.337A.869.869,0,1,1,2.337,1.108Z" transform="translate(1060.146 113.147)" fill="#fff"/></g></svg>