<svg xmlns="http://www.w3.org/2000/svg" width="40" height="40" viewBox="0 0 40 40"><g transform="translate(-172 -837)"><g transform="translate(172 837)" fill="#fff" stroke="#d1dbf0" stroke-width="1"><rect width="40" height="40" rx="20" stroke="none"/><rect x="0.5" y="0.5" width="39" height="39" rx="19.5" fill="none"/></g><g transform="translate(182.5 847)"><rect width="20" height="20" transform="translate(-0.5 0)" fill="#66769b" opacity="0"/><path d="M9.12,20H10.88a.942.942,0,0,0,.967-.785l.5-2.105a8.926,8.926,0,0,0,1.053-.421l1.847,1.129a.947.947,0,0,0,1.225-.124L17.7,16.469a.962.962,0,0,0,.115-1.254l-1.129-1.828a7.15,7.15,0,0,0,.411-1.024l2.124-.507A.935.935,0,0,0,20,10.89V9.158a.931.931,0,0,0-.775-.957L17.12,7.694a9.485,9.485,0,0,0-.411-1.043l1.129-1.856a.924.924,0,0,0-.115-1.225L16.469,2.335a.958.958,0,0,0-1.2-.144L13.4,3.349a6.336,6.336,0,0,0-1.053-.431l-.5-2.134A.942.942,0,0,0,10.88,0H9.12a.959.959,0,0,0-.976.785L7.646,2.9a7.059,7.059,0,0,0-1.062.44L4.727,2.191a.959.959,0,0,0-1.206.144L2.278,3.569a.913.913,0,0,0-.115,1.225l1.12,1.856c-.124.3-.278.651-.4,1.043L.775,8.2A.931.931,0,0,0,0,9.158V10.89a.934.934,0,0,0,.775.967l2.124.507a8.4,8.4,0,0,0,.4,1.024l-1.12,1.828A.951.951,0,0,0,2.3,16.469l1.225,1.225a.96.96,0,0,0,1.234.124l1.837-1.129a9.642,9.642,0,0,0,1.053.421l.5,2.105A.959.959,0,0,0,9.12,20ZM10,13.378A3.378,3.378,0,1,1,13.378,9.99,3.4,3.4,0,0,1,10,13.378Z" transform="translate(-0.5 0)" fill="#66769b"/></g></g></svg>