<svg xmlns="http://www.w3.org/2000/svg" xmlns:xlink="http://www.w3.org/1999/xlink" width="812" height="605" viewBox="0 0 812 605"><defs><filter id="a" x="0" y="0" width="812" height="605" filterUnits="userSpaceOnUse"><feOffset dy="4" input="SourceAlpha"/><feGaussianBlur stdDeviation="6" result="b"/><feFlood flood-color="#07253f" flood-opacity="0.161"/><feComposite operator="in" in2="b"/><feComposite in="SourceGraphic"/></filter></defs><g transform="translate(-21440 -17373)"><g transform="matrix(1, 0, 0, 1, 21440, 17373)" filter="url(#a)"><rect width="776" height="569" rx="16" transform="translate(18 14)" fill="#fff"/></g><rect width="776" height="40" transform="translate(21458 17484)" fill="#e8edf7"/><text transform="translate(22201.75 17457)" fill="#07253f" font-size="12" font-family="Rubik-Regular, Rubik"><tspan x="-162.648" y="0">جامعة الأميرة نورة بن عبد الرحمن</tspan></text><text transform="translate(22202 17433)" fill="#07253f" font-size="16" font-family="Swissra-Heavy" font-weight="800"><tspan x="-110.816" y="0">تفاصيل اشتراك</tspan></text><text transform="translate(22202 17553)" fill="#66769b" font-size="12" font-family="Rubik-SemiBold, Rubik" font-weight="600"><tspan x="-37.116" y="0">العنوان</tspan></text><text transform="translate(22202 17601)" fill="#66769b" font-size="12" font-family="Rubik-SemiBold, Rubik" font-weight="600"><tspan x="-27.756" y="0">الباقة</tspan></text><text transform="translate(22202 17649)" fill="#66769b" font-size="12" font-family="Rubik-SemiBold, Rubik" font-weight="600"><tspan x="-69.096" y="0">مبلغ الاشتراك</tspan></text><text transform="translate(22202 17792)" fill="#66769b" font-size="12" font-family="Rubik-SemiBold, Rubik" font-weight="600"><tspan x="-60.108" y="0">متبقي للباقة</tspan></text><text transform="translate(22202 17936)" fill="#66769b" font-size="12" font-family="Rubik-SemiBold, Rubik" font-weight="600"><tspan x="-94.644" y="0">المواقع المسموحة</tspan></text><text transform="translate(22202 17743)" fill="#66769b" font-size="12" font-family="Rubik-SemiBold, Rubik" font-weight="600"><tspan x="-69.864" y="0">حالة الاشتراك</tspan></text><text transform="translate(22202 17889)" fill="#66769b" font-size="12" font-family="Rubik-SemiBold, Rubik" font-weight="600"><tspan x="-103.44" y="0">الصفحات المستهلكة</tspan></text><text transform="translate(22202 17696)" fill="#66769b" font-size="12" font-family="Rubik-SemiBold, Rubik" font-weight="600"><tspan x="-105.36" y="0">تاريخ الاشتراك القادم</tspan></text><text transform="translate(22202 17841)" fill="#66769b" font-size="12" font-family="Rubik-SemiBold, Rubik" font-weight="600"><tspan x="-105.12" y="0">الصفحات المسموحة</tspan></text><line x1="776" transform="translate(21458 17572)" fill="none" stroke="#d1dbf0" stroke-width="1"/><line x1="776" transform="translate(21458 17764)" fill="none" stroke="#d1dbf0" stroke-width="1"/><line x1="776" transform="translate(21458 17908)" fill="none" stroke="#d1dbf0" stroke-width="1"/><line x1="776" transform="translate(21458 17620)" fill="none" stroke="#d1dbf0" stroke-width="1"/><line x1="776" transform="translate(21458 17668)" fill="none" stroke="#d1dbf0" stroke-width="1"/><line x1="776" transform="translate(21458 17812)" fill="none" stroke="#d1dbf0" stroke-width="1"/><line x1="776" transform="translate(21458 17716)" fill="none" stroke="#d1dbf0" stroke-width="1"/><line x1="776" transform="translate(21458 17860)" fill="none" stroke="#d1dbf0" stroke-width="1"/><text transform="translate(22202 17509)" fill="#07253f" font-size="14" font-family="Rubik-SemiBold, Rubik" font-weight="600"><tspan x="-43.176" y="0">البيانات</tspan></text><text transform="translate(21958 17509)" fill="#07253f" font-size="14" font-family="Rubik-SemiBold, Rubik" font-weight="600"><tspan x="-36.722" y="0">الضبط</tspan></text><text transform="translate(21768 17540)" fill="#07253f" font-size="14" font-family="Rubik-Regular, Rubik"><tspan x="-189.756" y="13">جامعة الأميرة نورة بن عبد الرحمن</tspan></text><text transform="translate(21821 17588)" fill="#07253f" font-size="14" font-family="Rubik-Regular, Rubik"><tspan x="-136.78" y="13">الباقة الاحترافية (سنوي)</tspan></text><text transform="translate(21821 17636)" fill="#07253f" font-size="14" font-family="Rubik-Regular, Rubik"><tspan x="-63.952" y="13" xml:space="preserve"> ر.س</tspan><tspan y="13">4000</tspan></text><text transform="translate(21821 17780)" fill="#07253f" font-size="14" font-family="Rubik-Regular, Rubik"><tspan x="-47.306" y="13" xml:space="preserve"> يوم</tspan><tspan y="13">256</tspan></text><text transform="translate(21821 17924)" fill="#07253f" font-size="14" font-family="Rubik-Regular, Rubik"><tspan x="-8.414" y="13">3</tspan></text><text transform="translate(21958 17697)" fill="#07253f" font-size="14" font-family="Rubik-Regular, Rubik"><tspan x="-80.262" y="0">2024</tspan><tspan y="0" xml:space="preserve"> أكتوبر </tspan><tspan y="0">2</tspan></text><text transform="translate(21958 17841)" fill="#07253f" font-size="14" font-family="Rubik-Regular, Rubik"><tspan x="-33.698" y="0">400k</tspan></text><text transform="translate(21958 17889)" fill="#07253f" font-size="14" font-family="Rubik-Regular, Rubik"><tspan x="-52.318" y="0" xml:space="preserve"> 275653</tspan></text><g transform="translate(21483 16682)"><rect width="64" height="32" rx="16" transform="translate(411 1042)" fill="#bcf7db"/><text transform="translate(450 1062)" fill="#07253f" font-size="12" font-family="Rubik-SemiBold, Rubik" font-weight="600"><tspan x="-23.208" y="0">نشط</tspan></text><circle cx="3" cy="3" r="3" transform="translate(457 1055)" fill="#20cb7c"/></g></g></svg>