<svg xmlns="http://www.w3.org/2000/svg" width="94" height="48" viewBox="0 0 94 48"><g transform="translate(-1113 -594)"><rect width="94" height="48" rx="8" transform="translate(1113 594)" fill="#d1dbf0" opacity="0.997"/><text transform="translate(1162 622.396)" fill="#66769b" font-size="14" font-family="Rubik-SemiBold, Rubik" font-weight="600"><tspan x="0" y="0">DOC</tspan></text><g transform="translate(1129 603)" opacity="0.5"><path d="M-50.453,183.976a3.1,3.1,0,0,0-3.1,3.1v23.8a3.1,3.1,0,0,0,3.1,3.1h18.181a3.1,3.1,0,0,0,3.1-3.1V191.305a2.568,2.568,0,0,0-.2-1.131,3.134,3.134,0,0,0-.613-.887l0,0-4.511-4.429-.007-.007a3.568,3.568,0,0,0-.956-.612,3.491,3.491,0,0,0-1.365-.258H-50.453Z" transform="translate(53.548 -183.976)" fill="#1a60c2"/><path d="M-48.4,187.119h13.171a2.8,2.8,0,0,1,.911.17,2.5,2.5,0,0,1,.635.4l0,0,4.344,4.266a2.4,2.4,0,0,1,.389.561,2.133,2.133,0,0,1,.109.65c0,.007,0,.014,0,.021v18.918a1.993,1.993,0,0,1-2.006,2.01H-48.4a1.993,1.993,0,0,1-2.006-2.01V189.128a1.992,1.992,0,0,1,2.006-2.009Z" transform="translate(51.81 -185.62)" fill="#fff"/><path d="M.33.407A7.346,7.346,0,0,0,1.3.464,2.736,2.736,0,0,0,3.055-.025a1.936,1.936,0,0,0,.624-1.534,1.675,1.675,0,0,0-.641-1.427,2.468,2.468,0,0,0-1.556-.4A7.556,7.556,0,0,0,.33-3.306ZM1.184-2.7a1.822,1.822,0,0,1,.388-.034,1.094,1.094,0,0,1,1.2,1.2A1.179,1.179,0,0,1,1.482-.2a1.606,1.606,0,0,1-.3-.017Zm4.725-.73A1.836,1.836,0,0,0,4.066-1.447,1.771,1.771,0,0,0,5.847.486a1.8,1.8,0,0,0,1.86-1.995A1.767,1.767,0,0,0,5.909-3.43Zm-.017.68c.59,0,.91.584.91,1.27,0,.736-.331,1.287-.91,1.287s-.921-.523-.921-1.27S5.308-2.75,5.892-2.75Zm5.029,2.4a2.039,2.039,0,0,1-.719.124A1.129,1.129,0,0,1,8.994-1.464a1.138,1.138,0,0,1,1.2-1.253,1.8,1.8,0,0,1,.719.14l.18-.674a2.144,2.144,0,0,0-.933-.169A1.926,1.926,0,0,0,8.095-1.413a1.8,1.8,0,0,0,1.983,1.9,2.513,2.513,0,0,0,.966-.163Z" transform="translate(6.475 24.93)" fill="#2c2c2c"/><path d="M10.332,9.8H8.683l-2.2-7.35L4.287,9.8H2.638L0,0H1.869L3.518,7.35,5.715,0H7.254l2.2,7.35L11.1,0H12.97L10.333,9.8Z" transform="translate(5.703 7.113)" fill="#1a60c2"/></g></g></svg>