<svg xmlns="http://www.w3.org/2000/svg" width="129" height="40" viewBox="0 0 129 40"><g transform="translate(-85 -835)"><rect width="129" height="40" rx="20" transform="translate(85 835)" fill="#006cf2"/><text transform="translate(178 859)" fill="#fff" font-size="12" font-family="Rubik-SemiBold, Rubik" font-weight="600"><tspan x="-76.956" y="0">ضبط الإعدادات</tspan></text><g transform="translate(182.5 847)"><rect width="16" height="16" transform="translate(-0.5)" fill="#fff" opacity="0"/><path d="M7.3,16H8.7a.754.754,0,0,0,.773-.628l.4-1.684a7.14,7.14,0,0,0,.842-.337l1.478.9a.757.757,0,0,0,.98-.1l.988-.98a.769.769,0,0,0,.092-1l-.9-1.462a5.72,5.72,0,0,0,.329-.819l1.7-.406A.748.748,0,0,0,16,8.712V7.326a.745.745,0,0,0-.62-.766L13.7,6.155a7.588,7.588,0,0,0-.329-.834l.9-1.485a.739.739,0,0,0-.092-.98l-1-.988a.766.766,0,0,0-.957-.115l-1.5.926a5.069,5.069,0,0,0-.842-.344L9.477.628A.754.754,0,0,0,8.7,0H7.3a.767.767,0,0,0-.781.628l-.4,1.692a5.647,5.647,0,0,0-.85.352L3.782,1.753a.767.767,0,0,0-.965.115l-1,.988a.731.731,0,0,0-.092.98l.9,1.485c-.1.237-.222.521-.322.834L.62,6.561A.745.745,0,0,0,0,7.326V8.712a.748.748,0,0,0,.62.773l1.7.406a6.721,6.721,0,0,0,.322.819l-.9,1.462a.761.761,0,0,0,.092,1l.98.98a.768.768,0,0,0,.988.1l1.47-.9a7.713,7.713,0,0,0,.842.337l.4,1.684A.767.767,0,0,0,7.3,16ZM8,10.7a2.7,2.7,0,1,1,2.7-2.71A2.718,2.718,0,0,1,8,10.7Z" transform="translate(-0.5)" fill="#fff"/></g></g></svg>