<svg xmlns="http://www.w3.org/2000/svg" width="70" height="32" viewBox="0 0 70 32"><g transform="translate(-392.5 -3001)"><rect width="70" height="32" rx="16" transform="translate(392.5 3001)" fill="#ffdede"/><text transform="translate(428.5 3021)" fill="#07253f" font-size="12" font-family="Rubik-SemiBold, Rubik" font-weight="600"><tspan x="0" y="0">8%</tspan></text><g transform="translate(408.5 3011)"><rect width="12" height="11.974" fill="#07253f" opacity="0"/><path d="M12,3.069a.736.736,0,1,0-1.471-.032V6.03l.146,3.789L9.335,8.31,1.267.254A.715.715,0,0,0,.756.035.788.788,0,0,0,0,.8a.752.752,0,0,0,.227.511L8.279,9.357,9.79,10.687l-3.965-.13H3a.748.748,0,0,0-.731.722.735.735,0,0,0,.764.73H11.2a.735.735,0,0,0,.788-.779Z" transform="translate(0 -0.011)" fill="#07253f"/></g></g></svg>