<svg xmlns="http://www.w3.org/2000/svg" width="52" height="40.001" viewBox="0 0 52 40.001"><g transform="translate(-122 -489)"><rect width="52" height="40.001" rx="8" transform="translate(122 489)" fill="#20cb7c"/><g transform="translate(136 497)"><path d="M19,22H5a3,3,0,0,1-3-3V15a1,1,0,0,1,2,0v4a1,1,0,0,0,1,1H19a1,1,0,0,0,1-1V15a1,1,0,0,1,2,0v4A3,3,0,0,1,19,22Z" fill="#fff"/><path d="M12,16a1,1,0,0,1-.707-.293l-5-5A1,1,0,0,1,7.707,9.293L12,13.586l4.293-4.293a1,1,0,0,1,1.414,1.414l-5,5A1,1,0,0,1,12,16Z" fill="#fff"/><path d="M0,13a1,1,0,0,1-1-1V0A1,1,0,0,1,0-1,1,1,0,0,1,1,0V12A1,1,0,0,1,0,13Z" transform="translate(12 3)" fill="#fff"/></g></g></svg>