<svg xmlns="http://www.w3.org/2000/svg" width="147" height="48" viewBox="0 0 147 48"><g transform="translate(17.5 0.502)"><g transform="translate(-17.5 -0.502)" fill="#09abed" stroke="#09abed" stroke-width="1"><rect width="147" height="48" rx="8" stroke="none"/><rect x="0.5" y="0.5" width="146" height="47" rx="7.5" fill="none"/></g><text transform="translate(77.5 28)" fill="#fff" font-size="14" font-family="Rubik-SemiBold, Rubik" font-weight="600"><tspan x="-70.77" y="0">فحص جديد</tspan></text><path d="M16.251,8.124a8.1,8.1,0,0,1-1.563,4.792l4.946,4.948a1.251,1.251,0,1,1-1.77,1.769l-4.946-4.948a8.125,8.125,0,1,1,3.332-6.562ZM4.063,8.436v2.5a.938.938,0,0,0,1.875,0v-2.5a.938.938,0,0,0-1.875,0ZM7.188,4.687v6.249a.938.938,0,0,0,1.875,0V4.687a.938.938,0,0,0-1.875,0Zm3.125,2.5v3.749a.938.938,0,0,0,1.875,0V7.186a.938.938,0,0,0-1.875,0Z" transform="translate(85.5 13.498)" fill="#fff"/></g></svg>