<svg xmlns="http://www.w3.org/2000/svg" width="83" height="32" viewBox="0 0 83 32">
 <g transform="translate(-393 -3001)">
  <rect width="83" height="32" rx="16" transform="translate(393 3001)" fill="#bcf7db" />
  <text transform="translate(429 3023)" fill="#07253f" font-size="16"
   font-family="Rubik-SemiBold, Rubik" font-weight="600">
   <tspan x="0" y="0">13%</tspan>
  </text>
  <g transform="translate(409 3011)">
   <rect width="12" height="11.984" fill="#07253f" opacity="0" />
   <path
    d="M12,8.984,11.992.822A.741.741,0,0,0,11.2.035H3.03a.742.742,0,0,0-.764.738A.748.748,0,0,0,3,1.5H5.825l3.965-.13L8.279,2.688.227,10.745A.737.737,0,0,0,0,11.256a.781.781,0,0,0,.756.755.684.684,0,0,0,.512-.219L9.335,3.743l1.341-1.517-.146,3.789v3A.736.736,0,1,0,12,8.984Z"
    transform="translate(0 -0.011)" fill="#07253f" />
  </g>
 </g>
</svg>