<svg xmlns="http://www.w3.org/2000/svg" width="95" height="32" viewBox="0 0 95 32"><g transform="translate(-123 -840)"><rect width="95" height="32" rx="16" transform="translate(123 840)" fill="#09abed"/><text transform="translate(174 860)" fill="#fff" font-size="12" font-family="Rubik-SemiBold, Rubik" font-weight="600"><tspan x="-30.864" y="0">تجديد</tspan></text><g transform="translate(182 848)"><rect width="16" height="16" fill="#fff" opacity="0"/><path d="M2.67,9.981l.187.749A1.656,1.656,0,0,0,4.641,12.2h6.718a1.653,1.653,0,0,0,1.79-1.472l.187-.749Zm-.206-.855H13.549l1.173-4.8L14.21,4.03l-2.876,2.1a.3.3,0,0,1-.474-.075L8.153,1.959l-.3-.012L5.121,6.069c-.106.162-.231.212-.443.062L1.859,4.073l-.6.156ZM1.491,5.57A1.491,1.491,0,1,0,0,4.073,1.487,1.487,0,0,0,1.491,5.57ZM8,2.975A1.488,1.488,0,1,0,6.512,1.485,1.489,1.489,0,0,0,8,2.975ZM14.509,5.57a1.491,1.491,0,1,0-1.485-1.5A1.5,1.5,0,0,0,14.509,5.57Z" transform="translate(0 1.899)" fill="#fff"/></g></g></svg>