<svg xmlns="http://www.w3.org/2000/svg" width="614" height="40" viewBox="0 0 614 40"><g transform="translate(-119 -2328)"><g transform="translate(123 2324)"><rect width="106" height="40" rx="20" transform="translate(-4 4)" fill="#07253f"/><text transform="translate(78 28)" fill="#fff" font-size="14" font-family="Rubik-SemiBold, Rubik" font-weight="600"><tspan x="-58.016" y="0">ابحث الآن</tspan></text></g><g transform="translate(493 2328)" fill="#fff" stroke="#d1dbf0" stroke-width="1"><rect width="240" height="40" rx="20" stroke="none"/><rect x="0.5" y="0.5" width="239" height="39" rx="19.5" fill="none"/></g><g transform="translate(241 2328)" fill="#fff" stroke="#d1dbf0" stroke-width="1"><rect width="240" height="40" rx="20" stroke="none"/><rect x="0.5" y="0.5" width="239" height="39" rx="19.5" fill="none"/></g><text transform="translate(717 2352)" fill="#07253f" font-size="12" font-family="Rubik-Regular, Rubik"><tspan x="-56.436" y="0">كلمة البحث</tspan></text><text transform="translate(465 2352)" fill="#07253f" font-size="12" font-family="Rubik-Regular, Rubik"><tspan x="-99.828" y="0">- جميع الاشتراكات -</tspan></text><path d="M3.379,196.466a.8.8,0,0,0,1.132,0l3.2-3.2a.8.8,0,0,0-.567-1.367l-6.4,0a.8.8,0,0,0-.567,1.367l3.2,3.2Z" transform="translate(257.055 2154.1)" fill="#07253f"/></g></svg>