<svg xmlns="http://www.w3.org/2000/svg" width="110" height="48" viewBox="0 0 110 48"><g transform="translate(-112 -830)"><g transform="translate(112 830)" fill="#006cf2" stroke="#006cf2" stroke-width="2"><rect width="110" height="48" rx="8" stroke="none"/><rect x="1" y="1" width="108" height="46" rx="7" fill="none"/></g><text transform="translate(174 859)" fill="#fff" font-size="14" font-family="Rubik-SemiBold, Rubik" font-weight="600"><tspan x="-37.506" y="0">معاينة</tspan></text><g transform="translate(-58 -471)"><rect width="16" height="16" transform="translate(240 1318)" fill="#fff" opacity="0"/><path d="M8.024,32a7.816,7.816,0,0,0-5.35,2.239A11.005,11.005,0,0,0,.094,37.88a.883.883,0,0,0,0,.683A11.005,11.005,0,0,0,2.674,42.2a7.816,7.816,0,0,0,5.35,2.239,7.816,7.816,0,0,0,5.35-2.239,11.089,11.089,0,0,0,2.583-3.641.883.883,0,0,0,0-.683,11.061,11.061,0,0,0-2.583-3.641A7.816,7.816,0,0,0,8.024,32Zm-4,6.222a4,4,0,1,1,4,4A4,4,0,0,1,4.024,38.222Zm4-1.778a1.779,1.779,0,0,1-1.778,1.778,1.8,1.8,0,0,1-.564-.092.236.236,0,0,0-.325.206,2.577,2.577,0,0,0,.089.575,2.667,2.667,0,1,0,2.691-3.355.236.236,0,0,0-.206.325A1.8,1.8,0,0,1,8.024,36.444Z" transform="translate(239.975 1287.778)" fill="#fff"/></g></g></svg>