<svg xmlns="http://www.w3.org/2000/svg" width="20" height="20" viewBox="0 0 20 20"><g transform="translate(-526 -1515)"><rect width="20" height="20" transform="translate(526 1515)" fill="#66769b" opacity="0"/><path d="M0,65.429A1.427,1.427,0,0,1,1.429,64H18.571a1.429,1.429,0,1,1,0,2.857H1.429A1.427,1.427,0,0,1,0,65.429Zm0,7.143a1.427,1.427,0,0,1,1.429-1.429H18.571a1.429,1.429,0,0,1,0,2.857H1.429A1.427,1.427,0,0,1,0,72.571Zm20,7.143a1.427,1.427,0,0,1-1.429,1.429H1.429a1.429,1.429,0,1,1,0-2.857H18.571A1.427,1.427,0,0,1,20,79.714Z" transform="translate(526 1452.429)" fill="#66769b"/></g></svg>