<svg xmlns="http://www.w3.org/2000/svg" width="161" height="40" viewBox="0 0 161 40"><g transform="translate(-65 -834)"><rect width="161" height="40" rx="20" transform="translate(65 834)" fill="#20cb7c"/><text transform="translate(178 859)" fill="#fff" font-size="14" font-family="Rubik-SemiBold, Rubik" font-weight="600"><tspan x="-88.606" y="0">حفظ التعديلات</tspan></text><path d="M8,16A8,8,0,1,0,0,8,8,8,0,0,0,8,16Zm3.531-9.469-4,4a.747.747,0,0,1-1.059,0l-2-2A.749.749,0,0,1,5.531,7.472L7,8.941l3.469-3.472a.749.749,0,0,1,1.059,1.059Z" transform="translate(186 847)" fill="#fff"/></g></svg>