<svg xmlns="http://www.w3.org/2000/svg" width="140" height="40" viewBox="0 0 140 40"><g transform="translate(-74 -835)"><g transform="translate(74 835)" fill="#fff" stroke="#006cf2" stroke-width="1"><rect width="140" height="40" rx="20" stroke="none"/><rect x="0.5" y="0.5" width="139" height="39" rx="19.5" fill="none"/></g><text transform="translate(174 859)" fill="#006cf2" font-size="12" font-family="Rubik-SemiBold, Rubik" font-weight="600"><tspan x="-84.228" y="0">تفاصيل الاشتراك</tspan></text><g transform="translate(26 -4222)"><rect width="16" height="16" transform="translate(156 5069)" fill="#006cf2" opacity="0"/><path d="M.438.085a.749.749,0,0,1,.8.113L2.5,1.279,3.763.2a.749.749,0,0,1,.975,0L6,1.279,7.262.2a.749.749,0,0,1,.975,0L9.5,1.279,10.762.2A.75.75,0,0,1,12,.766v14.5a.75.75,0,0,1-1.238.569L9.5,14.755,8.238,15.836a.749.749,0,0,1-.975,0L6,14.755,4.738,15.836a.749.749,0,0,1-.975,0L2.5,14.755,1.237,15.836A.75.75,0,0,1,0,15.267V.766A.75.75,0,0,1,.438.085ZM3,4.517a.5.5,0,0,0,0,1H9a.5.5,0,0,0,0-1Zm-.5,6.5a.5.5,0,0,0,.5.5H9a.5.5,0,0,0,0-1H3A.5.5,0,0,0,2.5,11.017Zm.5-3.5a.5.5,0,0,0,0,1H9a.5.5,0,0,0,0-1Z" transform="translate(158 5068.983)" fill="#006cf2"/></g></g></svg>