<svg xmlns="http://www.w3.org/2000/svg" width="151" height="32" viewBox="0 0 151 32"><g transform="translate(-182 -1064)"><g transform="translate(182 1064)" fill="#006cf2" stroke="#006cf2" stroke-width="1"><rect width="151" height="32" rx="16" stroke="none"/><rect x="0.5" y="0.5" width="150" height="31" rx="15.5" fill="none"/></g><path d="M16,0H32a0,0,0,0,1,0,0V32a0,0,0,0,1,0,0H16A16,16,0,0,1,0,16v0A16,16,0,0,1,16,0Z" transform="translate(182 1064)" fill="#006cf2"/><text transform="translate(294 1083)" fill="#fff" font-size="12" font-family="Rubik-SemiBold, Rubik" font-weight="600"><tspan x="-66.468" y="0">تحميل التقرير</tspan></text><g transform="translate(300 1070)"><path d="M8284.25-6278a2.253,2.253,0,0,1-2.25-2.249v-3a.75.75,0,0,1,.75-.75.75.75,0,0,1,.75.75v3a.75.75,0,0,0,.75.75h10.5a.752.752,0,0,0,.752-.75v-3a.747.747,0,0,1,.749-.75.749.749,0,0,1,.749.75v3a2.252,2.252,0,0,1-2.25,2.249Zm5.215-4.5h0l-.033,0h0l-.032,0h0l-.031-.005h-.006l-.028-.006-.009,0-.024-.007-.013,0-.021-.007-.016-.005-.007,0a.764.764,0,0,1-.194-.108l-.006,0a.079.079,0,0,1-.014-.012.175.175,0,0,1-.018-.015l-.008-.007-.025-.024h0l-3.749-3.75a.749.749,0,0,1,0-1.06.75.75,0,0,1,1.061,0l2.47,2.47v-7.19a.75.75,0,0,1,.749-.75.748.748,0,0,1,.75.75v7.191l2.472-2.47a.75.75,0,0,1,1.061,0,.749.749,0,0,1,0,1.06l-3.751,3.75a.738.738,0,0,1-.395.206l-.024,0h-.01l-.027,0h-.006l-.031,0h-.072Z" transform="translate(-8280 6295)" fill="#fff"/></g><path d="M3.379,196.466a.8.8,0,0,0,1.132,0l3.2-3.2a.8.8,0,0,0-.567-1.367l-6.4,0a.8.8,0,0,0-.567,1.367l3.2,3.2Z" transform="translate(194.056 886.1)" fill="#fff"/><rect width="1" height="32" transform="translate(214 1064)" fill="#0753e2"/></g></svg>