<svg xmlns="http://www.w3.org/2000/svg" width="48" height="48.002" viewBox="0 0 48 48.002"><g transform="translate(-127 -1316)"><rect width="48" height="48.002" rx="8" transform="translate(127 1316)" fill="#66769b"/><g transform="translate(-412 150)"><rect width="20" height="20" transform="translate(553 1180)" fill="#fff" opacity="0"/><path d="M5.281.691A1.245,1.245,0,0,1,6.4,0h4.7a1.245,1.245,0,0,1,1.117.691l.281.559h3.75a1.25,1.25,0,0,1,0,2.5h-15a1.25,1.25,0,0,1,0-2.5H5ZM1.25,5h15V17.5a2.5,2.5,0,0,1-2.5,2.5h-10a2.5,2.5,0,0,1-2.5-2.5ZM5,7.5a.627.627,0,0,0-.625.625v8.75a.625.625,0,0,0,1.25,0V8.125A.627.627,0,0,0,5,7.5Zm3.75,0a.627.627,0,0,0-.625.625v8.75a.625.625,0,0,0,1.25,0V8.125A.627.627,0,0,0,8.75,7.5Zm3.75,0a.627.627,0,0,0-.625.625v8.75a.625.625,0,0,0,1.25,0V8.125A.627.627,0,0,0,12.5,7.5Z" transform="translate(554.25 1180)" fill="#fff"/></g></g></svg>