<svg xmlns="http://www.w3.org/2000/svg" width="172" height="48" viewBox="0 0 172 48"><g transform="translate(46)"><rect width="172" height="48" rx="24" transform="translate(-46)" fill="#0753e2"/><text transform="translate(78 28)" fill="#fff" font-size="14" font-family="Rubik-SemiBold, Rubik" font-weight="600"><tspan x="-99.792" y="0">أضف نطاق جديد</tspan></text><g transform="translate(86 16)"><rect width="16" height="16" fill="#fff" opacity="0"/><path d="M16,8a8.059,8.059,0,0,1-8,8A8.064,8.064,0,0,1,0,8,8.053,8.053,0,0,1,7.992,0,8.061,8.061,0,0,1,16,8ZM7.318,4.863V7.318H4.863a.659.659,0,0,0-.69.69.645.645,0,0,0,.69.667H7.318v2.463a.682.682,0,1,0,1.365,0V8.675h2.463a.649.649,0,0,0,.69-.667.663.663,0,0,0-.69-.69H8.682V4.863a.665.665,0,0,0-.69-.7A.657.657,0,0,0,7.318,4.863Z" fill="#fff"/></g></g></svg>