<svg xmlns="http://www.w3.org/2000/svg" width="118" height="17" viewBox="0 0 118 17"><g transform="translate(-728 -903)"><text transform="translate(822 916)" fill="#07253f" font-size="14" font-family="Rubik-Regular, Rubik"><tspan x="-93.296" y="0">تغيير كلمة المرور</tspan></text><g transform="translate(830 904)"><rect width="16" height="16" transform="translate(0 0)" fill="#07253f" opacity="0"/><path d="M1.836,16H9.3c1.2,0,1.836-.653,1.836-1.942V8.437C11.137,7.155,10.5,6.5,9.3,6.5H1.836C.636,6.5,0,7.155,0,8.437v5.622C0,15.347.636,16,1.836,16Zm.041-1.232c-.351,0-.555-.22-.555-.62v-5.8c0-.4.2-.612.555-.612H9.261c.359,0,.555.212.555.612v5.8c0,.4-.2.62-.555.62ZM1.428,7.131h1.3V4.381a2.862,2.862,0,1,1,5.7,0v2.75H9.709V4.553C9.709,1.485,7.7,0,5.565,0S1.428,1.485,1.428,4.553Z" transform="translate(2.431 0)" fill="#07253f"/></g></g></svg>