<svg xmlns="http://www.w3.org/2000/svg" width="84" height="32" viewBox="0 0 84 32"><g transform="translate(-130 -839)"><g transform="translate(130 839)" fill="#fff" stroke="#66769b" stroke-width="1"><rect width="84" height="32" rx="16" stroke="none"/><rect x="0.5" y="0.5" width="83" height="31" rx="15.5" fill="none"/></g><text transform="translate(178 859)" fill="#66769b" font-size="12" font-family="Rubik-SemiBold, Rubik" font-weight="600"><tspan x="-32.148" y="0">معاينة</tspan></text><g transform="translate(-58 -471)"><rect width="16" height="16" transform="translate(240 1318)" fill="#66769b" opacity="0"/><path d="M8.024,32a7.816,7.816,0,0,0-5.35,2.239A11.005,11.005,0,0,0,.094,37.88a.883.883,0,0,0,0,.683A11.005,11.005,0,0,0,2.674,42.2a7.816,7.816,0,0,0,5.35,2.239,7.816,7.816,0,0,0,5.35-2.239,11.089,11.089,0,0,0,2.583-3.641.883.883,0,0,0,0-.683,11.061,11.061,0,0,0-2.583-3.641A7.816,7.816,0,0,0,8.024,32Zm-4,6.222a4,4,0,1,1,4,4A4,4,0,0,1,4.024,38.222Zm4-1.778a1.779,1.779,0,0,1-1.778,1.778,1.8,1.8,0,0,1-.564-.092.236.236,0,0,0-.325.206,2.577,2.577,0,0,0,.089.575,2.667,2.667,0,1,0,2.691-3.355.236.236,0,0,0-.206.325A1.8,1.8,0,0,1,8.024,36.444Z" transform="translate(239.975 1287.778)" fill="#66769b"/></g></g></svg>