<svg xmlns="http://www.w3.org/2000/svg" xmlns:xlink="http://www.w3.org/1999/xlink" width="168" height="159" viewBox="0 0 168 159"><defs><filter id="a" x="0" y="0" width="168" height="159" filterUnits="userSpaceOnUse"><feOffset dy="4" input="SourceAlpha"/><feGaussianBlur stdDeviation="8" result="b"/><feFlood flood-color="#08243f" flood-opacity="0.161"/><feComposite operator="in" in2="b"/><feComposite in="SourceGraphic"/></filter></defs><g transform="translate(-350 -1028)"><g transform="matrix(1, 0, 0, 1, 350, 1028)" filter="url(#a)"><rect width="120" height="111" rx="8" transform="translate(24 20)" fill="#fff"/></g><rect width="120" height="29" transform="translate(374 1060)" fill="#eff2f9"/><rect width="120" height="29" transform="translate(374 1089)" fill="#eff2f9" opacity="0"/><rect width="120" height="29" transform="translate(374 1118)" fill="#eff2f9" opacity="0"/><text transform="translate(453 1079)" fill="#07253f" font-size="12" font-family="Rubik-Regular, Rubik"><tspan x="-49.272" y="0">PDF</tspan><tspan y="0">ملف </tspan></text><text transform="translate(453 1108)" fill="#07253f" font-size="12" font-family="Rubik-Regular, Rubik"><tspan x="-50.676" y="0">DOC</tspan><tspan y="0">ملف </tspan></text><text transform="translate(453 1136)" fill="#07253f" font-size="12" font-family="Rubik-Regular, Rubik"><tspan x="-48.108" y="0">XLS</tspan><tspan y="0">ملف </tspan></text><g transform="translate(465 1067)"><path d="M-51.9,183.976a1.654,1.654,0,0,0-1.651,1.653v12.694a1.654,1.654,0,0,0,1.651,1.653h9.7a1.654,1.654,0,0,0,1.651-1.653V187.885a1.37,1.37,0,0,0-.107-.6,1.671,1.671,0,0,0-.327-.473l0,0-2.406-2.362,0,0a1.9,1.9,0,0,0-.51-.327,1.861,1.861,0,0,0-.728-.138H-51.9Z" transform="translate(53.548 -183.976)" fill="#ff2116"/><path d="M-49.336,187.119h7.024a1.494,1.494,0,0,1,.486.091,1.335,1.335,0,0,1,.339.214h0l2.317,2.275a1.28,1.28,0,0,1,.207.3,1.137,1.137,0,0,1,.058.347s0,.007,0,.011v10.089a1.063,1.063,0,0,1-1.07,1.072h-9.361a1.063,1.063,0,0,1-1.07-1.072V188.19a1.063,1.063,0,0,1,1.07-1.072Z" transform="translate(51.154 -186.318)" fill="#fff"/><path d="M-35.395,208.259c-.373-.374.031-.887,1.125-1.432l.689-.343.268-.588c.148-.324.368-.852.489-1.173l.221-.585-.152-.433a3.1,3.1,0,0,1-.135-1.62c.161-.39.689-.35.9.068a2.644,2.644,0,0,1-.047,1.662l-.159.611.14.237a8.238,8.238,0,0,0,.5.689l.371.462.462-.06c1.466-.192,1.968.134,1.968.6,0,.59-1.151.638-2.118-.042a2.936,2.936,0,0,1-.367-.305s-.606.124-.9.2-.461.135-.912.288c0,0-.158.23-.261.4a4.279,4.279,0,0,1-1.151,1.326A.784.784,0,0,1-35.395,208.259Zm.585-.209a4.419,4.419,0,0,0,.927-1.1l.119-.189-.541.273c-.836.421-1.219.818-1.02,1.058.112.135.245.124.515-.043Zm5.431-1.527a.316.316,0,0,0-.057-.551,1.519,1.519,0,0,0-.794-.1c-.288.02-.751.078-.829.1,0,0,.254.176.367.241a4.874,4.874,0,0,0,.782.328C-29.646,206.613-29.494,206.6-29.379,206.522Zm-2.184-.909a5.367,5.367,0,0,1-.469-.606,3.38,3.38,0,0,1-.263-.392s-.128.412-.233.66l-.327.811-.095.184s.5-.166.761-.233c.272-.071.824-.18.824-.18Zm-.7-2.828a1.19,1.19,0,0,0-.04-.666c-.237-.259-.522-.043-.474.573a4.213,4.213,0,0,0,.136.78l.125.4.088-.3A7.866,7.866,0,0,0-32.266,202.785Z" transform="translate(38.643 -198.732)" fill="#ff2116"/><path d="M.33-1.542H.742V-2.2a.714.714,0,0,0,.142.011.866.866,0,0,0,.6-.194.573.573,0,0,0,.169-.437.53.53,0,0,0-.2-.426A.883.883,0,0,0,.892-3.4a3.405,3.405,0,0,0-.562.038ZM.742-3.065a.742.742,0,0,1,.169-.014c.21,0,.328.1.328.27,0,.186-.136.3-.358.3a.62.62,0,0,1-.139-.011ZM1.916-1.55a3.569,3.569,0,0,0,.472.027A1.329,1.329,0,0,0,3.24-1.76a.941.941,0,0,0,.3-.745A.814.814,0,0,0,3.231-3.2a1.2,1.2,0,0,0-.756-.2,3.671,3.671,0,0,0-.56.041Zm.415-1.509a.885.885,0,0,1,.188-.016.532.532,0,0,1,.584.584.573.573,0,0,1-.628.644.78.78,0,0,1-.145-.008ZM3.818-1.542h.415v-.74h.661V-2.62H4.233v-.42H4.94v-.341H3.818Z" transform="translate(3.865 15.041)" fill="#2c2c2c"/></g><g transform="translate(465 1096)"><path d="M-51.9,183.976a1.654,1.654,0,0,0-1.651,1.653v12.694a1.654,1.654,0,0,0,1.651,1.653h9.7a1.654,1.654,0,0,0,1.651-1.653V187.885a1.37,1.37,0,0,0-.107-.6,1.671,1.671,0,0,0-.327-.473l0,0-2.406-2.362,0,0a1.9,1.9,0,0,0-.51-.327,1.862,1.862,0,0,0-.728-.138H-51.9Z" transform="translate(53.548 -183.976)" fill="#1a60c2"/><path d="M-49.336,187.119h7.024a1.493,1.493,0,0,1,.486.091,1.334,1.334,0,0,1,.339.214h0l2.317,2.275a1.28,1.28,0,0,1,.207.3,1.138,1.138,0,0,1,.058.347s0,.007,0,.011v10.089a1.063,1.063,0,0,1-1.07,1.072h-9.361a1.063,1.063,0,0,1-1.07-1.072V188.19A1.063,1.063,0,0,1-49.336,187.119Z" transform="translate(51.155 -186.319)" fill="#fff"/><path d="M.33-1.383a3.918,3.918,0,0,0,.518.03,1.459,1.459,0,0,0,.935-.261,1.033,1.033,0,0,0,.333-.818.894.894,0,0,0-.342-.761,1.316,1.316,0,0,0-.83-.216,4.03,4.03,0,0,0-.614.045ZM.785-3.04a.972.972,0,0,1,.207-.018.584.584,0,0,1,.641.641.629.629,0,0,1-.689.707.857.857,0,0,1-.159-.009Zm2.52-.39a.979.979,0,0,0-.983,1.058.944.944,0,0,0,.95,1.031.96.96,0,0,0,.992-1.064A.942.942,0,0,0,3.306-3.43ZM3.3-3.067c.315,0,.485.312.485.677,0,.393-.177.686-.485.686s-.491-.279-.491-.677S2.985-3.067,3.3-3.067Zm2.682,1.28a1.088,1.088,0,0,1-.384.066.6.6,0,0,1-.644-.659.607.607,0,0,1,.641-.668.963.963,0,0,1,.384.075l.1-.36a1.144,1.144,0,0,0-.5-.09,1.027,1.027,0,0,0-1.1,1.07A.963.963,0,0,0,5.529-1.341a1.34,1.34,0,0,0,.515-.087Z" transform="translate(3.299 14.897)" fill="#2c2c2c"/><path d="M5.51,5.227H4.631L3.459,1.307,2.286,5.227h-.88L0,0H1l.88,3.92L3.048,0h.821L5.042,3.92,5.921,0h1L5.511,5.227Z" transform="translate(3.041 3.793)" fill="#1a60c2"/></g><g transform="translate(465 1124)"><path d="M-51.9,183.976a1.654,1.654,0,0,0-1.651,1.653v12.694a1.654,1.654,0,0,0,1.651,1.653h9.7a1.654,1.654,0,0,0,1.651-1.653V187.885a1.37,1.37,0,0,0-.107-.6,1.671,1.671,0,0,0-.327-.473l0,0-2.406-2.362,0,0a1.9,1.9,0,0,0-.51-.327,1.862,1.862,0,0,0-.728-.138H-51.9Z" transform="translate(53.548 -183.976)" fill="#31a860"/><path d="M-49.336,187.119h7.024a1.493,1.493,0,0,1,.486.091,1.333,1.333,0,0,1,.339.214h0l2.317,2.275a1.28,1.28,0,0,1,.207.3,1.138,1.138,0,0,1,.058.347s0,.007,0,.011v10.089a1.063,1.063,0,0,1-1.07,1.072h-9.361a1.063,1.063,0,0,1-1.07-1.072V188.19a1.063,1.063,0,0,1,1.07-1.072Z" transform="translate(51.163 -186.308)" fill="#fff"/><path d="M1.629-1.6,1.1-2.516,1.6-3.393H1.139l-.152.328c-.045.1-.08.184-.123.3H.859c-.043-.1-.083-.189-.136-.3L.565-3.393H.1l.5.888L.08-1.6H.544l.147-.325c.059-.125.1-.219.141-.323H.837c.051.1.093.2.16.323L1.16-1.6Zm.221,0h1.12v-.341H2.256V-3.393H1.851Zm1.291-.085a1.172,1.172,0,0,0,.509.112c.493,0,.723-.256.723-.557,0-.253-.147-.419-.464-.536-.235-.088-.333-.139-.333-.253,0-.091.085-.173.261-.173A.841.841,0,0,1,4.211-3L4.3-3.329a1.051,1.051,0,0,0-.459-.091c-.421,0-.68.232-.68.539,0,.261.2.427.5.533.216.075.3.139.3.251s-.1.195-.285.195a1.027,1.027,0,0,1-.451-.112Z" transform="translate(4.272 15.08)" fill="#2c2c2c"/><path d="M5.7,18.181l1.962-3.036-1.8-3.018H7.308l.981,1.933a3.758,3.758,0,0,1,.186.41h.013c.064-.147.132-.288.2-.427L9.741,12.13h1.329l-1.844,3,1.891,3.052H9.7L8.569,16.064a1.841,1.841,0,0,1-.134-.285H8.417a1.319,1.319,0,0,1-.131.274L7.118,18.181Z" transform="translate(-1.908 -8.867)" fill="#31a860"/></g></g></svg>