<svg xmlns="http://www.w3.org/2000/svg" width="1177" height="276" viewBox="0 0 1177 276"><g transform="translate(-94.5 -607)"><text transform="translate(95 624)" fill="#07253f" font-size="18" font-family="Rubik-Bold, Rubik" font-weight="700"><tspan x="0" y="0">GRIDSYSTEM</tspan></text><text transform="translate(95 674)" fill="#07253f" font-size="14" font-family="Rubik-Regular, Rubik"><tspan x="0" y="0">GRIDSYSTEM: </tspan><tspan y="0" font-family="Rubik-SemiBold, Rubik" font-weight="600">1176PX</tspan></text><text transform="translate(395 674)" fill="#07253f" font-size="14" font-family="Rubik-Regular, Rubik"><tspan x="0" y="0">COLUMNS: </tspan><tspan y="0" font-family="Rubik-SemiBold, Rubik" font-weight="600">12</tspan></text><text transform="translate(995 674)" fill="#07253f" font-size="14" font-family="Rubik-Regular, Rubik"><tspan x="0" y="0">COLUMNS WIDTH: </tspan><tspan y="0" font-family="Rubik-SemiBold, Rubik" font-weight="600">76PX</tspan></text><text transform="translate(695 674)" fill="#07253f" font-size="14" font-family="Rubik-Regular, Rubik"><tspan x="0" y="0">GUTTER WIDTH: </tspan><tspan y="0" font-family="Rubik-SemiBold, Rubik" font-weight="600">24PX</tspan></text><text transform="translate(683 721)" fill="#07253f" font-size="12" font-family="Rubik-Regular, Rubik"><tspan x="-13.914" y="0">24px</tspan></text><text transform="translate(1033 721)" fill="#07253f" font-size="12" font-family="Rubik-Regular, Rubik"><tspan x="-13.236" y="0">76px</tspan></text><g transform="translate(0 -1054.5)" opacity="0.12"><rect width="76" height="56" transform="translate(1195 1817)" fill="#f26178"/><rect width="76" height="56" transform="translate(895 1817)" fill="#f26178"/><rect width="76" height="56" transform="translate(595 1817)" fill="#f26178"/><rect width="76" height="56" transform="translate(295 1817)" fill="#f26178"/><rect width="76" height="56" transform="translate(1095 1817)" fill="#f26178"/><rect width="76" height="56" transform="translate(795 1817)" fill="#f26178"/><rect width="76" height="56" transform="translate(495 1817)" fill="#f26178"/><rect width="76" height="56" transform="translate(195 1817)" fill="#f26178"/><rect width="76" height="56" transform="translate(995 1817)" fill="#f26178"/><rect width="76" height="56" transform="translate(695 1817)" fill="#f26178"/><rect width="76" height="56" transform="translate(395 1817)" fill="#f26178"/><rect width="76" height="56" transform="translate(95 1817)" fill="#f26178"/></g><line y2="88.5" transform="translate(995 730)" fill="none" stroke="#f26178" stroke-width="1"/><line y2="88.5" transform="translate(1071 730)" fill="none" stroke="#f26178" stroke-width="1"/><line y2="88.5" transform="translate(694.5 730)" fill="none" stroke="#f26178" stroke-width="1"/><line y2="88.5" transform="translate(671 730)" fill="none" stroke="#f26178" stroke-width="1"/><text transform="translate(683 875.5)" fill="#07253f" font-size="12" font-family="Rubik-Regular, Rubik"><tspan x="-18.372" y="0">1176px</tspan></text><g transform="translate(0 -109)"><line y2="24" transform="translate(1271 968)" fill="none" stroke="#f26178" stroke-width="1"/><line y2="24" transform="translate(95 968)" fill="none" stroke="#f26178" stroke-width="1"/><line x1="550" transform="translate(721.5 980)" fill="none" stroke="#f26178" stroke-width="1"/><line x1="550" transform="translate(94.5 980)" fill="none" stroke="#f26178" stroke-width="1"/></g></g></svg>