<svg xmlns="http://www.w3.org/2000/svg" width="24" height="23.996" viewBox="0 0 24 23.996"><rect width="24" height="23.996" fill="#fff" opacity="0"/><path d="M12.144,23.174V11.648a.666.666,0,0,0-.669-.658.657.657,0,0,0-.659.658V23.174c0,.527-.344.769-1.032.688A7.839,7.839,0,0,1,4.62,21.072l-1.369,1.16a.8.8,0,0,1-1.174-.02.816.816,0,0,1,.172-1.165L3.756,19.79a10.154,10.154,0,0,1-1.171-4.7l-1.744.007a.777.777,0,1,1-.011-1.549H2.673a11.272,11.272,0,0,1,1.2-3.867L2.289,8.347a.829.829,0,0,1-.182-1.176.788.788,0,0,1,1.174-.01l1.534,1.3c.6-.505.959-.506,1.323-.353A13.4,13.4,0,0,0,11.476,9.2,13.417,13.417,0,0,0,16.822,8.1c.364-.154.728-.153,1.323.353l1.534-1.3a.788.788,0,0,1,1.174.01.829.829,0,0,1-.182,1.176L19.09,9.675a11.28,11.28,0,0,1,1.2,3.867H22.13a.777.777,0,1,1-.011,1.549l-1.744-.007A10.153,10.153,0,0,1,19.2,19.791l1.5,1.256a.81.81,0,0,1,.182,1.165.8.8,0,0,1-1.174.02l-1.371-1.156a7.841,7.841,0,0,1-5.161,2.787,2.114,2.114,0,0,1-.244.015C12.406,23.877,12.144,23.635,12.144,23.174Zm8.234-8.285v0Zm0-.03Zm-17.795,0Zm0-.071v0Zm17.794,0a.109.109,0,0,1,0-.015A.108.108,0,0,0,20.378,14.788ZM2.586,14.622a.006.006,0,0,1,0,0A.006.006,0,0,0,2.586,14.622Zm17.789,0v0ZM18.724,9.1l-.009-.012ZM18.7,9.069l-.018-.024Zm-.023-.031a3.915,3.915,0,0,0-.368-.429A3.955,3.955,0,0,1,18.68,9.038ZM4.429,8.849l0,0Zm.027-.032,0-.005Zm.027-.031.007-.008Zm.027-.031.009-.01Zm.028-.031.01-.01Zm.028-.031.01-.01Zm.029-.03.01-.011Zm.029-.03.011-.011ZM18.31,8.607l-.027-.027Zm-13.657,0,.012-.011Zm13.6-.056.03.029-.03-.029-.076-.067Zm-13.54,0-.029.028.029-.028.077-.068ZM6.958,7.192A1.275,1.275,0,0,1,6.1,5.926a3.7,3.7,0,0,1,2.08-3.231l.057-.243c.081-.354-.092-.587-.527-.739L7.019,1.46A.748.748,0,1,1,7.525.052l.8.324A1.814,1.814,0,0,1,9.688,2.123a8.176,8.176,0,0,1,3.584,0A1.814,1.814,0,0,1,14.635.376l.8-.324a.748.748,0,1,1,.506,1.407l-.689.253c-.436.152-.608.385-.527.739l.057.244a3.7,3.7,0,0,1,2.08,3.23A1.275,1.275,0,0,1,16,7.192a11.443,11.443,0,0,1-4.527.83A11.428,11.428,0,0,1,6.958,7.192Z" transform="translate(0.519 0)" fill="#fff"/></svg>