<svg xmlns="http://www.w3.org/2000/svg" xmlns:xlink="http://www.w3.org/1999/xlink" width="712" height="158" viewBox="0 0 712 158"><defs><linearGradient id="a" y1="0.5" x2="1" y2="0.5" gradientUnits="objectBoundingBox"><stop offset="0" stop-color="#026cf2"/><stop offset="1" stop-color="#7656fb"/></linearGradient><clipPath id="b"><rect width="712" height="158" transform="translate(654 120)" fill="url(#a)"/></clipPath><linearGradient id="c" y1="0.281" x2="0.979" y2="0.29" gradientUnits="objectBoundingBox"><stop offset="0" stop-color="#fff" stop-opacity="0"/><stop offset="1" stop-color="#fff"/></linearGradient><linearGradient id="d" x1="1.104" y1="0.26" x2="0" y2="0.266" xlink:href="#c"/></defs><g transform="translate(-654 -120)" opacity="0.219" clip-path="url(#b)"><g transform="translate(-677 -364.603)"><path d="M1172.425,19.715c0,232.607-137.542,433.72-335.633,526.2a579.454,579.454,0,0,0-623.375-86.611C89.888,352.8,11.552,195.224,11.552,19.715H253.787c0,186.509,151.707,338.206,338.206,338.206s338.2-151.7,338.2-338.206Z" transform="translate(1241.575 199.211)" fill="url(#c)"/><path d="M1112.516,757.591l-232.15-69.147C933.7,509.779,831.561,321.02,652.9,267.84,474.08,214.516,285.474,316.654,232.14,495.319L0,426.172C49.416,260.614,166.463,133.32,311.983,65.831a577.441,577.441,0,0,0,378.576,140.85,576.665,576.665,0,0,0,244.8-54.229c167.521,144.767,244.342,379.624,177.158,605.139" transform="translate(1143 592.689)" opacity="0.5" fill="url(#d)"/></g></g></svg>