<svg xmlns="http://www.w3.org/2000/svg" xmlns:xlink="http://www.w3.org/1999/xlink" width="1176" height="599" viewBox="0 0 1176 599"><defs><clipPath id="a"><rect width="1176" height="599" rx="16" transform="translate(95 376)" fill="#fff" stroke="#d1dbf0" stroke-width="1"/></clipPath></defs><g transform="translate(-95 -376)" clip-path="url(#a)"><g transform="translate(175 886)" fill="#e6f3ff" stroke="#3c89eb" stroke-width="1"><rect width="1016" height="283" rx="16" stroke="none"/><rect x="0.5" y="0.5" width="1015" height="282" rx="15.5" fill="none"/></g><g transform="translate(175 1193)" fill="#fdf9e4" stroke="#f3c86b" stroke-width="1"><rect width="1016" height="283" rx="16" stroke="none"/><rect x="0.5" y="0.5" width="1015" height="282" rx="15.5" fill="none"/></g><g transform="translate(175 1500)" fill="#fcebeb" stroke="#ed7f77" stroke-width="1"><rect width="1016" height="283" rx="16" stroke="none"/><rect x="0.5" y="0.5" width="1015" height="282" rx="15.5" fill="none"/></g><text transform="translate(175 526)" fill="#66769b" font-size="24" font-family="Rubik-SemiBold, Rubik" font-weight="600"><tspan x="0" y="0">Accessibility Report For:</tspan><tspan y="0" xml:space="preserve" fill="#07253f"> “https:mormorah.gov.sa/ar”</tspan></text><text transform="translate(175 569)" fill="#07253f" font-size="14" font-family="Rubik-SemiBold, Rubik" font-weight="600"><tspan x="0" y="0" text-decoration="underline">Generated:</tspan><tspan y="0" xml:space="preserve" font-family="Rubik-Regular, Rubik" font-weight="400"> Thu Sep 21 2023 - 14:06:55 GMT+0300 (Arabian Standard Time).</tspan></text><g transform="translate(-35 105)"><g transform="translate(210 709)" fill="#fcebeb" stroke="#ed7f77" stroke-width="1"><rect width="115" height="48" rx="24" stroke="none"/><rect x="0.5" y="0.5" width="114" height="47" rx="23.5" fill="none"/></g><rect width="32" height="32" rx="16" transform="translate(218 717)" fill="#ed7f77"/><text transform="translate(258 737)" fill="#07253f" font-size="14" font-family="Rubik-SemiBold, Rubik" font-weight="600"><tspan x="0" y="0">Errors</tspan></text><text transform="translate(234 737)" fill="#fff" font-size="12" font-family="Rubik-SemiBold, Rubik" font-weight="600"><tspan x="-6.738" y="0">13</tspan></text></g><g transform="translate(92 105)"><g transform="translate(210 709)" fill="#fdf9e4" stroke="#f3c86b" stroke-width="1"><rect width="135" height="48" rx="24" stroke="none"/><rect x="0.5" y="0.5" width="134" height="47" rx="23.5" fill="none"/></g><rect width="32" height="32" rx="16" transform="translate(218 717)" fill="#f3c86b"/><text transform="translate(258 737)" fill="#07253f" font-size="14" font-family="Rubik-SemiBold, Rubik" font-weight="600"><tspan x="0" y="0">Warnings</tspan></text><text transform="translate(234 737)" fill="#fff" font-size="12" font-family="Rubik-SemiBold, Rubik" font-weight="600"><tspan x="-10.026" y="0">127</tspan></text></g><g transform="translate(239 105)"><g transform="translate(210 709)" fill="#e6f3ff" stroke="#3c89eb" stroke-width="1"><rect width="124" height="48" rx="24" stroke="none"/><rect x="0.5" y="0.5" width="123" height="47" rx="23.5" fill="none"/></g><rect width="32" height="32" rx="16" transform="translate(218 717)" fill="#3c89eb"/><text transform="translate(258 737)" fill="#07253f" font-size="14" font-family="Rubik-SemiBold, Rubik" font-weight="600"><tspan x="0" y="0">Notices</tspan></text><text transform="translate(234 737)" fill="#fff" font-size="12" font-family="Rubik-SemiBold, Rubik" font-weight="600"><tspan x="-10.476" y="0">316</tspan></text></g><g transform="translate(868 613)" fill="#fff" stroke="#d1dbf0" stroke-width="1"><rect width="323" height="121" rx="16" stroke="none"/><rect x="0.5" y="0.5" width="322" height="120" rx="15.5" fill="none"/></g><g transform="translate(522 613)" fill="#fff" stroke="#d1dbf0" stroke-width="1"><rect width="322" height="121" rx="16" stroke="none"/><rect x="0.5" y="0.5" width="321" height="120" rx="15.5" fill="none"/></g><g transform="translate(175 613)" fill="#fff" stroke="#d1dbf0" stroke-width="1"><rect width="323" height="121" rx="16" stroke="none"/><rect x="0.5" y="0.5" width="322" height="120" rx="15.5" fill="none"/></g><rect width="56" height="56" rx="28" transform="translate(1103 645)" fill="#f7931b"/><rect width="56" height="56" rx="28" transform="translate(756 645)" fill="#09abed"/><rect width="56" height="56" rx="28" transform="translate(410 645)" fill="#767eff"/><text transform="translate(1029 674)" fill="#07253f" font-size="24" font-family="Rubik-SemiBold, Rubik" font-weight="600"><tspan x="-49.848" y="22">63%</tspan></text><text transform="translate(682 674)" fill="#07253f" font-size="24" font-family="Rubik-SemiBold, Rubik" font-weight="600"><tspan x="-47.136" y="22">76%</tspan></text><text transform="translate(1079 658)" fill="#66769b" font-size="14" font-family="Rubik-SemiBold, Rubik" font-weight="600"><tspan x="-158.508" y="0">نسبة توافق الفحص السابق</tspan></text><text transform="translate(732 658)" fill="#66769b" font-size="14" font-family="Rubik-SemiBold, Rubik" font-weight="600"><tspan x="-154.98" y="0">نسبة توافق الفحص الحالي</tspan></text><text transform="translate(386 658)" fill="#66769b" font-size="14" font-family="Rubik-SemiBold, Rubik" font-weight="600"><tspan x="-86.576" y="0">مؤشر التحسين</tspan></text><g transform="translate(-82 -2331)"><rect width="83" height="32" rx="16" transform="translate(393 3001)" fill="#bcf7db"/><text transform="translate(429 3023)" fill="#07253f" font-size="16" font-family="Rubik-SemiBold, Rubik" font-weight="600"><tspan x="0" y="0">13%</tspan></text><g transform="translate(409 3011)"><rect width="12" height="11.984" fill="#07253f" opacity="0"/><path d="M12,8.984,11.992.822A.741.741,0,0,0,11.2.035H3.03a.742.742,0,0,0-.764.738A.748.748,0,0,0,3,1.5H5.825l3.965-.13L8.279,2.688.227,10.745A.737.737,0,0,0,0,11.256a.781.781,0,0,0,.756.755.684.684,0,0,0,.512-.219L9.335,3.743l1.341-1.517-.146,3.789v3A.736.736,0,1,0,12,8.984Z" transform="translate(0 -0.011)" fill="#07253f"/></g></g><g transform="translate(747 170)"><rect width="24" height="24" transform="translate(25 491)" fill="#fff" opacity="0"/><path d="M24,38a3,3,0,0,1-3,3H13.125v3h2.161a1.126,1.126,0,0,1,.8,1.922L12.8,49.2a1.12,1.12,0,0,1-1.589,0L7.922,45.922A1.126,1.126,0,0,1,8.719,44h2.156V41H3a3,3,0,0,1-3-3V35a3,3,0,0,1,3-3H21a3,3,0,0,1,3,3ZM21,50V47H17.123l.019-.019A2.6,2.6,0,0,0,17.658,44H21a3,3,0,0,1,3,3v3a3,3,0,0,1-3,3H3a3,3,0,0,1-3-3V47a3,3,0,0,1,3-3H6.342a2.6,2.6,0,0,0,.516,2.981L6.877,47H3v3H9.877l.267.267a2.623,2.623,0,0,0,3.712,0L14.123,50Z" transform="translate(25 460.5)" fill="#fff"/></g><g transform="translate(436 159)"><rect width="24" height="24" transform="translate(683 502)" fill="#fff" opacity="0"/><path d="M21,50V47H3v3Zm0,3H3a3,3,0,0,1-3-3V47a3,3,0,0,1,3-3H21a3,3,0,0,1,3,3v3A3,3,0,0,1,21,53ZM13.5,38a3,3,0,0,1-3,3H3a3,3,0,0,1-3-3V35a3,3,0,0,1,3-3H17.25A3.749,3.749,0,0,1,21,35.75v.75h1.786a1.126,1.126,0,0,1,.8,1.922L20.3,41.7a1.12,1.12,0,0,1-1.589,0l-3.286-3.281a1.126,1.126,0,0,1,.8-1.922H18v-.75a.752.752,0,0,0-.75-.75H13.5v3Z" transform="translate(683 471.5)" fill="#fff"/></g><g transform="translate(139 113)"><g transform="translate(287 548)" fill="#fff" stroke="#707070" stroke-width="1" opacity="0"><rect width="24" height="24" stroke="none"/><rect x="0.5" y="0.5" width="23" height="23" fill="none"/></g><path d="M3,33.5a1.5,1.5,0,0,0-3,0V49.25A3.749,3.749,0,0,0,3.75,53H22.5a1.5,1.5,0,0,0,0-3H3.75A.752.752,0,0,1,3,49.25Zm19.059,4.059a1.5,1.5,0,0,0-2.123-2.123L15,40.377l-2.691-2.691a1.5,1.5,0,0,0-2.123,0l-5.25,5.25a1.5,1.5,0,1,0,2.123,2.123l4.191-4.186,2.691,2.691a1.5,1.5,0,0,0,2.123,0l6-6Z" transform="translate(287 517.5)" fill="#fff"/></g><line x1="1174" transform="translate(96.5 774)" fill="none" stroke="#d1dbf0" stroke-width="1"/><g transform="translate(-35 202)"><g transform="translate(242 716)" fill="#d3eaff" stroke="#3c89eb" stroke-width="1"><rect width="77" height="32" rx="16" stroke="none"/><rect x="0.5" y="0.5" width="76" height="31" rx="15.5" fill="none"/></g><text transform="translate(258 737)" fill="#07253f" font-size="14" font-family="Rubik-SemiBold, Rubik" font-weight="600"><tspan x="0" y="0">Notice</tspan></text></g><g transform="translate(-35 509)"><g transform="translate(242 716)" fill="#fdf5cd" stroke="#f3c86b" stroke-width="1"><rect width="88" height="32" rx="16" stroke="none"/><rect x="0.5" y="0.5" width="87" height="31" rx="15.5" fill="none"/></g><text transform="translate(258 737)" fill="#07253f" font-size="14" font-family="Rubik-SemiBold, Rubik" font-weight="600"><tspan x="0" y="0">Warning</tspan></text></g><g transform="translate(-35 816)"><g transform="translate(242 716)" fill="#ffdede" stroke="#ed7f77" stroke-width="1"><rect width="67" height="32" rx="16" stroke="none"/><rect x="0.5" y="0.5" width="66" height="31" rx="15.5" fill="none"/></g><text transform="translate(258 737)" fill="#07253f" font-size="14" font-family="Rubik-SemiBold, Rubik" font-weight="600"><tspan x="0" y="0">Error</tspan></text></g><text transform="translate(207 966)" fill="#1a4e90" font-size="14" font-family="Rubik-SemiBold, Rubik" font-weight="600"><tspan x="0" y="13">Check that the link text combined with programmatically determined link context identifies the purpose of the link.</tspan></text><text transform="translate(207 1273)" fill="#86641d" font-size="14" font-family="Rubik-SemiBold, Rubik" font-weight="600"><tspan x="0" y="13">Check that the link text combined with programmatically determined link context identifies the purpose of the link.</tspan></text><text transform="translate(207 1580)" fill="#a34a43" font-size="14" font-family="Rubik-SemiBold, Rubik" font-weight="600"><tspan x="0" y="13">Check that the link text combined with programmatically determined link context identifies the purpose of the link.</tspan></text><text transform="translate(207 1008)" fill="#66769b" font-size="14" font-family="Rubik-Regular, Rubik"><tspan x="0" y="0">WCAG2AA.Principle1.Guideline1_4.1_4_3.G18.Abs</tspan></text><text transform="translate(207 1315)" fill="#66769b" font-size="14" font-family="Rubik-Regular, Rubik"><tspan x="0" y="0">WCAG2AA.Principle1.Guideline1_4.1_4_3.G18.Abs</tspan></text><text transform="translate(207 1622)" fill="#66769b" font-size="14" font-family="Rubik-Regular, Rubik"><tspan x="0" y="0">WCAG2AA.Principle1.Guideline1_4.1_4_3.G18.Abs</tspan></text><text transform="translate(207 1036)" fill="#07253f" font-size="14" font-family="Rubik-Regular, Rubik"><tspan x="0" y="13" xml:space="preserve">&lt;div class=“box hover_transition”&gt;  </tspan><tspan x="0" y="41">&lt;img id=“shopping-basket-Light” src=“./img/star-light.svg” alt=“shopping light”&gt;</tspan><tspan x="0" y="69">&lt;span&gt;Light&lt;/span&gt;</tspan><tspan x="0" y="97">&lt;/div&gt;</tspan></text><text transform="translate(207 1343)" fill="#07253f" font-size="14" font-family="Rubik-Regular, Rubik"><tspan x="0" y="13" xml:space="preserve">&lt;div class=“box hover_transition”&gt;  </tspan><tspan x="0" y="41">&lt;img id=“shopping-basket-Light” src=“./img/star-light.svg” alt=“shopping light”&gt;</tspan><tspan x="0" y="69">&lt;span&gt;Light&lt;/span&gt;</tspan><tspan x="0" y="97">&lt;/div&gt;</tspan></text><text transform="translate(207 1650)" fill="#07253f" font-size="14" font-family="Rubik-Regular, Rubik"><tspan x="0" y="13" xml:space="preserve">&lt;div class=“box hover_transition”&gt;  </tspan><tspan x="0" y="41">&lt;img id=“shopping-basket-Light” src=“./img/star-light.svg” alt=“shopping light”&gt;</tspan><tspan x="0" y="69">&lt;span&gt;Light&lt;/span&gt;</tspan><tspan x="0" y="97">&lt;/div&gt;</tspan></text></g></svg>