<svg xmlns="http://www.w3.org/2000/svg" xmlns:xlink="http://www.w3.org/1999/xlink" width="595" height="768" viewBox="0 0 595 768"><defs><clipPath id="a"><rect width="595" height="768" fill="#fff"/></clipPath></defs><g clip-path="url(#a)"><g transform="translate(-1414.614 -1124.606)"><path d="M757.652,352.387C757.652,157.764,599.888,0,405.264,0,210.66,0,52.9,157.764,52.9,352.387S210.66,704.774,405.264,704.774c194.623,0,352.387-157.764,352.387-352.387" transform="translate(2043.503 31)" fill="#f9ae40"/><path d="M2206.566,19.715c0,439.821-260.068,820.091-634.624,994.96a1088.583,1088.583,0,0,0-403.359-220.74c-266.9-79.486-540.629-52.4-775.337,56.974C159.673,649.527,11.552,351.573,11.552,19.715H469.577c0,352.657,286.852,639.491,639.491,639.491,352.621,0,639.472-286.833,639.472-639.491Z" transform="translate(1339.662 366.604)" fill="#57cefb"/><path d="M2103.579,1373.831l-438.956-130.746c100.844-337.824-92.283-694.735-430.106-795.29C896.4,346.969,539.782,540.1,438.938,877.92L0,747.174C93.436,434.133,314.753,193.44,589.907,65.831c192.28,166.054,442.651,266.323,715.822,266.323A1090.379,1090.379,0,0,0,1768.6,229.615c316.754,273.73,462.009,717.8,334.976,1144.216" transform="translate(1143 1151.738)" fill="#177dfc"/></g></g></svg>