<svg xmlns="http://www.w3.org/2000/svg" width="20" height="20" viewBox="0 0 20 20"><g transform="translate(-874 -499)"><rect width="20" height="20" transform="translate(874 499)" fill="#66769b" opacity="0"/><path d="M22.875,0a3.751,3.751,0,0,0-3.75,3.75V10a3.75,3.75,0,0,0,7.5,0V3.75A3.751,3.751,0,0,0,22.875,0Zm-5,8.438a.938.938,0,0,0-1.875,0V10a6.878,6.878,0,0,0,5.938,6.813v1.313H20.063a.938.938,0,0,0,0,1.875h5.625a.938.938,0,0,0,0-1.875H23.813V16.813A6.878,6.878,0,0,0,29.75,10V8.438a.938.938,0,0,0-1.875,0V10a5,5,0,0,1-10,0Z" transform="translate(861.125 499)" fill="#66769b"/></g></svg>