<svg xmlns="http://www.w3.org/2000/svg" width="20" height="20" viewBox="0 0 20 20"><g transform="translate(-156 -5069)"><rect width="20" height="20" transform="translate(156 5069)" fill="#006cf2" opacity="0"/><path d="M.547.1a.936.936,0,0,1,1,.141L3.125,1.594,4.7.243a.936.936,0,0,1,1.219,0L7.5,1.594,9.078.243a.936.936,0,0,1,1.219,0l1.578,1.352L13.453.243A.937.937,0,0,1,15,.954V19.08a.937.937,0,0,1-1.547.711l-1.578-1.352L10.3,19.791a.936.936,0,0,1-1.219,0L7.5,18.439,5.922,19.791a.936.936,0,0,1-1.219,0L3.125,18.439,1.547,19.791A.937.937,0,0,1,0,19.08V.954A.938.938,0,0,1,.547.1Zm3.2,5.539a.625.625,0,0,0,0,1.25h7.5a.625.625,0,0,0,0-1.25Zm-.625,8.126a.627.627,0,0,0,.625.625h7.5a.625.625,0,0,0,0-1.25H3.75A.627.627,0,0,0,3.125,13.767ZM3.75,9.392a.625.625,0,0,0,0,1.25h7.5a.625.625,0,0,0,0-1.25Z" transform="translate(158.5 5068.983)" fill="#006cf2"/></g></svg>