<svg xmlns="http://www.w3.org/2000/svg" width="20" height="20" viewBox="0 0 20 20"><path d="M3.043.184A.936.936,0,0,0,1.809.262L.246,1.824A.941.941,0,0,0,.164,3.059L3.289,7.121a.938.938,0,0,0,.742.367H6.144L10.4,11.746a3.017,3.017,0,0,0,.559,3.5l4.375,4.375a1.252,1.252,0,0,0,1.769,0l2.5-2.5a1.252,1.252,0,0,0,0-1.769L15.23,10.976a3.023,3.023,0,0,0-3.5-.559L7.472,6.16V4.051a.933.933,0,0,0-.367-.742ZM.75,15.461a2.652,2.652,0,1,0,3.75,3.75l4.6-4.6a4.286,4.286,0,0,1-.141-2.543l-2.41-2.41ZM19.972,5.613a5.68,5.68,0,0,0-.125-1.191.55.55,0,0,0-.945-.234l-2.5,2.5a.627.627,0,0,1-.441.184H13.722a.627.627,0,0,1-.625-.625V4a.627.627,0,0,1,.184-.441l2.5-2.5a.55.55,0,0,0-.234-.945,5.745,5.745,0,0,0-1.2-.125A5.626,5.626,0,0,0,8.722,5.613v.031l3.332,3.332A4.262,4.262,0,0,1,16.116,10.1l.613.613A5.632,5.632,0,0,0,19.972,5.613ZM2.16,16.863A.937.937,0,1,1,3.1,17.8.937.937,0,0,1,2.16,16.863Z" transform="translate(0.028 0.012)" fill="#66769b"/></svg>